<svg viewBox="0 0 323.8903 325" fill="none" xmlns="http://www.w3.org/2000/svg" xmlns:xlink="http://www.w3.org/1999/xlink" x="0" y="0"><defs><clipPath id="clip16_123_13">
<rect width="323.89" height="325" fill="white" transform="translate(0.0004000000000132786, 0)"/>
</clipPath></defs><g id="be0c93f6-e99a-4a4f-8486-34e03bbec6e4" clip-path="url(#clip16_123_13)">
<path id="Vector_6" d="M323.8854,0h-193.2c-1.48,9.05 -2.23,18.21 -2.22,27.38c0,92.58 75.05,167.63 167.63,167.63c9.31,0 18.61,-0.77 27.79,-2.3z" fill="#2F2E41"/>
<path id="Vector_7" d="M242.1154,104.79c-2.9,0.01 -5.77,-0.51 -8.49,-1.53c-0.16,-0.06 -0.3,-0.15 -0.42,-0.26c-0.12,-0.11 -0.22,-0.25 -0.29,-0.4c-0.07,-0.15 -0.1,-0.31 -0.11,-0.48c-0.01,-0.16 0.02,-0.33 0.08,-0.49c0.06,-0.15 0.15,-0.29 0.26,-0.41c0.11,-0.13 0.25,-0.22 0.4,-0.29c0.15,-0.07 0.31,-0.11 0.48,-0.11c0.17,-0.01 0.33,0.02 0.49,0.08c3.6,1.33 7.48,1.69 11.27,1.06c3.79,-0.63 7.34,-2.23 10.32,-4.66c-9.28,0.1 -18.36,-4.29 -22.88,-11.32c-2.9,-4.53 -3.85,-9.85 -2.75,-15.4c0.85,-4.03 2.59,-7.81 5.09,-11.07c-4.78,1.52 -8.89,4.64 -11.65,8.83c-2.76,4.18 -4,9.19 -3.52,14.19c0.02,0.16 0,0.33 -0.04,0.49c-0.05,0.16 -0.13,0.31 -0.24,0.44c-0.1,0.12 -0.23,0.23 -0.38,0.31c-0.14,0.08 -0.3,0.13 -0.47,0.14c-0.17,0.02 -0.33,0 -0.49,-0.04c-0.16,-0.05 -0.31,-0.13 -0.44,-0.24c-0.13,-0.1 -0.23,-0.23 -0.31,-0.38c-0.08,-0.15 -0.13,-0.31 -0.14,-0.47c-0.62,-6.29 1.22,-12.56 5.13,-17.52c3.91,-4.96 9.59,-8.21 15.84,-9.08c0.26,-0.03 0.53,0.01 0.76,0.14c0.23,0.12 0.42,0.31 0.54,0.55c0.12,0.23 0.16,0.5 0.12,0.76c-0.04,0.26 -0.16,0.5 -0.35,0.69c-6.46,6.57 -10.38,17.24 -4.57,26.29c4.58,7.14 14.44,11.22 23.97,9.93c0.26,-0.03 0.52,0.01 0.75,0.13c0.23,0.12 0.42,0.3 0.54,0.53c0.12,0.23 0.17,0.49 0.14,0.74c-0.03,0.26 -0.14,0.5 -0.31,0.69c-2.31,2.58 -5.14,4.63 -8.3,6.04c-3.15,1.4 -6.57,2.13 -10.03,2.12z" fill="#38BDF8"/>
<path id="Vector_8" d="M221.9654,105.3c-1.83,0 -3.63,-0.55 -5.15,-1.57c-1.52,-1.01 -2.71,-2.46 -3.41,-4.15c-0.7,-1.7 -0.89,-3.56 -0.53,-5.36c0.36,-1.8 1.24,-3.45 2.54,-4.74c1.29,-1.3 2.94,-2.18 4.74,-2.54c1.8,-0.36 3.66,-0.17 5.35,0.53c1.7,0.7 3.15,1.89 4.16,3.41c1.02,1.53 1.56,3.32 1.56,5.15c0,2.46 -0.98,4.81 -2.71,6.55c-1.74,1.74 -4.09,2.71 -6.55,2.72zM221.9654,89.29c-1.33,0 -2.64,0.4 -3.75,1.14c-1.1,0.74 -1.97,1.79 -2.48,3.02c-0.51,1.23 -0.64,2.59 -0.38,3.89c0.26,1.31 0.9,2.51 1.84,3.45c0.95,0.95 2.15,1.59 3.45,1.85c1.31,0.26 2.67,0.13 3.9,-0.38c1.23,-0.51 2.28,-1.38 3.02,-2.49c0.74,-1.1 1.14,-2.41 1.14,-3.74c0,-1.79 -0.71,-3.5 -1.98,-4.76c-1.26,-1.27 -2.97,-1.98 -4.76,-1.98z" fill="#38BDF8"/>
<path id="Vector_9" d="M3.6604,238.84c-0.608,-0.09 -1.19,-0.32 -1.705,-0.65c-0.515,-0.34 -0.952,-0.79 -1.282,-1.31c-0.33,-0.52 -0.545,-1.1 -0.63,-1.71c-0.086,-0.61 -0.04,-1.23 0.133,-1.82l3.281,-11.16l4.984,0.94l0.215,11.36c0.012,0.63 -0.115,1.25 -0.371,1.83c-0.256,0.58 -0.635,1.09 -1.111,1.51c-0.476,0.41 -1.038,0.72 -1.645,0.9c-0.607,0.17 -1.244,0.21 -1.869,0.11z" fill="#9F616A"/>
<path id="Vector_10" d="M32.4294,310.05l-6.23,-0.94l1.557,-60.75l-8.722,26.17l-4.673,36.76l-5.92,-1.56l-1.246,-38.31l6.854,-45.18l34.269,7.79z" fill="#2F2E41"/>
<path id="Vector_11" d="M29.5684,325c-1.214,0 -2.379,-0.48 -3.238,-1.34c-0.859,-0.86 -1.341,-2.02 -1.341,-3.24c0,-0.15 0.007,-0.3 0.022,-0.45l0.967,-9.83c0.024,-0.24 0.104,-0.47 0.235,-0.66c0.131,-0.2 0.309,-0.36 0.517,-0.47c1.836,-0.99 3.725,-0.75 5.658,0.54c0.172,0.12 0.316,0.27 0.424,0.44c0.107,0.18 0.176,0.38 0.2,0.58l1.104,9.31c0.076,0.64 0.015,1.29 -0.178,1.91c-0.194,0.62 -0.516,1.19 -0.946,1.67c-0.43,0.49 -0.957,0.87 -1.547,1.14c-0.59,0.26 -1.23,0.4 -1.877,0.4z" fill="#2F2E41"/>
<path id="Vector_12" d="M4.1364,324.27c-0.587,-0.22 -1.117,-0.56 -1.551,-1.01c-0.434,-0.45 -0.76,-1 -0.953,-1.59c-0.193,-0.6 -0.248,-1.23 -0.161,-1.85c0.087,-0.62 0.314,-1.21 0.663,-1.73l6.646,-9.88c2.396,-1.72 3.841,-0.88 4.403,2.33l1.343,-3.36l1.013,1.1c0.514,0.56 0.812,1.29 0.844,2.05c0.031,0.76 -0.208,1.5 -0.674,2.1l-6.894,10.49c-0.536,0.7 -1.279,1.2 -2.12,1.44c-0.841,0.24 -1.737,0.21 -2.559,-0.09z" fill="#2F2E41"/>
<path id="Vector_13" d="M46.1374,167.67c5.161,0 9.346,-4.18 9.346,-9.34c0,-5.16 -4.185,-9.35 -9.346,-9.35c-5.162,0 -9.346,4.19 -9.346,9.35c0,5.16 4.184,9.34 9.346,9.34z" fill="#9F616A"/>
<path id="Vector_14" d="M52.0564,175.46l-15.888,-3.11c2.046,-4.37 3.685,-5.84 1.869,-10.59h12.773c-1.127,4.92 -0.038,9.53 1.246,13.7z" fill="#9F616A"/>
<path id="Vector_15" d="M50.1874,238.39l-37.385,-10.59c7.488,-16.48 9.057,-34.57 6.837,-53.7c-0.053,-0.45 -0.016,-0.91 0.108,-1.35c0.124,-0.43 0.332,-0.84 0.614,-1.2c0.282,-0.36 0.632,-0.65 1.028,-0.88c0.397,-0.22 0.834,-0.36 1.285,-0.41c0.042,-0.01 0.084,-0.01 0.127,-0.01c4.876,-0.41 9.96,-0.92 15.236,-1.64l5.919,4.05l6.854,-1.56c2.199,1.07 4.414,1.95 6.413,2.84c1.823,0.81 3.279,2.26 4.085,4.09c0.806,1.82 0.904,3.88 0.275,5.77c-6.092,18.4 -10.169,36.62 -11.396,54.59z" fill="#592929"/>
<path id="Vector_16" d="M9.3764,224.37l-7.165,-0.93l16.974,-48.91c0.864,-2.49 3.005,-3.83 5.612,-4.21l2.492,0.31l-1.869,28.98z" fill="#592929"/>
<path id="Vector_17" d="M65.5044,215.02c-1.193,0.1 -2.384,-0.19 -3.404,-0.82c-1.021,-0.62 -1.817,-1.55 -2.276,-2.66l-6.833,-16.45l5.607,-20.25l1.483,0.94c0.143,0.09 0.284,0.19 0.423,0.28c2.081,1.46 3.702,3.48 4.672,5.83c0.97,2.35 1.249,4.93 0.804,7.43l-1.462,8.57l6.032,12.96c-0.306,1.13 -0.956,2.14 -1.86,2.89c-0.903,0.74 -2.016,1.19 -3.186,1.28z" fill="#592929"/>
<path id="Vector_18" d="M46.8564,144.48c1.597,0.07 3.152,0.53 4.534,1.33c0.318,0.19 0.171,0.85 0.465,1.07c0.37,0.28 1.173,0.11 1.5,0.43c1.058,1.03 1.872,2.29 2.383,3.67c0.512,1.39 0.708,2.87 0.575,4.34l-0.521,5.19l-1.231,-1.35c-2.205,-2.44 -5.268,-3.95 -8.552,-4.2c-0.139,0 -0.279,-0.01 -0.419,-0.02l0.946,-1.65l-1.645,1.64c-0.75,0.01 -1.499,0.07 -2.241,0.18l1.259,-2.2l-2.415,2.42c-0.988,0.21 -1.911,0.66 -2.695,1.3c-0.783,0.64 -1.406,1.45 -1.817,2.38l-0.268,0.59l-0.301,-4.95c-0.057,-2.64 0.938,-5.2 2.767,-7.11c1.828,-1.91 4.341,-3.01 6.985,-3.07c0.23,-0.01 0.461,0 0.691,0.01z" fill="#2F2E41"/>
<path id="Vector_19" d="M55.5444,161.92c0.415,0 0.751,-0.8 0.751,-1.78c0,-0.99 -0.336,-1.79 -0.751,-1.79c-0.414,0 -0.75,0.8 -0.75,1.79c0,0.98 0.336,1.78 0.75,1.78z" fill="#9F616A"/>
<path id="Vector_20" d="M36.7774,161.36c0.414,0 0.75,-0.8 0.75,-1.79c0,-0.98 -0.336,-1.78 -0.75,-1.78c-0.415,0 -0.751,0.8 -0.751,1.78c0,0.99 0.336,1.79 0.751,1.79z" fill="#9F616A"/>
<path id="Vector_21" d="M73.2994,183.39c0.599,0.15 1.159,0.42 1.644,0.8c0.485,0.38 0.882,0.86 1.167,1.41c0.284,0.54 0.449,1.14 0.482,1.76c0.034,0.61 -0.064,1.23 -0.288,1.8l-4.215,10.84l-4.887,-1.36l0.75,-11.33c0.042,-0.63 0.221,-1.24 0.525,-1.8c0.305,-0.55 0.726,-1.03 1.236,-1.41c0.509,-0.37 1.095,-0.63 1.714,-0.75c0.62,-0.12 1.259,-0.11 1.872,0.04z" fill="#9F616A"/>
<path id="Vector_22" d="M67.6334,214.41l-7.789,-4.99l6.543,-13.4l8.099,3.12l-4.049,11.84z" fill="#592929"/>
<path id="Vector_23" d="M72.8654,172.31v-52.69h-0.843v52.69c-0.511,0.1 -0.965,0.39 -1.275,0.81c-0.309,0.42 -0.451,0.94 -0.399,1.46c0.053,0.52 0.296,1 0.683,1.35c0.387,0.35 0.891,0.55 1.412,0.55c0.522,0 1.026,-0.2 1.413,-0.55c0.387,-0.35 0.63,-0.83 0.683,-1.35c0.052,-0.52 -0.09,-1.04 -0.399,-1.46c-0.31,-0.42 -0.764,-0.71 -1.275,-0.81zM72.4434,175.63c-0.249,0 -0.494,-0.07 -0.702,-0.21c-0.207,-0.14 -0.369,-0.34 -0.465,-0.57c-0.096,-0.23 -0.121,-0.48 -0.072,-0.73c0.049,-0.24 0.169,-0.47 0.346,-0.64c0.177,-0.18 0.402,-0.3 0.647,-0.35c0.245,-0.05 0.499,-0.02 0.73,0.07c0.231,0.1 0.428,0.26 0.567,0.47c0.139,0.21 0.213,0.45 0.213,0.7c0,0.33 -0.134,0.66 -0.371,0.89c-0.236,0.24 -0.558,0.37 -0.893,0.37z" fill="#3F3D56"/>
<path id="Vector_24" d="M71.7834,69.31c-0.482,0 -0.944,-0.19 -1.284,-0.53c-0.341,-0.34 -0.533,-0.8 -0.533,-1.28v-5.45c0.001,-0.49 0.193,-0.95 0.534,-1.29c0.34,-0.34 0.802,-0.53 1.283,-0.53c0.482,0 0.943,0.19 1.284,0.53c0.341,0.34 0.533,0.8 0.533,1.29v5.45c0,0.24 -0.047,0.47 -0.138,0.69c-0.091,0.22 -0.225,0.42 -0.394,0.59c-0.169,0.17 -0.369,0.3 -0.589,0.4c-0.221,0.09 -0.457,0.13 -0.696,0.13z" fill="#38BDF8"/>
<path id="Vector_25" d="M71.7834,111.1c-0.238,0 -0.475,-0.04 -0.695,-0.14c-0.22,-0.09 -0.421,-0.22 -0.589,-0.39c-0.169,-0.17 -0.303,-0.37 -0.394,-0.59c-0.092,-0.22 -0.139,-0.46 -0.139,-0.69v-5.45c0,-0.24 0.047,-0.48 0.138,-0.7c0.091,-0.22 0.225,-0.42 0.394,-0.59c0.168,-0.17 0.369,-0.3 0.589,-0.4c0.221,-0.09 0.457,-0.13 0.696,-0.13c0.239,0 0.476,0.04 0.696,0.13c0.221,0.1 0.421,0.23 0.59,0.4c0.169,0.17 0.303,0.37 0.394,0.59c0.091,0.22 0.138,0.46 0.137,0.7v5.45c0,0.23 -0.047,0.47 -0.138,0.69c-0.091,0.22 -0.225,0.42 -0.394,0.59c-0.169,0.17 -0.369,0.3 -0.589,0.39c-0.221,0.1 -0.457,0.14 -0.696,0.14z" fill="#38BDF8"/>
<path id="Vector_26" d="M84.6324,74.63c-0.359,0 -0.711,-0.1 -1.01,-0.3c-0.298,-0.2 -0.531,-0.48 -0.669,-0.82c-0.137,-0.33 -0.173,-0.69 -0.103,-1.05c0.07,-0.35 0.243,-0.67 0.497,-0.93l3.854,-3.85c0.341,-0.34 0.803,-0.53 1.285,-0.53c0.482,0 0.944,0.19 1.284,0.53c0.341,0.34 0.532,0.8 0.532,1.28c0,0.49 -0.191,0.95 -0.531,1.29l-3.854,3.85c-0.169,0.17 -0.369,0.31 -0.59,0.4c-0.22,0.09 -0.456,0.14 -0.695,0.13z" fill="#38BDF8"/>
<path id="Vector_27" d="M55.0824,104.18c-0.359,0 -0.711,-0.1 -1.009,-0.3c-0.299,-0.2 -0.532,-0.48 -0.669,-0.82c-0.138,-0.33 -0.174,-0.69 -0.104,-1.05c0.07,-0.35 0.243,-0.67 0.497,-0.93l3.854,-3.85c0.341,-0.34 0.803,-0.53 1.285,-0.53c0.482,0 0.944,0.19 1.285,0.53c0.341,0.34 0.532,0.8 0.532,1.28c0,0.49 -0.191,0.95 -0.532,1.29l-3.854,3.85c-0.169,0.17 -0.369,0.31 -0.589,0.4c-0.221,0.09 -0.457,0.14 -0.696,0.13z" fill="#38BDF8"/>
<path id="Vector_28" d="M95.4034,87.48h-5.451c-0.481,0 -0.942,-0.19 -1.283,-0.53c-0.34,-0.34 -0.531,-0.8 -0.531,-1.28c0,-0.49 0.191,-0.95 0.531,-1.29c0.341,-0.34 0.802,-0.53 1.283,-0.53h5.451c0.239,0 0.476,0.05 0.696,0.14c0.221,0.09 0.422,0.22 0.591,0.39c0.169,0.17 0.303,0.37 0.394,0.59c0.092,0.22 0.139,0.46 0.139,0.7c0,0.23 -0.047,0.47 -0.139,0.69c-0.091,0.22 -0.225,0.42 -0.394,0.59c-0.169,0.17 -0.37,0.3 -0.591,0.4c-0.22,0.09 -0.457,0.13 -0.696,0.13z" fill="#38BDF8"/>
<path id="Vector_29" d="M53.6154,87.48h-5.451c-0.239,0 -0.475,-0.04 -0.696,-0.13c-0.221,-0.1 -0.422,-0.23 -0.591,-0.4c-0.169,-0.17 -0.303,-0.37 -0.394,-0.59c-0.092,-0.22 -0.139,-0.46 -0.139,-0.69c0,-0.24 0.047,-0.48 0.139,-0.7c0.091,-0.22 0.225,-0.42 0.394,-0.59c0.169,-0.17 0.37,-0.3 0.591,-0.39c0.221,-0.09 0.457,-0.14 0.696,-0.14h5.451c0.481,0 0.943,0.19 1.283,0.53c0.34,0.34 0.531,0.8 0.531,1.29c0,0.48 -0.191,0.94 -0.531,1.28c-0.34,0.34 -0.802,0.53 -1.283,0.53z" fill="#38BDF8"/>
<path id="Vector_30" d="M88.4864,104.18c-0.239,0.01 -0.475,-0.04 -0.696,-0.13c-0.22,-0.09 -0.421,-0.23 -0.589,-0.4l-3.854,-3.85c-0.169,-0.17 -0.303,-0.37 -0.395,-0.59c-0.092,-0.22 -0.139,-0.46 -0.139,-0.7c0,-0.24 0.047,-0.47 0.138,-0.69c0.092,-0.22 0.225,-0.42 0.394,-0.59c0.169,-0.17 0.37,-0.3 0.59,-0.4c0.221,-0.09 0.457,-0.13 0.696,-0.13c0.239,0 0.475,0.04 0.696,0.13c0.22,0.1 0.42,0.23 0.589,0.4l3.854,3.85c0.254,0.26 0.427,0.58 0.498,0.93c0.07,0.36 0.034,0.72 -0.104,1.05c-0.137,0.34 -0.37,0.62 -0.669,0.82c-0.299,0.2 -0.65,0.3 -1.009,0.3z" fill="#38BDF8"/>
<path id="Vector_31" d="M58.9364,74.64c-0.238,0 -0.475,-0.05 -0.695,-0.14c-0.221,-0.09 -0.421,-0.23 -0.589,-0.4l-3.855,-3.85c-0.168,-0.17 -0.302,-0.37 -0.393,-0.59c-0.092,-0.22 -0.139,-0.46 -0.139,-0.7c0,-0.23 0.047,-0.47 0.139,-0.69c0.091,-0.22 0.225,-0.42 0.393,-0.59c0.169,-0.17 0.369,-0.3 0.59,-0.39c0.22,-0.1 0.457,-0.14 0.695,-0.14c0.239,0 0.475,0.04 0.695,0.14c0.221,0.09 0.421,0.22 0.59,0.39l3.854,3.85c0.254,0.26 0.427,0.58 0.497,0.93c0.07,0.36 0.034,0.72 -0.103,1.05c-0.138,0.34 -0.371,0.62 -0.669,0.82c-0.299,0.2 -0.65,0.3 -1.01,0.31z" fill="#38BDF8"/>
<path id="Vector_32" d="M71.7844,96.57c-2.156,0 -4.264,-0.64 -6.057,-1.84c-1.792,-1.2 -3.19,-2.9 -4.015,-4.89c-0.825,-1.99 -1.041,-4.19 -0.62,-6.3c0.421,-2.12 1.459,-4.06 2.983,-5.58c1.525,-1.53 3.467,-2.57 5.582,-2.99c2.115,-0.42 4.307,-0.2 6.299,0.62c1.992,0.83 3.694,2.23 4.892,4.02c1.198,1.79 1.837,3.9 1.837,6.06c-0.003,2.89 -1.152,5.66 -3.196,7.7c-2.044,2.04 -4.815,3.19 -7.705,3.2zM71.7844,78.4c-1.438,0 -2.843,0.42 -4.038,1.22c-1.195,0.8 -2.126,1.94 -2.677,3.26c-0.55,1.33 -0.694,2.79 -0.413,4.2c0.28,1.41 0.972,2.71 1.989,3.72c1.016,1.02 2.311,1.71 3.721,1.99c1.41,0.28 2.871,0.14 4.199,-0.41c1.328,-0.55 2.463,-1.48 3.262,-2.68c0.798,-1.19 1.225,-2.6 1.225,-4.03c-0.003,-1.93 -0.769,-3.78 -2.132,-5.14c-1.362,-1.36 -3.209,-2.13 -5.136,-2.13z" fill="#38BDF8"/>
</g></svg>