<svg viewBox="0 0 391.1309 325" fill="none" xmlns="http://www.w3.org/2000/svg" xmlns:xlink="http://www.w3.org/1999/xlink" x="0" y="0"><defs><clipPath id="clip20_123_13">
<rect width="391.131" height="325" fill="white" transform="translate(-0.0004999999999881766, 0.00009999999974752427)"/>
</clipPath></defs><g id="b9487557-a669-4cf8-9129-0030ec11e29b" clip-path="url(#clip20_123_13)">
<path id="Vector_69" d="M257.3055,0.0001h-113.65c-17.679,0 -32.009,14.33 -32.009,32.01v259.71c0,17.68 14.33,32.01 32.009,32.01h113.65c17.68,0 32.01,-14.33 32.01,-32.01v-259.71c0,-17.68 -14.33,-32.01 -32.01,-32.01z" fill="#3F3D56"/>
<path id="Vector_70" d="M286.3155,32.0101v259.71c-0.01,7.7 -3.06,15.07 -8.5,20.51c-5.44,5.44 -12.82,8.5 -20.51,8.5h-113.65c-7.693,0 -15.067,-3.06 -20.505,-8.5c-5.439,-5.44 -8.498,-12.81 -8.507,-20.51v-259.71c0.009,-7.69 3.068,-15.07 8.507,-20.5c5.438,-5.44 12.812,-8.5 20.505,-8.51h14.86v5.13c0,2.33 0.92,4.56 2.57,6.2c1.64,1.64 3.87,2.57 6.19,2.57h66.41c2.32,0 4.55,-0.93 6.19,-2.57c1.65,-1.64 2.57,-3.87 2.57,-6.2v-5.13h14.86c7.69,0.01 15.07,3.07 20.51,8.51c5.44,5.43 8.49,12.81 8.5,20.5z" fill="white"/>
<path id="Vector_71" d="M110.8285,65.6701c-0.578,0 -1.132,-0.23 -1.541,-0.64c-0.409,-0.41 -0.638,-0.96 -0.639,-1.54v-4.36c0,-0.58 0.23,-1.13 0.638,-1.54c0.409,-0.41 0.964,-0.64 1.542,-0.64c0.578,0 1.133,0.23 1.541,0.64c0.409,0.41 0.639,0.96 0.639,1.54v4.36c-0.001,0.58 -0.231,1.13 -0.639,1.54c-0.409,0.41 -0.963,0.64 -1.541,0.64z" fill="#3F3D56"/>
<path id="Vector_72" d="M110.8285,88.0301c-0.578,0 -1.132,-0.23 -1.541,-0.64c-0.409,-0.41 -0.638,-0.96 -0.639,-1.54v-12c0,-0.58 0.23,-1.14 0.638,-1.54c0.409,-0.41 0.964,-0.64 1.542,-0.64c0.578,0 1.133,0.23 1.541,0.64c0.409,0.4 0.639,0.96 0.639,1.54v12c-0.001,0.58 -0.231,1.13 -0.639,1.54c-0.409,0.41 -0.963,0.64 -1.541,0.64z" fill="#3F3D56"/>
<path id="Vector_73" d="M110.8285,106.0001c-0.578,0 -1.132,-0.23 -1.541,-0.64c-0.409,-0.41 -0.638,-0.96 -0.639,-1.54v-12c0,-0.58 0.23,-1.13 0.638,-1.54c0.409,-0.41 0.964,-0.64 1.542,-0.64c0.578,0 1.133,0.23 1.541,0.64c0.409,0.41 0.639,0.96 0.639,1.54v12c-0.001,0.58 -0.231,1.13 -0.639,1.54c-0.409,0.41 -0.963,0.64 -1.541,0.64z" fill="#3F3D56"/>
<path id="Vector_74" d="M289.5855,96.1901c-0.57,0 -1.13,-0.23 -1.54,-0.64c-0.41,-0.41 -0.64,-0.96 -0.64,-1.54v-29.28c0,-0.58 0.23,-1.13 0.64,-1.54c0.41,-0.41 0.97,-0.64 1.54,-0.64c0.58,0 1.14,0.23 1.55,0.64c0.4,0.41 0.63,0.96 0.63,1.54v29.28c0,0.58 -0.23,1.13 -0.64,1.54c-0.4,0.41 -0.96,0.64 -1.54,0.64z" fill="#3F3D56"/>
<path id="Vector_75" d="M205.1655,10.0001h-16.9c-0.36,0 -0.7,-0.15 -0.96,-0.4c-0.26,-0.26 -0.4,-0.6 -0.4,-0.96c0,-0.37 0.14,-0.71 0.4,-0.97c0.26,-0.25 0.6,-0.4 0.96,-0.4h16.9c0.36,0 0.71,0.15 0.96,0.4c0.26,0.26 0.4,0.6 0.4,0.97c0,0.36 -0.14,0.7 -0.4,0.96c-0.25,0.25 -0.6,0.4 -0.96,0.4z" fill="white"/>
<path id="Vector_76" d="M213.8855,9.7301c0.6,0 1.09,-0.49 1.09,-1.09c0,-0.61 -0.49,-1.09 -1.09,-1.09c-0.6,0 -1.09,0.48 -1.09,1.09c0,0.6 0.49,1.09 1.09,1.09z" fill="white"/>
<path id="Vector_77" d="M344.8555,310.1101c0.39,0.02 0.79,-0.09 1.12,-0.31c0.33,-0.21 0.59,-0.53 0.74,-0.89c0.16,-0.37 0.19,-0.78 0.1,-1.17c-0.09,-0.39 -0.29,-0.74 -0.59,-1c-0.05,-0.2 -0.09,-0.34 -0.14,-0.53c0.37,-0.97 1.03,-1.81 1.88,-2.41c0.85,-0.6 1.86,-0.93 2.9,-0.94c1.04,-0.02 2.06,0.27 2.93,0.83c0.87,0.57 1.56,1.38 1.97,2.33c2.35,5.37 5.38,10.92 3.96,16.87c9.58,-20.84 6.01,-46.6 -8.62,-64.2c-4.02,-2.17 -7.3,-6.05 -8.18,-10.58c1.98,0.65 4.43,-0.99 2.93,-3.06c-0.66,-0.79 -1.32,-1.57 -1.97,-2.36c7.44,-8.08 16.52,4.42 8.35,15.3c2.73,3.37 5.11,7.01 7.09,10.87c-0.48,-4.11 0.01,-8.29 1.45,-12.17c1.46,-3.63 4.24,-6.69 6.68,-9.84c2.97,-3.83 9.16,-2.13 9.61,2.69c-2.76,0.94 -3.08,4.94 0.09,5.46c-0.74,8.98 -6.53,17.29 -14.57,21.3c3.07,8.34 4.32,17.24 3.67,26.1c1.33,-10.36 12.41,-12.98 20.13,-17.17c0.49,-0.32 1.07,-0.49 1.66,-0.49c0.58,0 1.16,0.17 1.65,0.49c0.49,0.32 0.88,0.78 1.12,1.31c0.23,0.54 0.31,1.13 0.21,1.71c-1.06,0.45 -2.08,1 -3.04,1.65c-0.45,0.31 -0.79,0.75 -0.98,1.26c-0.19,0.51 -0.22,1.06 -0.08,1.59c0.14,0.53 0.44,1 0.86,1.35c0.41,0.35 0.93,0.56 1.47,0.61c-3.82,9.72 -13.88,16.32 -24.27,16.38c-0.95,4.35 -2.36,8.59 -4.19,12.64l-15.43,0.15c-0.05,-0.17 -0.11,-0.35 -0.16,-0.52c1.43,0.08 2.86,-0.02 4.27,-0.29c-3.82,-4.44 -6.76,-6.69 -4.62,-12.96z" fill="#8495FD"/>
<path id="Vector_78" d="M46.3225,310.1101c-0.398,0.02 -0.79,-0.09 -1.125,-0.31c-0.334,-0.21 -0.594,-0.53 -0.744,-0.89c-0.15,-0.37 -0.184,-0.78 -0.095,-1.17c0.088,-0.39 0.294,-0.74 0.589,-1c0.051,-0.2 0.087,-0.34 0.138,-0.53c-0.372,-0.97 -1.025,-1.81 -1.875,-2.41c-0.851,-0.6 -1.861,-0.93 -2.9,-0.94c-1.039,-0.02 -2.06,0.27 -2.933,0.83c-0.873,0.57 -1.557,1.38 -1.965,2.33c-2.353,5.37 -5.385,10.92 -3.96,16.87c-9.589,-20.84 -6.015,-46.6 8.616,-64.2c4.019,-2.17 7.296,-6.05 8.183,-10.58c-1.985,0.65 -4.436,-0.99 -2.929,-3.06c0.653,-0.79 1.311,-1.57 1.964,-2.36c-7.44,-8.08 -16.514,4.42 -8.345,15.3c-2.738,3.37 -5.117,7.01 -7.098,10.87c0.488,-4.11 -0.008,-8.29 -1.447,-12.17c-1.462,-3.63 -4.237,-6.69 -6.677,-9.84c-2.967,-3.83 -9.163,-2.13 -9.613,2.69c2.762,0.94 3.084,4.94 -0.091,5.46c0.745,8.98 6.53,17.29 14.569,21.3c-3.062,8.34 -4.312,17.24 -3.665,26.1c-1.327,-10.36 -12.411,-12.98 -20.135,-17.17c-0.491,-0.32 -1.065,-0.49 -1.652,-0.49c-0.587,0 -1.162,0.17 -1.654,0.49c-0.492,0.32 -0.88,0.78 -1.117,1.31c-0.237,0.54 -0.313,1.13 -0.218,1.71c1.067,0.45 2.088,1 3.046,1.65c0.449,0.31 0.792,0.75 0.981,1.26c0.19,0.51 0.217,1.06 0.077,1.59c-0.139,0.53 -0.438,1 -0.855,1.35c-0.417,0.35 -0.933,0.56 -1.475,0.61c3.821,9.72 13.876,16.32 24.268,16.38c0.957,4.35 2.364,8.59 4.197,12.64l15.423,0.15c0.057,-0.17 0.108,-0.35 0.16,-0.52c-1.429,0.08 -2.861,-0.02 -4.266,-0.29c3.82,-4.44 6.763,-6.69 4.624,-12.95z" fill="#8495FD"/>
<path id="Vector_79" d="M152.0255,15.8401h-14.717c-0.723,0 -1.416,-0.28 -1.927,-0.79c-0.511,-0.51 -0.798,-1.21 -0.798,-1.93c0,-0.72 0.287,-1.42 0.798,-1.93c0.511,-0.51 1.204,-0.8 1.927,-0.8h14.717c0.72,0 1.41,0.29 1.92,0.8c0.52,0.51 0.8,1.21 0.8,1.93c0,0.72 -0.28,1.42 -0.8,1.93c-0.51,0.51 -1.2,0.79 -1.92,0.79z" fill="#592929"/>
<path id="Vector_80" d="M248.4855,15.5701c1.36,0 2.45,-1.1 2.45,-2.45c0,-1.35 -1.09,-2.45 -2.45,-2.45c-1.35,0 -2.45,1.1 -2.45,2.45c0,1.35 1.1,2.45 2.45,2.45z" fill="#592929"/>
<path id="Vector_81" d="M256.1155,15.5701c1.36,0 2.46,-1.1 2.46,-2.45c0,-1.35 -1.1,-2.45 -2.46,-2.45c-1.35,0 -2.45,1.1 -2.45,2.45c0,1.35 1.1,2.45 2.45,2.45z" fill="#592929"/>
<path id="Vector_82" d="M263.7455,15.5701c1.36,0 2.46,-1.1 2.46,-2.45c0,-1.35 -1.1,-2.45 -2.46,-2.45c-1.35,0 -2.45,1.1 -2.45,2.45c0,1.35 1.1,2.45 2.45,2.45z" fill="#592929"/>
<path id="Vector_83" d="M246.7755,53.9301h-92.49c-1.79,0 -3.51,0.72 -4.78,1.98c-1.26,1.27 -1.97,2.99 -1.98,4.78v60.12c0.01,1.79 0.72,3.51 1.98,4.77c1.27,1.27 2.99,1.98 4.78,1.99h92.49c1.79,0 3.51,-0.72 4.77,-1.98c1.27,-1.27 1.98,-2.99 1.99,-4.78v-60.12c-0.01,-1.79 -0.72,-3.51 -1.99,-4.78c-1.26,-1.26 -2.98,-1.98 -4.77,-1.98z" fill="#8495FD"/>
<path id="Vector_84" d="M217.8155,79.6001c-8.35,14.77 -17.58,29.05 -27.62,42.74h-14.5c9.5,-11.58 19,-23.15 28.52,-34.72c2.73,-3.34 5.69,-6.83 9.78,-8.18z" fill="#3F3D56"/>
<path id="Vector_85" d="M198.5455,77.2301c-1.51,1.57 -2.96,3.21 -4.33,4.92c-3,3.61 -5.96,7.26 -8.94,10.9c-1.85,2.27 -3.7,4.53 -5.53,6.79c-0.58,-0.37 -1.13,-0.79 -1.65,-1.24c-2.92,-2.54 -4.74,-6.12 -5.05,-9.98c-0.32,-3.86 0.89,-7.69 3.37,-10.66c2.47,-2.98 6.01,-4.87 9.86,-5.27c3.85,-0.39 7.7,0.73 10.73,3.14c0.55,0.43 1.06,0.89 1.54,1.4z" fill="#F472B6"/>
<path id="Vector_86" d="M253.5355,75.5101v2.19l-0.98,-0.36l-13.81,-5.04c-4.5,-1.64 -8.98,-3.52 -13.62,-4.7c-4.04,-1.16 -8.33,-1.1 -12.34,0.16c-3.58,1.32 -6.85,3.35 -9.62,5.97c-1.22,1.13 -2.41,2.29 -3.56,3.49c-0.38,0.4 -0.75,0.8 -1.12,1.2c-1.12,1.21 -2.19,2.45 -3.21,3.73c-3,3.62 -5.97,7.27 -8.94,10.9c-1.85,2.27 -3.7,4.53 -5.53,6.79c-6.12,7.49 -12.2,14.98 -18.24,22.49c-0.81,0 -1.62,-0.11 -2.41,-0.3c6.16,-7.66 12.35,-15.3 18.57,-22.91c0.15,-0.18 0.29,-0.35 0.43,-0.53c0.73,-0.91 1.48,-1.82 2.22,-2.73c3.1,-3.8 6.2,-7.6 9.31,-11.39c2.25,-2.75 4.49,-5.52 6.92,-8.14c0.15,-0.17 0.3,-0.33 0.46,-0.5c0.24,-0.25 0.47,-0.5 0.71,-0.75c5.28,-5.46 11.87,-10.28 19.76,-10.41c4.65,-0.07 9.13,1.4 13.45,2.95c4.65,1.69 9.28,3.4 13.92,5.1z" fill="#3F3D56"/>
<path id="Vector_87" d="M255.7055,260.3001h-110.45c-1.79,0 -3.51,-0.71 -4.77,-1.98c-1.272,-1.27 -1.984,-2.98 -1.986,-4.78v-14.88c0.002,-1.79 0.714,-3.51 1.986,-4.78c1.26,-1.26 2.98,-1.98 4.77,-1.98h110.45c1.79,0 3.51,0.72 4.78,1.98c1.26,1.27 1.98,2.99 1.98,4.78v14.88c0,1.8 -0.72,3.51 -1.98,4.78c-1.27,1.27 -2.99,1.98 -4.78,1.98z" fill="#8495FD"/>
<path id="Vector_88" d="M255.7055,184.0001h-110.45c-1.79,0 -3.51,-0.71 -4.77,-1.98c-1.272,-1.27 -1.984,-2.98 -1.986,-4.78v-14.88c0.002,-1.79 0.714,-3.51 1.986,-4.78c1.26,-1.26 2.98,-1.98 4.77,-1.98h110.45c1.79,0 3.51,0.72 4.78,1.98c1.26,1.27 1.98,2.99 1.98,4.78v14.88c0,1.8 -0.72,3.51 -1.98,4.78c-1.27,1.27 -2.99,1.98 -4.78,1.98z" fill="#8495FD"/>
<path id="Vector_89" d="M255.7055,222.1501h-110.45c-1.79,0 -3.51,-0.71 -4.77,-1.98c-1.272,-1.27 -1.984,-2.98 -1.986,-4.78v-14.88c0.002,-1.79 0.714,-3.51 1.986,-4.78c1.26,-1.26 2.98,-1.98 4.77,-1.98h110.45c1.79,0 3.51,0.72 4.78,1.98c1.26,1.27 1.98,2.99 1.98,4.78v14.88c0,1.8 -0.72,3.51 -1.98,4.78c-1.27,1.27 -2.99,1.98 -4.78,1.98z" fill="#8495FD"/>
<path id="Vector_90" d="M213.8955,243.5501h-32.54c-0.38,0 -0.75,-0.15 -1.03,-0.42c-0.27,-0.28 -0.42,-0.65 -0.42,-1.03c0,-0.39 0.15,-0.76 0.42,-1.03c0.28,-0.27 0.65,-0.43 1.03,-0.43h32.54c0.39,0 0.76,0.16 1.03,0.43c0.28,0.27 0.43,0.64 0.43,1.03c0,0.38 -0.15,0.75 -0.43,1.03c-0.27,0.27 -0.64,0.42 -1.03,0.42z" fill="white"/>
<path id="Vector_91" d="M245.1955,251.5601h-64.2c-0.39,0 -0.76,-0.15 -1.03,-0.43c-0.28,-0.27 -0.43,-0.64 -0.43,-1.02c0,-0.39 0.15,-0.76 0.43,-1.03c0.27,-0.28 0.64,-0.43 1.03,-0.43h64.2c0.39,0 0.76,0.15 1.03,0.43c0.28,0.27 0.43,0.64 0.43,1.03c0,0.38 -0.15,0.75 -0.43,1.02c-0.27,0.28 -0.64,0.43 -1.03,0.43z" fill="white"/>
<path id="Vector_92" d="M164.0655,255.8601c5.39,0 9.76,-4.37 9.76,-9.76c0,-5.39 -4.37,-9.76 -9.76,-9.76c-5.39,0 -9.76,4.37 -9.76,9.76c0,5.39 4.37,9.76 9.76,9.76z" fill="white"/>
<path id="Vector_93" d="M161.8955,259.2901c-1,-0.47 -2.14,-0.53 -3.18,-0.17c-1.03,0.36 -1.89,1.12 -2.38,2.1c-0.1,0.2 -0.18,0.41 -0.24,0.62l-14.7,0.88l-2.179,7.62l20.009,-3.38c0.91,0.19 1.85,0.07 2.69,-0.33c0.84,-0.41 1.52,-1.08 1.93,-1.91c0.23,-0.48 0.37,-0.99 0.4,-1.52c0.03,-0.53 -0.04,-1.06 -0.21,-1.56c-0.17,-0.5 -0.44,-0.96 -0.79,-1.36c-0.35,-0.39 -0.78,-0.71 -1.25,-0.95c-0.04,-0.01 -0.07,-0.03 -0.1,-0.04z" fill="#FFB6B6"/>
<path id="Vector_94" d="M129.4495,221.7201c-0.968,-0.39 -2.011,-0.57 -3.057,-0.53c-1.045,0.04 -2.069,0.31 -3.002,0.78c-0.934,0.48 -1.754,1.14 -2.405,1.96c-0.651,0.82 -1.119,1.77 -1.37,2.79l-4.041,16.32l0.76,28.55c0,0 21.092,4.04 24.631,1.44c3.54,-2.6 3.21,-4.54 3.54,-2.6c0.34,1.94 1.86,2.75 1.88,1.98c0.02,-0.77 0.19,-0.64 1.07,-0.87c0.88,-0.23 4.78,-1.67 4.78,-1.67l0.17,-8.14c0,0 -6.43,-2.44 -8,-1.71c-1.56,0.73 0.34,1.94 -1.56,0.73c-1.89,-1.21 -2.1,-5.03 -2.42,-1.59c-0.33,3.44 -1.277,4.08 -2.697,2.55c-1.42,-1.53 -8.001,-0.55 -8.001,-0.55l4.188,-31.74c0.21,-1.59 -0.114,-3.21 -0.922,-4.61c-0.807,-1.39 -2.054,-2.48 -3.544,-3.09z" fill="#F472B6"/>
<path id="Vector_95" d="M271.4955,306.3901l0.22,-6.01l-23.08,-3.72l-0.33,8.87z" fill="#FFB6B6"/>
<path id="Vector_96" d="M267.3055,308.2001l-0.22,-9.63l4.12,0.15l6.64,-8.89c0.33,-0.44 0.79,-0.77 1.31,-0.93c0.53,-0.16 1.09,-0.14 1.61,0.04c0.51,0.18 0.96,0.52 1.27,0.98c0.31,0.45 0.46,0.99 0.44,1.54l-0.42,11.43l-4.14,1.82l4.04,0.92l-0.16,4.31z" fill="#2F2E41"/>
<path id="Vector_97" d="M141.5855,320.1701l73.11,-8.5c0,0 31.57,1.83 38.98,-2.99l7.81,-0.99l0.42,-11.47c0,0 -4.77,0.03 -7.52,-1.25c-2.74,-1.28 -0.84,-2.84 -3.45,-1.3c-2.62,1.54 -2.35,1.72 -4.37,1.01c-2.02,-0.7 -94.86,-4.5 -94.86,-4.5z" fill="#2F2E41"/>
<path id="Vector_98" d="M237.9255,315.1901l4.25,-4.25l-14.39,-18.42l-6.27,6.28z" fill="#FFB6B6"/>
<path id="Vector_99" d="M233.6255,313.6701l6.39,-7.2l2.91,2.91l10.92,-2.01c0.54,-0.1 1.1,-0.02 1.59,0.22c0.49,0.24 0.9,0.63 1.15,1.11c0.26,0.49 0.35,1.04 0.27,1.59c-0.08,0.54 -0.34,1.04 -0.73,1.43l-8.08,8.09l-4.28,-1.48l2.34,3.42l-3.05,3.06z" fill="#2F2E41"/>
<path id="Vector_100" d="M112.7475,280.1301l0.726,16.9c0.856,19.89 22.759,31.93 39.742,21.54c0.31,-0.19 0.63,-0.39 0.94,-0.59c0,0 6.44,-1.73 6.25,-4.47c-0.2,-2.74 1.37,-4.07 2.77,-3.33c1.39,0.75 19.61,-25.11 19.61,-25.11c0,0 37.87,18.88 46.23,23.33l8.81,-2.4c0,0 3.32,1.57 2.12,-0.7c-1.19,-2.27 -1.41,-1.18 -1.77,-3.65c-0.37,-2.47 -1.31,-5.53 -1.88,-5.4c-0.57,0.13 -46.85,-32.26 -46.85,-32.26c0,0 -7.53,-7.63 -16.89,-2.59c-0.19,0.74 -0.03,0.76 -0.03,0.76l-30.89,25.17l-4.363,-8.29z" fill="#2F2E41"/>
<path id="Vector_101" d="M133.5105,218.0601l-13.246,-6.21l-3.965,6.9c0,0 -10.651,15.2 -10.805,26.16c-0.155,10.97 1.735,14.23 1.735,14.23c0,0 -4.592,3.43 -2.296,5.53c2.296,2.1 7.379,3 3.475,3.91c-3.904,0.91 -2.914,10.12 1.446,11.76c4.36,1.63 27.775,1.62 27.775,1.62c-0.21,-0.72 -0.226,-1.47 -0.045,-2.2c0.182,-0.72 0.553,-1.38 1.075,-1.91c1.816,-1.82 3.446,-0.51 1.816,-3.35c-1.636,-2.83 -4.361,-1.19 -2.181,-5.01c2.181,-3.81 2.181,-4.95 2.181,-4.95c0,0 4.44,-8.46 -2.251,-17.64c-0.408,-0.56 -0.065,-0.58 -0.065,-0.58l-5.405,-18.11z" fill="#F472B6"/>
<path id="Vector_102" d="M112.1645,191.9601c0.112,2.79 -1.651,6.76 -2.519,9.15c-0.929,2.55 3.095,5.94 5.67,6.69c0.134,-0.89 0.576,-1.7 1.247,-2.29c-0.185,0.84 -0.201,1.72 -0.047,2.57l21.772,4.95c3.918,-4.53 7.858,-11.05 6.998,-18.92c0.2,-1.49 -0.04,-3.01 -0.69,-4.37c-0.66,-1.36 -1.7,-2.49 -3,-3.26l-11.004,-6.5c-4.682,-1.07 -10.577,-1.71 -13.959,1.19c-1.511,1.34 -2.697,3.01 -3.471,4.88c-0.774,1.87 -1.115,3.89 -0.997,5.91z" fill="#2F2E41"/>
<path id="Vector_103" d="M131.6245,210.6401c6.923,0 12.531,-5.62 12.531,-12.54c0,-6.92 -5.608,-12.53 -12.531,-12.53c-6.923,0 -12.535,5.61 -12.535,12.53c0,6.92 5.612,12.54 12.535,12.54z" fill="#FFB6B6"/>
<path id="Vector_104" d="M116.9405,191.4001l-0.605,2.66l10.575,2.41c0.01,-0.54 0.13,-1.07 0.354,-1.56c0.224,-0.49 0.546,-0.92 0.947,-1.28c-0.228,1.04 -0.202,2.12 0.076,3.15c5.703,3.2 10.843,4.34 15.448,3.52c0.63,0.14 1.28,0.03 1.83,-0.31c0.54,-0.34 0.92,-0.88 1.07,-1.51c1.85,-8.14 -3.01,-16.47 -11.115,-18.49c-1.971,-0.5 -4.02,-0.59 -6.027,-0.28c-2.008,0.31 -3.933,1.02 -5.663,2.08c-1.731,1.06 -3.232,2.46 -4.415,4.11c-1.183,1.65 -2.024,3.52 -2.475,5.5z" fill="#2F2E41"/>
<path id="Vector_105" d="M123.1225,173.8701c1.395,-0.3 2.87,-0.22 4.131,-1.17l-0.827,1.9c2.293,-0.63 4.737,-0.39 6.859,0.68c0.632,0.29 1.17,0.74 1.553,1.32c0.206,0.35 0.331,0.74 0.367,1.14c0.035,0.4 -0.02,0.81 -0.163,1.18c-0.135,0.33 -0.337,0.62 -0.592,0.86c-0.255,0.25 -0.558,0.43 -0.889,0.55c-0.587,0.18 -1.202,0.24 -1.812,0.19c-2.574,-0.06 -5.148,-0.12 -7.721,-0.18c-0.981,0.06 -1.961,-0.13 -2.847,-0.55c-0.472,-0.29 -0.848,-0.72 -1.083,-1.22c-0.234,-0.5 -0.317,-1.06 -0.239,-1.61c0.246,-1.72 1.869,-2.78 3.263,-3.09z" fill="#2F2E41"/>
<path id="Vector_106" d="M191.1155,272.1201c-0.03,-0.04 -0.06,-0.07 -0.1,-0.1c-0.09,-0.11 -0.21,-0.2 -0.33,-0.26l-0.92,-0.49l-6.09,-6.76c-0.35,-0.19 -0.76,-0.23 -1.14,-0.11h-0.02l-2.61,0.81l-2.24,0.7l-3.14,0.97l-21.34,6.61l-14.032,4.34c-0.379,0.12 -0.696,0.39 -0.883,0.74c-0.186,0.35 -0.227,0.76 -0.114,1.14c0.066,0.21 0.175,0.4 0.32,0.57l0.447,0.5l0.932,1.04l2.17,4.5l0.61,0.67c0.19,0.21 0.44,0.37 0.71,0.44c0.28,0.08 0.57,0.08 0.85,0l46.22,-12.86c0.24,-0.08 0.46,-0.21 0.63,-0.39c0.18,-0.18 0.31,-0.41 0.38,-0.65c0.07,-0.24 0.08,-0.5 0.02,-0.74c-0.05,-0.25 -0.16,-0.48 -0.33,-0.67z" fill="#CCCCCC"/>
<path id="Vector_107" d="M188.3755,205.2401l-0.89,0.15c-0.25,0.04 -0.47,0.17 -0.61,0.38l-0.4,0.55l-3.56,8.89c-0.14,0.21 -0.2,0.46 -0.16,0.7l0.42,2.54l-1.58,45.24c0.04,0.23 0.17,0.44 0.36,0.59l6.9,9.24l0.16,0.13l0.35,0.27c0.18,0.14 0.4,0.21 0.63,0.2l0.58,-0.03c0.14,-0.01 0.27,-0.04 0.39,-0.1c0.11,-0.06 0.22,-0.15 0.3,-0.25c0.09,-0.11 0.15,-0.23 0.18,-0.36c0.04,-0.12 0.04,-0.26 0.02,-0.39l-2,-66.97c-0.05,-0.25 -0.18,-0.47 -0.38,-0.62c-0.21,-0.14 -0.46,-0.2 -0.71,-0.16z" fill="#CCCCCC"/>
<path id="Vector_108" d="M186.8755,208.7601l-3.15,9.6l-1.22,38.34l4.91,4.36z" fill="#F472B6"/>
<path id="Vector_109" d="M162.5055,267.2401c-0.99,-0.46 -2.13,-0.52 -3.17,-0.16c-1.04,0.36 -1.89,1.11 -2.39,2.1c-0.09,0.2 -0.17,0.41 -0.24,0.62l-14.7,0.88l-2.17,7.62l20,-3.38c0.91,0.19 1.86,0.07 2.7,-0.34c0.83,-0.4 1.51,-1.07 1.93,-1.9c0.47,-0.96 0.53,-2.07 0.19,-3.08c-0.35,-1.01 -1.09,-1.84 -2.05,-2.31c-0.03,-0.01 -0.06,-0.03 -0.1,-0.05z" fill="#FFB6B6"/>
<path id="Vector_110" d="M130.0645,229.6801c-0.968,-0.39 -2.011,-0.58 -3.056,-0.53c-1.046,0.04 -2.07,0.31 -3.003,0.78c-0.933,0.47 -1.753,1.14 -2.405,1.96c-0.651,0.82 -1.119,1.77 -1.37,2.79l-4.041,16.32l0.76,28.55c0,0 21.093,4.04 24.636,1.44c3.54,-2.6 3.21,-4.54 3.54,-2.6c0.33,1.94 1.85,2.75 1.87,1.98c0.02,-0.77 0.19,-0.64 1.08,-0.87c0.88,-0.23 4.77,-1.67 4.77,-1.67l0.18,-8.14c0,0 -6.44,-2.44 -8,-1.71c-1.56,0.73 0.33,1.93 -1.56,0.73c-1.9,-1.21 -2.11,-5.03 -2.43,-1.59c-0.32,3.44 -1.27,4.08 -2.692,2.55c-1.42,-1.53 -8.001,-0.55 -8.001,-0.55l4.188,-31.74c0.21,-1.59 -0.113,-3.22 -0.921,-4.61c-0.808,-1.39 -2.054,-2.48 -3.545,-3.09z" fill="#F472B6"/>
<path id="Vector_111" d="M-0.0005,324.3501c0,0.09 0.017,0.17 0.049,0.25c0.033,0.08 0.081,0.15 0.141,0.21c0.06,0.06 0.132,0.11 0.211,0.14c0.078,0.03 0.163,0.05 0.248,0.05h389.837c0.17,0 0.33,-0.07 0.46,-0.19c0.12,-0.12 0.19,-0.29 0.19,-0.46c0,-0.17 -0.07,-0.34 -0.19,-0.46c-0.13,-0.12 -0.29,-0.19 -0.46,-0.19h-389.837c-0.085,0 -0.17,0.02 -0.248,0.05c-0.079,0.03 -0.151,0.08 -0.211,0.14c-0.06,0.06 -0.108,0.13 -0.141,0.21c-0.032,0.08 -0.049,0.17 -0.049,0.25z" fill="#CCCCCC"/>
<path id="Vector_112" d="M343.9955,184.0001h-110.45c-1.79,0 -3.51,-0.71 -4.77,-1.98c-1.27,-1.27 -1.98,-2.98 -1.99,-4.78v-14.88c0.01,-1.79 0.72,-3.51 1.99,-4.78c1.26,-1.26 2.98,-1.98 4.77,-1.98h110.45c1.79,0 3.51,0.72 4.78,1.98c1.26,1.27 1.98,2.99 1.98,4.78v14.88c0,1.8 -0.72,3.51 -1.98,4.78c-1.27,1.27 -2.99,1.98 -4.78,1.98z" fill="#592929"/>
<path id="Vector_113" d="M302.1855,167.2501h-32.54c-0.38,0 -0.75,-0.15 -1.03,-0.42c-0.27,-0.28 -0.42,-0.65 -0.42,-1.03c0,-0.39 0.15,-0.76 0.42,-1.03c0.28,-0.27 0.65,-0.43 1.03,-0.43h32.54c0.39,0 0.76,0.16 1.03,0.43c0.28,0.27 0.43,0.64 0.43,1.03c0,0.38 -0.15,0.75 -0.43,1.03c-0.27,0.27 -0.64,0.42 -1.03,0.42z" fill="white"/>
<path id="Vector_114" d="M333.4855,175.2601h-64.2c-0.39,0 -0.76,-0.15 -1.03,-0.43c-0.27,-0.27 -0.43,-0.64 -0.43,-1.02c0,-0.39 0.16,-0.76 0.43,-1.03c0.27,-0.28 0.64,-0.43 1.03,-0.43h64.2c0.39,0 0.76,0.15 1.03,0.43c0.28,0.27 0.43,0.64 0.43,1.03c0,0.38 -0.15,0.75 -0.43,1.02c-0.27,0.28 -0.64,0.43 -1.03,0.43z" fill="white"/>
<path id="Vector_115" d="M252.3555,179.5601c5.39,0 9.76,-4.37 9.76,-9.76c0,-5.39 -4.37,-9.76 -9.76,-9.76c-5.39,0 -9.76,4.37 -9.76,9.76c0,5.39 4.37,9.76 9.76,9.76z" fill="white"/>
<path id="Vector_116" d="M308.5755,222.1501h-110.45c-1.8,0 -3.51,-0.71 -4.78,-1.98c-1.27,-1.27 -1.98,-2.98 -1.98,-4.78v-14.88c0,-1.79 0.71,-3.51 1.98,-4.78c1.27,-1.26 2.98,-1.98 4.78,-1.98h110.45c1.79,0 3.5,0.72 4.77,1.98c1.27,1.27 1.98,2.99 1.98,4.78v14.88c0,1.8 -0.71,3.51 -1.98,4.78c-1.27,1.27 -2.98,1.98 -4.77,1.98z" fill="#592929"/>
<path id="Vector_117" d="M266.7655,205.4001h-32.54c-0.39,0 -0.76,-0.15 -1.03,-0.42c-0.28,-0.27 -0.43,-0.65 -0.43,-1.03c0,-0.39 0.15,-0.76 0.43,-1.03c0.27,-0.27 0.64,-0.43 1.03,-0.43h32.54c0.39,0 0.76,0.16 1.03,0.43c0.27,0.27 0.43,0.64 0.43,1.03c0,0.38 -0.16,0.76 -0.43,1.03c-0.27,0.27 -0.64,0.42 -1.03,0.42z" fill="white"/>
<path id="Vector_118" d="M298.0655,213.4101h-64.21c-0.38,0 -0.75,-0.15 -1.03,-0.43c-0.27,-0.27 -0.42,-0.64 -0.42,-1.02c0,-0.39 0.15,-0.76 0.42,-1.03c0.28,-0.28 0.65,-0.43 1.03,-0.43h64.21c0.39,0 0.76,0.15 1.03,0.43c0.27,0.27 0.42,0.64 0.42,1.03c0,0.38 -0.15,0.75 -0.42,1.02c-0.27,0.28 -0.64,0.43 -1.03,0.43z" fill="white"/>
<path id="Vector_119" d="M216.9355,217.7101c5.39,0 9.76,-4.37 9.76,-9.76c0,-5.39 -4.37,-9.76 -9.76,-9.76c-5.39,0 -9.76,4.37 -9.76,9.76c0,5.39 4.37,9.76 9.76,9.76z" fill="white"/>
</g></svg>