<svg viewBox="0 0 458.0605 325" fill="none" xmlns="http://www.w3.org/2000/svg" xmlns:xlink="http://www.w3.org/1999/xlink" id="e4078df9" x="0" y="0"><g id="Services" data-node-id="123:13" clip-path="url(#clip0_123_13)"><g id="root" data-node-id="123:14" clip-path="url(#clip1_123_13)"><g id="Section" data-node-id="123:79"><g id="frame_19" data-node-id="123:80"><g id="detail-section_4" data-node-id="123:284"><g id="frame -> frame_9" data-node-id="123:307"><g id="image_11" data-node-id="123:308" clip-path="url(#clip21_123_13)"><g id="Frame_5" data-node-id="123:309" clip-path="url(#clip22_123_13)"><g id="Group_14" data-node-id="123:310"><path id="Vector_120" data-node-id="123:311" d="M424.9694,0.0001h-417.606c-1.968,0.02 -3.849,0.82 -5.229,2.22c-1.38,1.41 -2.147,3.3 -2.132,5.27v283.72c-0.011,1.97 0.757,3.86 2.137,5.26c1.38,1.4 3.258,2.19 5.224,2.21h417.607c1.966,-0.02 3.844,-0.81 5.224,-2.21c1.38,-1.4 2.148,-3.29 2.138,-5.26v-283.72c0.014,-1.97 -0.753,-3.86 -2.132,-5.27c-1.38,-1.4 -3.261,-2.2 -5.229,-2.22z" fill="#090814"/><path id="Vector_121" data-node-id="123:312" d="M412.6274,1.4801h-404.827c-1.895,0.01 -3.71,0.76 -5.049,2.1c-1.338,1.34 -2.09,3.16 -2.09,5.05v270.94c0.002,1.89 0.755,3.7 2.094,5.04c1.338,1.34 3.152,2.09 5.045,2.09h404.824c1.893,0 3.708,-0.75 5.046,-2.09c1.338,-1.34 2.091,-3.15 2.094,-5.04v-270.94c0,-1.89 -0.752,-3.71 -2.089,-5.05c-1.338,-1.34 -3.153,-2.09 -5.047,-2.1z" fill="white"/><g id="Group_18" data-node-id="123:352">
<path id="Vector_158" data-node-id="123:353" d="M419.7654,325.0001c21.15,0 38.295,-17.15 38.295,-38.29c0,-21.15 -17.145,-38.3 -38.295,-38.3c-21.149,0 -38.295,17.15 -38.295,38.3c0,21.14 17.146,38.29 38.295,38.29z" fill="#34D399"/>
<path id="Vector_159" data-node-id="123:354" d="M415.6644,302.9101c-0.466,0 -0.927,-0.09 -1.357,-0.26c-0.43,-0.18 -0.82,-0.44 -1.149,-0.77l-12.14,-12.81c-0.655,-0.66 -1.02,-1.56 -1.016,-2.49c0.004,-0.94 0.377,-1.83 1.037,-2.49c0.661,-0.67 1.556,-1.04 2.491,-1.04c0.934,-0.01 1.833,0.36 2.499,1.01l9.635,10.3l17.808,-23.76c0.328,-0.33 0.719,-0.6 1.15,-0.78c0.431,-0.18 0.894,-0.28 1.362,-0.28c0.468,0 0.932,0.09 1.364,0.27c0.433,0.18 0.826,0.44 1.157,0.77c0.331,0.33 0.593,0.72 0.771,1.16c0.178,0.43 0.269,0.89 0.267,1.36c-0.002,0.47 -0.097,0.93 -0.279,1.36c-0.181,0.43 -0.447,0.82 -0.781,1.15l-20.314,26.27c-0.329,0.33 -0.719,0.59 -1.149,0.77c-0.43,0.17 -0.891,0.26 -1.356,0.26z" fill="white"/>
</g><path id="Vector_160" data-node-id="123:355" d="M375.0704,47.4901h-337.401c-0.364,-0.05 -0.697,-0.23 -0.937,-0.51c-0.241,-0.28 -0.374,-0.63 -0.374,-1c0,-0.36 0.133,-0.72 0.374,-1c0.24,-0.27 0.573,-0.45 0.937,-0.5h337.401c0.364,0.05 0.697,0.23 0.937,0.5c0.241,0.28 0.374,0.64 0.374,1c0,0.37 -0.133,0.72 -0.374,1c-0.24,0.28 -0.573,0.46 -0.937,0.51z" fill="#CACACA"/><path id="Vector_161" data-node-id="123:356" d="M45.1844,36.7901c4.875,0 8.828,-4.05 8.828,-9.03c0,-4.98 -3.953,-9.02 -8.828,-9.02c-4.876,0 -8.828,4.04 -8.828,9.02c0,4.98 3.952,9.03 8.828,9.03z" fill="#34D399"/><path id="Vector_162" data-node-id="123:357" d="M75.6814,36.7901c4.876,0 8.828,-4.05 8.828,-9.03c0,-4.98 -3.952,-9.02 -8.828,-9.02c-4.875,0 -8.828,4.04 -8.828,9.02c0,4.98 3.953,9.03 8.828,9.03z" fill="#34D399"/><path id="Vector_163" data-node-id="123:358" d="M106.1774,36.7901c4.876,0 8.828,-4.05 8.828,-9.03c0,-4.98 -3.952,-9.02 -8.828,-9.02c-4.875,0 -8.828,4.04 -8.828,9.02c0,4.98 3.953,9.03 8.828,9.03z" fill="#34D399"/><path id="Vector_164" data-node-id="123:359" d="M367.5544,36.7901c4.876,0 8.828,-4.05 8.828,-9.03c0,-4.98 -3.952,-9.02 -8.828,-9.02c-4.875,0 -8.828,4.04 -8.828,9.02c0,4.98 3.953,9.03 8.828,9.03z" fill="#592929"/></g></g></g></g></g></g></g></g></g><defs><clipPath id="clip0_123_13">
<rect width="1440" height="3494" fill="white" x="-155.1396" y="-3066.1599"/>
</clipPath><clipPath id="clip1_123_13">
<rect width="1440" height="3494" fill="white" x="-155.1396" y="-3066.1599"/>
</clipPath><clipPath id="clip21_123_13">
<rect width="591" height="325" fill="white" transform="translate(-66.4697, 0.00009999999974752427)"/>
</clipPath><clipPath id="clip22_123_13">
<rect width="458.061" height="325" fill="white" transform="translate(0.0003999999999848569, 0.00009999999974752427)"/>
</clipPath></defs></svg>