<svg viewBox="0 0 326.44 325" fill="none" xmlns="http://www.w3.org/2000/svg" xmlns:xlink="http://www.w3.org/1999/xlink" x="0" y="0"><defs><linearGradient id="paint8_linear_123_13" x1="111.67680000000001" y1="247.00009999999975" x2="96.12380000000002" y2="292.9501" gradientUnits="userSpaceOnUse">
<stop stop-color="#114A8B"/>
<stop offset="1" stop-color="#0669BC"/>
</linearGradient><linearGradient id="paint9_linear_123_13" x1="116.53480000000002" y1="268.4200999999998" x2="112.93779999999998" y2="269.63009999999986" gradientUnits="userSpaceOnUse">
<stop stop-opacity="0.3"/>
<stop offset="0.071" stop-opacity="0.2"/>
<stop offset="0.321" stop-opacity="0.1"/>
<stop offset="0.623" stop-opacity="0.05"/>
<stop offset="1" stop-opacity="0"/>
</linearGradient><linearGradient id="paint10_linear_123_13" x1="114.66880000000003" y1="245.6201000000001" x2="131.7418" y2="291.1100999999999" gradientUnits="userSpaceOnUse">
<stop stop-color="#3CCBF4"/>
<stop offset="1" stop-color="#2892DF"/>
</linearGradient><clipPath id="clip18_123_13">
<rect width="326.44" height="325" fill="white" transform="translate(-0.0002000000000066393, 0.00009999999974752427)"/>
</clipPath></defs><g id="uuid-74ef91f4-8211-4e4b-9731-49f2a1640b89" clip-path="url(#clip18_123_13)">
<g id="Group_2">
<path id="Vector_33" d="M118.6518,43.1901c-0.808,-1.36 -4.303,0.1 -4.945,-1.14c-0.64,-1.23 2.607,-3.1 4.462,-7.39c0.334,-0.77 2.442,-5.65 0.882,-7.15c-2.958,-2.85 -16.494,8.91 -21.231,5.06c-1.04,-0.84 -1.766,-2.53 -4.912,-5.27c-1.252,-1.08 -2.009,-1.58 -2.741,-1.39c-1.039,0.26 -1.122,1.65 -2.236,4.38c-1.672,4.1 -2.66,3.86 -3.634,7.13c-0.723,2.43 -0.558,3.84 -1.409,4.12c-1.203,0.39 -2.311,-2.19 -3.837,-1.96c-1.557,0.23 -2.498,3.23 -2.795,5.48c-0.558,4.22 0.99,7 1.848,9.92c0.932,3.18 1.486,8.02 -0.668,14.86l-21.313,60.05c4.706,-12.32 18.33,-46.1 24.054,-58.65c1.653,-3.63 3.478,-7.3 7.225,-8.75c3.607,-1.4 8.561,-0.57 14.877,-2.09c0.738,-0.18 2.785,-0.7 3.042,-1.9c0.213,-1 -0.991,-1.55 -0.806,-2.48c0.248,-1.25 2.616,-1.27 5.526,-2.71c2.051,-1.02 3.33,-2.23 4.429,-3.27c0.331,-0.31 5.257,-5.03 4.182,-6.85z" fill="#8495FD"/>
<path id="Vector_34" d="M34.7988,74.8101c-0.901,0 -1.194,2.14 -1.986,2.09c-0.789,-0.04 -0.773,-2.17 -2.342,-4.32c-0.283,-0.39 -2.066,-2.83 -3.254,-2.49c-2.252,0.63 -0.386,10.66 -3.642,11.88c-0.714,0.26 -1.751,0.13 -4.002,0.89c-0.896,0.3 -1.355,0.53 -1.477,0.94c-0.173,0.58 0.486,1.03 1.507,2.36c1.531,2.01 1.124,2.42 2.45,3.84c0.983,1.06 1.724,1.38 1.614,1.88c-0.156,0.7 -1.741,0.5 -2.068,1.32c-0.333,0.83 0.868,2.16 1.884,2.95c1.908,1.49 3.72,1.54 5.403,1.96c1.829,0.46 4.362,1.58 7.099,4.61l23.323,27.79c-4.69,-5.86 -17.337,-22.3 -21.846,-28.73c-1.302,-1.86 -2.579,-3.81 -2.21,-6.07c0.355,-2.17 2.194,-4.36 3.269,-7.9c0.126,-0.42 0.461,-1.57 -0.055,-2.04c-0.428,-0.4 -1.048,0.03 -1.452,-0.33c-0.542,-0.48 0.134,-1.64 0.265,-3.49c0.093,-1.3 -0.132,-2.28 -0.326,-3.12c-0.058,-0.25 -0.953,-4.03 -2.154,-4.02z" fill="#8495FD"/>
<path id="Vector_35" d="M52.7858,78.8401l-0.544,-4.85l0.249,-0.36c1.148,-1.7 1.733,-3.36 1.74,-4.94c0.001,-0.25 -0.01,-0.5 -0.022,-0.75c-0.047,-1.02 -0.105,-2.27 0.55,-3.74c0.368,-0.82 1.4,-2.71 2.953,-2.47c0.418,0.06 0.734,0.25 0.974,0.47c0.035,-0.05 0.071,-0.11 0.11,-0.17c0.483,-0.74 0.866,-1.06 1.235,-1.36c0.283,-0.23 0.576,-0.47 1.035,-1.05c0.201,-0.25 0.358,-0.47 0.49,-0.65c0.402,-0.56 0.926,-1.23 1.851,-1.22c0.988,0.05 1.505,0.87 1.848,1.41c0.613,0.96 0.89,1.66 1.074,2.12c0.067,0.17 0.143,0.36 0.181,0.42c0.319,0.46 2.907,0.03 3.882,-0.13c2.191,-0.37 4.086,-0.68 4.867,0.7c0.559,0.99 0.144,2.29 -1.273,3.98c-0.441,0.53 -0.911,0.93 -1.327,1.25c0.345,0.2 0.654,0.52 0.779,1.01c0.295,1.18 -0.715,2.36 -3.001,3.51c-0.568,0.29 -1.333,0.67 -2.404,0.86c-0.504,0.08 -0.958,0.1 -1.347,0.12c-0.008,0.22 -0.061,0.46 -0.198,0.71c-0.401,0.74 -1.237,1.09 -2.497,1.01c-1.386,-0.07 -2.527,-0.34 -3.534,-0.57c-0.879,-0.2 -1.637,-0.37 -2.231,-0.33c-1.103,0.09 -1.953,0.97 -2.95,2.11z" fill="#8495FD"/>
<path id="Vector_36" d="M55.3058,49.9701l-4.553,1.76l-0.418,-0.15c-1.936,-0.68 -3.69,-0.82 -5.216,-0.43c-0.243,0.06 -0.482,0.14 -0.726,0.21c-0.966,0.31 -2.168,0.68 -3.752,0.42c-0.883,-0.15 -2.975,-0.67 -3.142,-2.23c-0.05,-0.42 0.056,-0.77 0.212,-1.06c-0.063,-0.02 -0.127,-0.04 -0.195,-0.06c-0.836,-0.29 -1.239,-0.58 -1.627,-0.85c-0.298,-0.22 -0.606,-0.44 -1.275,-0.74c-0.293,-0.13 -0.546,-0.23 -0.758,-0.31c-0.644,-0.25 -1.422,-0.58 -1.645,-1.48c-0.206,-0.97 0.454,-1.68 0.89,-2.15c0.777,-0.83 1.38,-1.28 1.779,-1.57c0.146,-0.11 0.311,-0.23 0.357,-0.28c0.373,-0.43 -0.707,-2.82 -1.109,-3.72c-0.909,-2.03 -1.695,-3.78 -0.557,-4.89c0.814,-0.79 2.183,-0.72 4.18,0.22c0.621,0.29 1.127,0.65 1.537,0.97c0.111,-0.39 0.339,-0.77 0.787,-1.01c1.062,-0.59 2.458,0.09 4.152,2.01c0.422,0.48 0.988,1.12 1.438,2.11c0.212,0.46 0.348,0.9 0.458,1.27c0.219,-0.05 0.468,-0.06 0.745,0.01c0.815,0.2 1.367,0.92 1.605,2.16c0.281,1.36 0.315,2.53 0.346,3.56c0.028,0.91 0.055,1.68 0.244,2.25c0.366,1.04 1.436,1.64 2.796,2.31z" fill="#8495FD"/>
<path id="Vector_37" d="M52.7858,35.6901l-0.544,-4.85l0.249,-0.37c1.148,-1.7 1.733,-3.36 1.74,-4.93c0.001,-0.25 -0.01,-0.5 -0.022,-0.76c-0.047,-1.01 -0.105,-2.27 0.55,-3.73c0.368,-0.82 1.4,-2.71 2.953,-2.48c0.418,0.06 0.734,0.25 0.974,0.48c0.035,-0.06 0.071,-0.12 0.11,-0.18c0.483,-0.73 0.866,-1.05 1.235,-1.35c0.283,-0.24 0.576,-0.48 1.035,-1.05c0.201,-0.25 0.358,-0.47 0.49,-0.66c0.402,-0.56 0.926,-1.22 1.851,-1.21c0.988,0.05 1.505,0.86 1.848,1.4c0.613,0.97 0.89,1.66 1.074,2.12c0.067,0.17 0.143,0.36 0.181,0.42c0.319,0.47 2.907,0.03 3.882,-0.13c2.191,-0.36 4.086,-0.68 4.867,0.7c0.559,0.99 0.144,2.3 -1.273,3.99c-0.441,0.53 -0.911,0.93 -1.327,1.24c0.345,0.21 0.654,0.52 0.779,1.02c0.295,1.17 -0.715,2.35 -3.001,3.5c-0.568,0.29 -1.333,0.68 -2.404,0.86c-0.504,0.09 -0.958,0.11 -1.347,0.12c-0.008,0.22 -0.061,0.47 -0.198,0.72c-0.401,0.74 -1.237,1.09 -2.497,1c-1.386,-0.07 -2.527,-0.33 -3.534,-0.57c-0.879,-0.2 -1.637,-0.37 -2.231,-0.33c-1.103,0.09 -1.953,0.97 -2.95,2.12z" fill="#8495FD"/>
<path id="Vector_38" d="M57.7468,129.8101l-1.016,-0.64l-1.185,0.14c-0.019,-0.11 -0.083,-0.36 -0.18,-0.76c-0.53,-2.17 -2.147,-8.77 -3.496,-19.16c-0.941,-7.25 -1.474,-14.71 -1.584,-22.16c-0.11,-7.47 0.244,-13.13 0.527,-17.67c0.214,-3.43 0.474,-6.69 0.729,-9.87c0.679,-8.5 1.32,-16.52 0.843,-25.4c-0.105,-1.99 -0.326,-6.11 -2.738,-10.51c-1.399,-2.54 -3.326,-4.81 -5.728,-6.72l1.494,-1.87c2.651,2.11 4.783,4.61 6.337,7.44c2.673,4.87 2.915,9.37 3.03,11.53c0.485,9.04 -0.162,17.14 -0.848,25.72c-0.253,3.16 -0.513,6.41 -0.726,9.83c-0.281,4.5 -0.631,10.11 -0.522,17.48c0.108,7.37 0.634,14.73 1.563,21.89c1.332,10.26 2.925,16.76 3.448,18.9c0.279,1.14 0.338,1.38 0.052,1.83z" fill="#8495FD"/>
<path id="Vector_39" d="M39.5218,20.8701c-0.098,0 -0.198,0 -0.298,-0.01c-2.042,-0.11 -3.933,-1.33 -5.621,-3.63c-0.791,-1.08 -1.196,-2.31 -2.004,-4.77c-0.125,-0.38 -0.734,-2.31 -1.104,-4.96c-0.242,-1.73 -0.212,-2.45 0.131,-3.09c0.381,-0.71 0.997,-1.21 1.69,-1.54c-0.031,-0.23 -0.006,-0.47 0.093,-0.71c0.409,-1 1.495,-0.87 2.083,-0.8c0.297,0.03 0.668,0.08 1.069,0.06c0.63,-0.03 0.968,-0.22 1.481,-0.5c0.49,-0.27 1.1,-0.6 2.005,-0.79c1.784,-0.37 3.279,0.14 3.772,0.3c2.593,0.87 3.871,2.88 5.351,5.22c0.295,0.47 1.307,2.17 1.976,4.51c0.482,1.68 0.414,2.43 0.269,2.99c-0.295,1.14 -0.991,1.8 -2.76,3.25c-1.848,1.51 -2.775,2.27 -3.571,2.73c-1.853,1.07 -3.017,1.74 -4.562,1.74z" fill="#8495FD"/>
</g>
<path id="Vector_40" d="M139.2468,322.2401c0,0.32 0.258,0.58 0.578,0.58h120.104c0.321,0 0.578,-0.26 0.578,-0.58c0,-0.16 -0.058,-0.29 -0.155,-0.39h-43.576c-0.927,0 -1.835,-0.07 -2.729,-0.19h-74.222c-0.32,0 -0.578,0.26 -0.578,0.58z" fill="#3F3D56"/>
<g id="Group_3">
<g id="Group_4">
<path id="Vector_41" d="M81.2198,219.9901h66.864c11.327,0 20.51,9.18 20.51,20.51v53.63c0,11.33 -9.183,20.51 -20.51,20.51h-66.864c-11.327,0 -20.51,-9.18 -20.51,-20.51v-53.63c0,-11.33 9.183,-20.51 20.51,-20.51z" fill="white"/>
<path id="Vector_42" d="M60.2248,294.1301v-53.63c0,-11.58 9.419,-21 20.996,-21h66.863c11.577,0 20.996,9.42 20.996,21v53.63c0,11.58 -9.419,21 -20.996,21h-66.863c-11.577,0 -20.996,-9.42 -20.996,-21zM81.2208,220.4701c-11.042,0 -20.025,8.98 -20.025,20.03v53.63c0,11.04 8.983,20.03 20.025,20.03h66.863c11.042,0 20.025,-8.99 20.025,-20.03v-53.63c0,-11.05 -8.983,-20.03 -20.025,-20.03z" fill="#3F3D56"/>
</g>
<g id="Group_5">
<path id="Vector_43" d="M106.2188,243.4701h14.976l-15.546,46.06c-0.328,0.97 -1.238,1.63 -2.263,1.63h-11.655c-1.316,0 -2.384,-1.07 -2.384,-2.39c0,-0.26 0.042,-0.51 0.125,-0.76l14.484,-42.92c0.328,-0.97 1.238,-1.62 2.263,-1.62z" fill="url(#paint8_linear_123_13)"/>
<path id="Vector_44" d="M127.9818,274.3701h-23.749c-0.607,0 -1.099,0.49 -1.1,1.09c0,0.31 0.126,0.6 0.35,0.81l15.26,14.24c0.444,0.42 1.03,0.65 1.637,0.65h13.448z" fill="#0078D4"/>
<path id="Vector_45" d="M106.2188,243.4701c-1.037,0 -1.956,0.67 -2.268,1.66l-14.462,42.84c-0.444,1.24 0.2,2.6 1.438,3.05c0.26,0.09 0.534,0.14 0.81,0.14h11.956c0.907,-0.16 1.656,-0.8 1.962,-1.67l2.883,-8.5l10.302,9.61c0.431,0.36 0.973,0.55 1.533,0.56h13.398l-5.876,-16.79h-17.13l10.484,-30.9z" fill="url(#paint9_linear_123_13)"/>
<path id="Vector_46" d="M125.3478,245.0901c-0.327,-0.97 -1.236,-1.62 -2.259,-1.62h-16.691c1.023,0 1.932,0.65 2.259,1.62l14.485,42.92c0.421,1.25 -0.249,2.6 -1.497,3.02c-0.245,0.09 -0.503,0.13 -0.762,0.13h16.691c1.317,0 2.385,-1.07 2.384,-2.39c0,-0.26 -0.042,-0.51 -0.125,-0.76z" fill="url(#paint10_linear_123_13)"/>
</g>
</g>
<g id="Group_6">
<g id="Group_7">
<path id="Vector_47" d="M20.9958,100.5101h66.863c11.327,0 20.51,9.18 20.51,20.51v53.63c0,11.33 -9.183,20.51 -20.51,20.51h-66.863c-11.328,0 -20.51,-9.18 -20.51,-20.51v-53.63c0,-11.33 9.182,-20.51 20.51,-20.51z" fill="white"/>
<path id="Vector_48" d="M-0.0002,174.6501v-53.63c0,-11.58 9.419,-21 20.996,-21h66.863c11.577,0 20.996,9.42 20.996,21v53.63c0,11.58 -9.419,21 -20.996,21h-66.863c-11.577,0 -20.996,-9.42 -20.996,-21zM20.9958,100.9901c-11.041,0 -20.024,8.99 -20.024,20.03v53.63c0,11.05 8.983,20.03 20.024,20.03h66.863c11.042,0 20.025,-8.98 20.025,-20.03v-53.63c0,-11.04 -8.983,-20.03 -20.025,-20.03z" fill="#3F3D56"/>
</g>
<g id="Group_8">
<path id="Vector_49" d="M41.0738,148.6601c0,0.75 0.081,1.36 0.224,1.81c0.163,0.45 0.366,0.94 0.651,1.46c0.102,0.17 0.143,0.33 0.143,0.47c0,0.21 -0.123,0.41 -0.387,0.61l-1.283,0.86c-0.183,0.12 -0.366,0.18 -0.529,0.18c-0.203,0 -0.407,-0.1 -0.61,-0.28c-0.285,-0.31 -0.53,-0.63 -0.733,-0.96c-0.204,-0.35 -0.407,-0.73 -0.631,-1.2c-1.588,1.87 -3.583,2.81 -5.985,2.81c-1.71,0 -3.074,-0.49 -4.071,-1.47c-0.997,-0.97 -1.506,-2.28 -1.506,-3.91c0,-1.73 0.61,-3.13 1.852,-4.19c1.242,-1.06 2.891,-1.59 4.987,-1.59c0.692,0 1.405,0.06 2.158,0.17c0.753,0.1 1.527,0.26 2.341,0.44v-1.48c0,-1.55 -0.326,-2.63 -0.957,-3.26c-0.651,-0.63 -1.751,-0.94 -3.318,-0.94c-0.712,0 -1.445,0.09 -2.198,0.27c-0.754,0.18 -1.486,0.41 -2.199,0.69c-0.325,0.14 -0.57,0.23 -0.712,0.27c-0.143,0.04 -0.244,0.06 -0.326,0.06c-0.285,0 -0.427,-0.21 -0.427,-0.63v-1c0,-0.33 0.04,-0.57 0.142,-0.71c0.102,-0.15 0.285,-0.29 0.57,-0.43c0.713,-0.37 1.567,-0.67 2.565,-0.92c0.997,-0.26 2.056,-0.38 3.175,-0.38c2.423,0 4.194,0.55 5.334,1.64c1.119,1.1 1.689,2.77 1.689,5.01v6.6zM32.8088,151.7501c0.672,0 1.364,-0.12 2.097,-0.36c0.733,-0.25 1.384,-0.7 1.934,-1.31c0.326,-0.38 0.57,-0.81 0.692,-1.3c0.122,-0.49 0.203,-1.08 0.203,-1.77v-0.86c-0.59,-0.14 -1.221,-0.26 -1.872,-0.34c-0.652,-0.08 -1.283,-0.12 -1.914,-0.12c-1.364,0 -2.361,0.26 -3.033,0.81c-0.671,0.55 -0.997,1.32 -0.997,2.34c0,0.96 0.244,1.67 0.753,2.16c0.489,0.51 1.201,0.75 2.137,0.75zM49.1548,153.9501c-0.366,0 -0.611,-0.06 -0.773,-0.2c-0.163,-0.13 -0.306,-0.41 -0.428,-0.8l-4.784,-15.73c-0.122,-0.41 -0.183,-0.67 -0.183,-0.82c0,-0.32 0.163,-0.51 0.489,-0.51h1.995c0.386,0 0.651,0.07 0.794,0.21c0.162,0.12 0.284,0.41 0.407,0.79l3.419,13.48l3.176,-13.48c0.102,-0.41 0.224,-0.67 0.387,-0.79c0.162,-0.12 0.447,-0.21 0.814,-0.21h1.628c0.387,0 0.652,0.07 0.815,0.21c0.162,0.12 0.305,0.41 0.386,0.79l3.217,13.64l3.521,-13.64c0.122,-0.41 0.265,-0.67 0.407,-0.79c0.163,-0.12 0.428,-0.21 0.794,-0.21h1.893c0.326,0 0.509,0.17 0.509,0.51c0,0.11 -0.02,0.21 -0.041,0.33c-0.02,0.12 -0.061,0.28 -0.142,0.51l-4.906,15.73c-0.122,0.41 -0.265,0.67 -0.427,0.8c-0.163,0.12 -0.428,0.2 -0.774,0.2h-1.751c-0.386,0 -0.651,-0.06 -0.814,-0.2c-0.163,-0.15 -0.305,-0.41 -0.386,-0.82l-3.156,-13.13l-3.134,13.11c-0.102,0.41 -0.224,0.67 -0.387,0.82c-0.163,0.14 -0.448,0.2 -0.814,0.2zM75.3118,154.5001c-1.058,0 -2.117,-0.12 -3.135,-0.37c-1.017,-0.24 -1.811,-0.51 -2.341,-0.81c-0.325,-0.18 -0.549,-0.39 -0.631,-0.57c-0.081,-0.18 -0.122,-0.39 -0.122,-0.57v-1.04c0,-0.43 0.163,-0.63 0.468,-0.63c0.123,0 0.245,0.02 0.367,0.06c0.122,0.04 0.305,0.12 0.509,0.2c0.692,0.31 1.445,0.55 2.239,0.72c0.814,0.16 1.608,0.24 2.422,0.24c1.283,0 2.28,-0.22 2.972,-0.67c0.692,-0.45 1.059,-1.1 1.059,-1.93c0,-0.57 -0.184,-1.04 -0.55,-1.43c-0.366,-0.39 -1.058,-0.73 -2.056,-1.06l-2.951,-0.91c-1.486,-0.47 -2.586,-1.16 -3.257,-2.08c-0.672,-0.9 -1.018,-1.89 -1.018,-2.95c0,-0.86 0.183,-1.61 0.549,-2.26c0.367,-0.65 0.855,-1.22 1.466,-1.67c0.611,-0.47 1.303,-0.81 2.117,-1.06c0.814,-0.24 1.669,-0.34 2.565,-0.34c0.448,0 0.916,0.02 1.364,0.08c0.468,0.06 0.895,0.14 1.323,0.22c0.407,0.1 0.794,0.2 1.16,0.33c0.366,0.12 0.651,0.24 0.855,0.36c0.285,0.17 0.489,0.33 0.611,0.51c0.122,0.16 0.183,0.39 0.183,0.67v0.96c0,0.43 -0.163,0.65 -0.468,0.65c-0.163,0 -0.428,-0.08 -0.774,-0.24c-1.16,-0.53 -2.463,-0.8 -3.908,-0.8c-1.16,0 -2.076,0.19 -2.707,0.57c-0.631,0.39 -0.957,0.98 -0.957,1.81c0,0.57 0.203,1.06 0.611,1.45c0.407,0.39 1.16,0.77 2.239,1.12l2.89,0.92c1.466,0.46 2.524,1.12 3.155,1.95c0.631,0.83 0.937,1.79 0.937,2.85c0,0.87 -0.184,1.67 -0.53,2.36c-0.366,0.69 -0.855,1.3 -1.486,1.79c-0.631,0.51 -1.384,0.88 -2.259,1.14c-0.916,0.29 -1.873,0.43 -2.911,0.43z" fill="#252F3E"/>
<g id="Group_9">
<path id="Vector_50" fill-rule="evenodd" clip-rule="evenodd" d="M79.1598,164.3901c-6.697,4.95 -16.427,7.57 -24.794,7.57c-11.724,0 -22.289,-4.33 -30.268,-11.54c-0.632,-0.57 -0.062,-1.34 0.692,-0.89c8.63,5 19.276,8.04 30.289,8.04c7.43,0 15.592,-1.55 23.104,-4.72c1.119,-0.51 2.076,0.73 0.977,1.54z" fill="#FF9900"/>
<path id="Vector_51" fill-rule="evenodd" clip-rule="evenodd" d="M81.9478,161.2201c-0.855,-1.1 -5.659,-0.53 -7.837,-0.27c-0.651,0.08 -0.753,-0.49 -0.163,-0.91c3.827,-2.69 10.117,-1.92 10.85,-1.02c0.733,0.91 -0.204,7.2 -3.786,10.22c-0.55,0.47 -1.079,0.22 -0.835,-0.39c0.814,-2.01 2.626,-6.55 1.771,-7.63z" fill="#FF9900"/>
</g>
</g>
</g>
<path id="Vector_52" d="M208.0798,136.2301c-0.485,-0.49 -4.371,-10.69 -4.371,-10.69l-9.228,-0.48l-4.222,9.95z" fill="#FFB6B6"/>
<path id="Vector_53" d="M194.9888,129.7601c6.86,0 12.421,-5.56 12.421,-12.42c0,-6.86 -5.561,-12.43 -12.421,-12.43c-6.86,0 -12.421,5.57 -12.421,12.43c0,6.86 5.561,12.42 12.421,12.42z" fill="#FFB6B6"/>
<path id="Vector_54" d="M218.5228,203.5001l4.371,14.57l-11.656,84.5h-7.892l-4.25,-63.62l-4.857,21.86l24.77,31.57l-6.314,7.28l-35.698,-34.73l0.729,-53.66l2.914,-8.26z" fill="#2F2E41"/>
<path id="Vector_55" d="M205.4018,127.5401l-0.97,0.05c0,0 -0.868,-7.74 -1.377,-8.2c-0.509,-0.46 -1.431,0.56 -1.431,0.56c0,0 -4,-2.24 -4.12,-4.66c-0.119,-2.43 -0.215,-4.37 -1.67,-4.3c-1.455,0.07 -9.606,2.42 -11.547,2.52c-1.94,0.09 -5.018,-3.16 -1.766,-6.24c3.253,-3.08 6.115,-4.19 6.577,-4.7c0.461,-0.51 3.497,-2.6 6.15,-0.79c2.653,1.82 6.049,1.65 6.049,1.65c0,0 6.377,1.14 5.551,4.1c-0.827,2.96 2.37,8.64 1.058,11.62c-1.312,2.98 -2.504,8.39 -2.504,8.39z" fill="#2F2E41"/>
<path id="Vector_56" d="M202.9808,301.1201l8.742,0.97l0.972,16.03c0,0 -0.486,7.77 -8.743,6.8c-8.256,-0.98 -5.828,-8.75 -5.828,-8.75z" fill="#2F2E41"/>
<path id="Vector_57" d="M214.3948,289.7001c0,0 6.313,-2.91 7.285,0.49l1.943,6.8c0,0 0,6.8 0.485,7.28c0.486,0.49 9.714,13.12 1.457,19.92c0,0 -4.371,0.48 -6.799,-6.32c-2.429,-6.8 -9.714,-13.6 -9.714,-13.6c0,0 -1.411,-3.4 0.994,-3.15c2.406,0.24 5.806,-5.59 4.834,-7.53c-0.971,-1.94 -0.485,-3.89 -0.485,-3.89z" fill="#2F2E41"/>
<path id="Vector_58" d="M134.2078,226.2501c-2.26,-0.95 -2.879,-4.6 -1.383,-8.15c0.578,-1.43 1.489,-2.7 2.658,-3.7l1.745,-4l-0.062,-0.04l5.019,-20.01c1.167,-4.65 4.38,-8.57 8.792,-10.45c2.625,-1.11 5.115,-1.31 5.84,1.36c1.201,4.44 -6.626,18.73 -11.346,26.78l-3.677,9.02c0.1,1.54 -0.171,3.08 -0.788,4.49c-1.495,3.55 -4.539,5.65 -6.798,4.7z" fill="#FFB6B6"/>
<path id="Vector_59" d="M190.5958,133.3101l16.027,0.49l15.542,6.8l-2.428,40.31c0,0 2.914,9.23 1.457,10.69c-1.457,1.45 0,7.99 -0.972,8.12c-0.971,0.13 0,7.16 0,7.16c0,0 -13.599,-4.6 -25.255,-1.68c-11.657,2.91 -15.542,-1.95 -15.542,-1.95c0,0 -2.914,-11.65 -2.914,-14.08v-49.66z" fill="#818CF8"/>
<path id="Vector_60" d="M179.1818,139.3901c0,0 -6.799,-1.95 -10.199,2.91c-3.4,4.86 -5.342,4.86 -5.342,11.17c0,0 -19.913,28.17 -18.942,31.08l-4.614,7.53l11.656,6.32c0,0 4.129,-4.13 4.129,-8.02c0,-3.88 11.656,-14.57 11.656,-14.57c0,0 10.199,-13.11 10.685,-17.97c0.486,-4.86 0.971,-18.45 0.971,-18.45z" fill="#818CF8"/>
<g id="Group_10">
<g id="Group_11">
<path id="Vector_61" d="M239.0668,228.7301h66.863c11.328,0 20.51,9.18 20.51,20.51v53.63c0,11.33 -9.182,20.51 -20.51,20.51h-66.863c-11.327,0 -20.51,-9.18 -20.51,-20.51v-53.63c0,-11.33 9.183,-20.51 20.51,-20.51z" fill="white"/>
<path id="Vector_62" d="M217.5848,302.3901v-53.64c0,-11.57 9.419,-20.99 20.996,-20.99h66.863c11.577,0 20.996,9.42 20.996,20.99v53.64c0,11.58 -9.419,20.99 -20.996,20.99h-66.863c-11.577,0 -20.996,-9.41 -20.996,-20.99zM238.5808,228.7301c-11.042,0 -20.024,8.98 -20.024,20.02v53.64c0,11.04 8.982,20.02 20.024,20.02h66.863c11.042,0 20.025,-8.98 20.025,-20.02v-53.64c0,-11.04 -8.983,-20.02 -20.025,-20.02z" fill="#3F3D56"/>
</g>
<g id="Group_12">
<path id="Vector_63" d="M281.0098,266.2301h1.65l4.702,-4.7l0.231,-2c-8.752,-7.72 -22.108,-6.89 -29.833,1.86c-2.145,2.43 -3.703,5.32 -4.552,8.45c0.524,-0.21 1.104,-0.25 1.65,-0.1l9.405,-1.55c0,0 0.478,-0.79 0.726,-0.74c4.183,-4.6 11.224,-5.13 16.054,-1.22z" fill="#EA4335"/>
<path id="Vector_64" d="M294.0608,269.8401c-1.081,-3.98 -3.3,-7.56 -6.385,-10.29l-6.6,6.6c2.787,2.27 4.374,5.7 4.306,9.3v1.17c3.244,0 5.874,2.63 5.874,5.88c0,3.24 -2.63,5.87 -5.874,5.87h-11.747l-1.172,1.19v7.04l1.172,1.18h11.747c8.438,0.06 15.331,-6.73 15.397,-15.16c0.04,-5.12 -2.482,-9.91 -6.718,-12.78z" fill="#4285F4"/>
<path id="Vector_65" d="M261.8698,297.7101h11.747v-9.41h-11.747c-0.837,0 -1.664,-0.18 -2.426,-0.52l-1.65,0.51l-4.735,4.7l-0.412,1.65c2.655,2.01 5.895,3.08 9.223,3.07z" fill="#34A853"/>
<path id="Vector_66" d="M261.8698,267.2001c-8.438,0.05 -15.237,6.93 -15.187,15.37c0.028,4.71 2.229,9.15 5.964,12.02l6.814,-6.81c-2.956,-1.34 -4.27,-4.82 -2.934,-7.77c1.335,-2.96 4.815,-4.27 7.771,-2.94c1.302,0.59 2.346,1.63 2.934,2.94l6.815,-6.82c-2.9,-3.79 -7.405,-6.01 -12.177,-5.99z" fill="#FBBC05"/>
</g>
</g>
<g id="Group_13">
<path id="Vector_67" d="M231.9198,237.2401c2.448,-0.13 4.27,-3.35 4.068,-7.2c-0.06,-1.54 -0.487,-3.04 -1.246,-4.38l-0.283,-4.36l0.073,-0.01l2.068,-20.52c0.481,-4.77 -1.21,-9.55 -4.724,-12.82c-2.09,-1.94 -4.364,-2.97 -5.953,-0.7c-2.637,3.76 -0.126,19.87 1.584,29.04l0.397,9.73c-0.616,1.41 -0.884,2.95 -0.782,4.49c0.201,3.85 2.349,6.86 4.798,6.73z" fill="#FFB6B6"/>
<path id="Vector_68" d="M219.0958,140.2701c0,0 7.055,0.48 8.605,6.2c1.549,5.72 3.377,6.38 1.234,12.32c0,0 9.17,33.26 7.268,35.67l1.785,8.65l-13.108,1.98c0,0 -2.482,-5.29 -1.163,-8.94c1.319,-3.66 -6.019,-17.66 -6.019,-17.66c0,0 -5.144,-15.8 -3.952,-20.53c1.191,-4.74 5.35,-17.69 5.35,-17.69z" fill="#818CF8"/>
</g>
</g></svg>