<svg width="364" height="339" viewBox="0 0 364 339" fill="none" xmlns="http://www.w3.org/2000/svg">
<g clip-path="url(#clip0_2_45)">
<g clip-path="url(#clip1_2_45)">
<path d="M13.9354 34.9839H63.2903V278.371C63.2903 292 52.2418 303.048 38.6128 303.048V303.048C24.9839 303.048 13.9354 292 13.9354 278.371V34.9839Z" fill="url(#paint0_linear_2_45)"/>
<path d="M63.2903 34.9839H112.645V278.147C112.645 291.9 101.496 303.048 87.7434 303.048V303.048C74.2383 303.048 63.2903 292.1 63.2903 278.595V34.9839Z" fill="url(#paint1_linear_2_45)"/>
</g>
</g>
<g clip-path="url(#clip2_2_45)">
<g clip-path="url(#clip3_2_45)">
<path d="M132.645 59.6613C132.645 46.0323 143.694 34.9839 157.323 34.9839V34.9839C170.952 34.9839 182 46.0323 182 59.6613V278.371C182 292 170.952 303.048 157.323 303.048V303.048C143.694 303.048 132.645 292 132.645 278.371V59.6613Z" fill="url(#paint2_linear_2_45)"/>
<path d="M231.355 119.661C231.355 146.919 209.258 169.016 182 169.016V169.016V59.8856C182 46.1328 193.149 34.9839 206.902 34.9839V34.9839C220.407 34.9839 231.355 45.9319 231.355 59.437V119.661Z" fill="url(#paint3_linear_2_45)"/>
<path d="M231.355 217.887C231.355 190.629 209.258 168.532 182 168.532V168.532L182 277.663C182 291.416 193.149 302.565 206.902 302.565V302.565C220.407 302.565 231.355 291.616 231.355 278.111L231.355 217.887Z" fill="url(#paint4_linear_2_45)"/>
</g>
</g>
<g clip-path="url(#clip4_2_45)">
<g clip-path="url(#clip5_2_45)">
<path d="M251.355 34.9839H300.71V278.371C300.71 292 289.661 303.048 276.032 303.048V303.048C262.403 303.048 251.355 292 251.355 278.371V34.9839Z" fill="url(#paint5_linear_2_45)"/>
<path d="M300.71 34.9839H350.065V278.147C350.065 291.9 338.916 303.048 325.163 303.048V303.048C311.658 303.048 300.71 292.1 300.71 278.595V34.9839Z" fill="url(#paint6_linear_2_45)"/>
</g>
</g>
<defs>
<linearGradient id="paint0_linear_2_45" x1="38.6128" y1="34.9839" x2="38.6128" y2="303.048" gradientUnits="userSpaceOnUse">
<stop stop-color="#29D6F6"/>
<stop offset="1" stop-color="#2D71E6"/>
</linearGradient>
<linearGradient id="paint1_linear_2_45" x1="87.9677" y1="34.9839" x2="87.9677" y2="303.048" gradientUnits="userSpaceOnUse">
<stop stop-color="#2C70E5"/>
<stop offset="1" stop-color="#28D5F5"/>
</linearGradient>
<linearGradient id="paint2_linear_2_45" x1="157.323" y1="34.9839" x2="157.323" y2="303.048" gradientUnits="userSpaceOnUse">
<stop stop-color="#29D6F6"/>
<stop offset="1" stop-color="#2D71E6"/>
</linearGradient>
<linearGradient id="paint3_linear_2_45" x1="206.677" y1="169.016" x2="206.677" y2="34.9839" gradientUnits="userSpaceOnUse">
<stop stop-color="#29D6F6"/>
<stop offset="1" stop-color="#2D71E6"/>
</linearGradient>
<linearGradient id="paint4_linear_2_45" x1="206.677" y1="168.532" x2="206.677" y2="302.565" gradientUnits="userSpaceOnUse">
<stop stop-color="#2C70E5"/>
<stop offset="1" stop-color="#28D5F5"/>
</linearGradient>
<linearGradient id="paint5_linear_2_45" x1="276.032" y1="34.9839" x2="276.032" y2="303.048" gradientUnits="userSpaceOnUse">
<stop stop-color="#29D6F6"/>
<stop offset="1" stop-color="#2D71E6"/>
</linearGradient>
<linearGradient id="paint6_linear_2_45" x1="325.387" y1="34.9839" x2="325.387" y2="303.048" gradientUnits="userSpaceOnUse">
<stop stop-color="#2C70E5"/>
<stop offset="1" stop-color="#28D5F5"/>
</linearGradient>
<clipPath id="clip0_2_45">
<path d="M13.9354 84.3387C13.9354 57.0808 36.0323 34.9839 63.2903 34.9839C90.5482 34.9839 112.645 57.0808 112.645 84.3387V304.016H13.9354V84.3387Z" fill="white"/>
</clipPath>
<clipPath id="clip1_2_45">
<rect width="98.7097" height="268.065" fill="white" transform="translate(13.9354 34.9839)"/>
</clipPath>
<clipPath id="clip2_2_45">
<rect width="98.7097" height="269.032" fill="white" transform="translate(132.645 34.9839)"/>
</clipPath>
<clipPath id="clip3_2_45">
<rect width="98.7097" height="268.065" fill="white" transform="translate(132.645 34.9839)"/>
</clipPath>
<clipPath id="clip4_2_45">
<path d="M251.355 84.3387C251.355 57.0808 273.452 34.9839 300.71 34.9839C327.968 34.9839 350.065 57.0808 350.065 84.3387V304.016H251.355V84.3387Z" fill="white"/>
</clipPath>
<clipPath id="clip5_2_45">
<rect width="98.7097" height="268.065" fill="white" transform="translate(251.355 34.9839)"/>
</clipPath>
</defs>
</svg>
