<svg width="508" height="537" viewBox="0 0 508 537" fill="none" xmlns="http://www.w3.org/2000/svg">
<rect width="508" height="537" rx="254" fill="#040533"/>
<g clip-path="url(#clip0_2_45)">
<g clip-path="url(#clip1_2_45)">
<path d="M75 129.5H126V381C126 395.083 114.583 406.5 100.5 406.5C86.4167 406.5 75 395.083 75 381V129.5Z" fill="url(#paint0_linear_2_45)"/>
<path d="M126 129.5H177V380.768C177 394.979 165.479 406.5 151.268 406.5C137.313 406.5 126 395.187 126 381.232V129.5Z" fill="url(#paint1_linear_2_45)"/>
</g>
</g>
<g clip-path="url(#clip2_2_45)">
<g clip-path="url(#clip3_2_45)">
<path d="M203 155C203 140.917 214.417 129.5 228.5 129.5C242.583 129.5 254 140.917 254 155V381C254 395.083 242.583 406.5 228.5 406.5C214.417 406.5 203 395.083 203 381V155Z" fill="url(#paint2_linear_2_45)"/>
<path d="M305 217C305 245.167 282.167 268 254 268V155.232C254 141.021 265.521 129.5 279.732 129.5C293.687 129.5 305 140.813 305 154.768V217Z" fill="url(#paint3_linear_2_45)"/>
<path d="M305 318.5C305 290.333 282.167 267.5 254 267.5L254 380.268C254 394.479 265.521 406 279.732 406C293.687 406 305 394.687 305 380.732V318.5Z" fill="url(#paint4_linear_2_45)"/>
</g>
</g>
<g clip-path="url(#clip4_2_45)">
<g clip-path="url(#clip5_2_45)">
<path d="M331 129.5H382V381C382 395.083 370.583 406.5 356.5 406.5C342.417 406.5 331 395.083 331 381V129.5Z" fill="url(#paint5_linear_2_45)"/>
<path d="M382 129.5H433V380.768C433 394.979 421.479 406.5 407.268 406.5C393.313 406.5 382 395.187 382 381.232V129.5Z" fill="url(#paint6_linear_2_45)"/>
</g>
</g>
<defs>
<linearGradient id="paint0_linear_2_45" x1="100.5" y1="129.5" x2="100.5" y2="406.5" gradientUnits="userSpaceOnUse">
<stop stop-color="#29D6F6"/>
<stop offset="1" stop-color="#2D71E6"/>
</linearGradient>
<linearGradient id="paint1_linear_2_45" x1="151.5" y1="129.5" x2="151.5" y2="406.5" gradientUnits="userSpaceOnUse">
<stop stop-color="#2C70E5"/>
<stop offset="1" stop-color="#28D5F5"/>
</linearGradient>
<linearGradient id="paint2_linear_2_45" x1="228.5" y1="129.5" x2="228.5" y2="406.5" gradientUnits="userSpaceOnUse">
<stop stop-color="#29D6F6"/>
<stop offset="1" stop-color="#2D71E6"/>
</linearGradient>
<linearGradient id="paint3_linear_2_45" x1="279.5" y1="268" x2="279.5" y2="129.5" gradientUnits="userSpaceOnUse">
<stop stop-color="#29D6F6"/>
<stop offset="1" stop-color="#2D71E6"/>
</linearGradient>
<linearGradient id="paint4_linear_2_45" x1="279.5" y1="267.5" x2="279.5" y2="406" gradientUnits="userSpaceOnUse">
<stop stop-color="#2C70E5"/>
<stop offset="1" stop-color="#28D5F5"/>
</linearGradient>
<linearGradient id="paint5_linear_2_45" x1="356.5" y1="129.5" x2="356.5" y2="406.5" gradientUnits="userSpaceOnUse">
<stop stop-color="#29D6F6"/>
<stop offset="1" stop-color="#2D71E6"/>
</linearGradient>
<linearGradient id="paint6_linear_2_45" x1="407.5" y1="129.5" x2="407.5" y2="406.5" gradientUnits="userSpaceOnUse">
<stop stop-color="#2C70E5"/>
<stop offset="1" stop-color="#28D5F5"/>
</linearGradient>
<clipPath id="clip0_2_45">
<path d="M75 180.5C75 152.333 97.8335 129.5 126 129.5C154.167 129.5 177 152.333 177 180.5V407.5H75V180.5Z" fill="white"/>
</clipPath>
<clipPath id="clip1_2_45">
<rect width="102" height="277" fill="white" transform="translate(75 129.5)"/>
</clipPath>
<clipPath id="clip2_2_45">
<rect width="102" height="278" fill="white" transform="translate(203 129.5)"/>
</clipPath>
<clipPath id="clip3_2_45">
<rect width="102" height="277" fill="white" transform="translate(203 129.5)"/>
</clipPath>
<clipPath id="clip4_2_45">
<path d="M331 180.5C331 152.333 353.833 129.5 382 129.5C410.167 129.5 433 152.333 433 180.5V407.5H331V180.5Z" fill="white"/>
</clipPath>
<clipPath id="clip5_2_45">
<rect width="102" height="277" fill="white" transform="translate(331 129.5)"/>
</clipPath>
</defs>
</svg>
