<?xml version="1.0" encoding="utf-8"?>
<!-- Generator: Adobe Illustrator 27.5.0, SVG Export Plug-In . SVG Version: 6.00 Build 0)  -->
<svg version="1.1" xmlns="http://www.w3.org/2000/svg" xmlns:xlink="http://www.w3.org/1999/xlink" x="0px" y="0px"
	 viewBox="0 0 500 500" style="enable-background:new 0 0 500 500;" xml:space="preserve">
<g id="BACKGROUND">
	<g>
		<rect style="fill:#FDF9F4;" width="500" height="500"/>
	</g>
</g>
<g id="OBJECTS">
	
		<path style="fill:none;stroke:#000000;stroke-width:1.5329;stroke-linecap:round;stroke-linejoin:round;stroke-miterlimit:10;stroke-dasharray:6.1316;" d="
		M102.642,416.43c-2.828,1.487-4.042,4.824-5.018,7.866c-3.974,12.392-7.039,28.234,3.008,36.504
		c3.859,3.176,8.967,4.422,13.948,4.835c17.202,1.424,34.891-6.657,45.075-20.594c-0.651,5.393,2.95,10.626,7.651,13.348
		c4.701,2.722,10.302,3.379,15.731,3.559c33.671,1.118,67.464-15.008,87.776-41.887"/>
	<path style="fill:#F5DBD0;" d="M251.912,64.812c-9.934-15.903-24.105-26.552-48.835-21.993
		c-85.601,15.78-113.387,128.509-111.07,201.2c0.59,18.511,3.183,37.492,12.273,53.629c9.09,16.137,25.796,28.972,44.316,29.147
		c23.503,0.222,42.258-18.598,58.02-36.033c-8.071,15.39-16.306,31.328-17.634,48.655c-1.328,17.327,6.081,36.562,21.894,43.77
		c7.438,3.391,15.895,3.817,24.05,3.238c38.556-2.738,74.594-28.46,89.714-64.034c-10.256,14.545-3.168,36.574,11.649,46.444
		c48.943,32.593,124.872-31.931,102.197-85.451c-18.218-43-33.837-51.135-1.976-93.647c19.989-26.672,13.684-70.233-16.023-87.569
		c-39.808-23.23-69.026,23.504-102.099,37.235c-24.186,10.038-37.991-8.352-46.403-28.664
		C265.763,95.72,260.375,78.36,251.912,64.812z"/>
	<polygon style="fill:#B97D33;" points="305.142,428.436 307.451,251.364 420.561,245.546 473.653,335.525 473.653,429.013 	"/>
	<g>
		<g>
			<polygon points="305.922,428.197 431.071,428.85 428.913,272.097 308.04,273.537 			"/>
			<path d="M414.285,429.014l33.583-0.4l-1.667-139.929c-0.111-9.274-7.718-16.702-16.992-16.591l-16.792,0.2L414.285,429.014z"/>
			
				<line style="fill:none;stroke:#57929D;stroke-width:1.7102;stroke-linecap:round;stroke-linejoin:round;stroke-miterlimit:10;" x1="403.16" y1="274.181" x2="404.082" y2="428.197"/>
			
				<line style="fill:none;stroke:#57929D;stroke-width:1.7102;stroke-linecap:round;stroke-linejoin:round;stroke-miterlimit:10;" x1="415.618" y1="274.317" x2="415.618" y2="428.197"/>
			<rect x="415.451" y="318.718" style="fill:#57929D;" width="32.161" height="22.2"/>
			<rect x="415.835" y="353.107" style="fill:#57929D;" width="31.958" height="9.141"/>
			<rect x="416.271" y="365.948" style="fill:#57929D;" width="31.958" height="9.141"/>
			
				<path style="fill:none;stroke:#57929D;stroke-width:1.7102;stroke-linecap:round;stroke-linejoin:round;stroke-miterlimit:10;" d="
				M432.05,425.367L432.05,425.367c-2.574,0-4.679-2.106-4.679-4.679v-33.083c0-2.574,2.106-4.68,4.679-4.68l0,0
				c2.574,0,4.68,2.106,4.68,4.68v33.083C436.73,423.261,434.624,425.367,432.05,425.367z"/>
		</g>
		<path style="fill:#FDF9F4;" d="M432.595,284.765h-90.76c-2.155,0-3.918-1.763-3.918-3.918l0,0c0-2.155,1.763-3.918,3.918-3.918
			h90.76c2.155,0,3.918,1.763,3.918,3.918l0,0C436.512,283.002,434.749,284.765,432.595,284.765z"/>
		
			<line style="fill:none;stroke:#000000;stroke-width:1.8903;stroke-linecap:round;stroke-linejoin:round;stroke-miterlimit:10;" x1="350.975" y1="281.5" x2="424.106" y2="281.5"/>
	</g>
	
		<path style="fill:none;stroke:#000000;stroke-width:1.5329;stroke-linecap:round;stroke-linejoin:round;stroke-miterlimit:10;stroke-dasharray:6.1316;" d="
		M154.592,192.582c-37.821-5.927-78.343,13.776-97.038,47.184"/>
	
		<path style="fill:none;stroke:#000000;stroke-width:1.5329;stroke-linecap:round;stroke-linejoin:round;stroke-miterlimit:10;stroke-dasharray:6.1316;" d="
		M475.103,392.841c-15.008,32.542-47.817,56.173-83.437,60.096"/>
	<g>
		<g>
			<path style="fill:none;stroke:#000000;stroke-width:1.5329;stroke-linecap:round;stroke-linejoin:round;" d="M217.201,87.833
				c0.573-0.836,1.161-1.672,1.762-2.505"/>
			
				<path style="fill:none;stroke:#000000;stroke-width:1.5329;stroke-linecap:round;stroke-linejoin:round;stroke-dasharray:6.2245,6.2245;" d="
				M222.728,80.373c11.285-14.112,26.457-26.815,43.648-31.798c16.076-4.659,33.996,0.394,34.867,19.462
				c0.533,11.686-6.105,22.793-15.007,30.382c-1.015,0.866-2.139,1.729-3.464,1.879c-2.181,0.247-4.165-1.625-4.75-3.741
				c-0.585-2.115-0.092-4.371,0.556-6.468c3.609-11.676,11.948-21.485,21.852-28.646c8.235-5.955,17.531-10.232,27.074-13.79"/>
			<path style="fill:none;stroke:#000000;stroke-width:1.5329;stroke-linecap:round;stroke-linejoin:round;" d="M330.433,46.584
				c0.964-0.344,1.93-0.682,2.896-1.015"/>
		</g>
	</g>
	<g>
		<g>
			<g>
				<path style="fill:#94DBD2;" d="M189.91,139.392h-4.607c-0.329-0.764-0.707-1.502-1.13-2.21l2.776-3.355
					c0.243-0.294,0.202-0.733-0.092-0.976l-7.292-6.035c-0.294-0.243-0.733-0.202-0.976,0.092l-2.431,2.937
					c-0.986-0.477-2.02-0.87-3.093-1.17l0,0v-3.845c0-0.381-0.312-0.693-0.693-0.693h-9.466c-0.381,0-0.693,0.312-0.693,0.693v4.036
					c-1.067,0.34-2.093,0.773-3.069,1.289l-2.688-3.248c-0.243-0.294-0.682-0.335-0.976-0.092l-7.292,6.035
					c-0.294,0.243-0.335,0.682-0.092,0.976l3.292,3.978c0,0,0,0,0,0c-0.281,0.515-0.54,1.044-0.773,1.586h-6.265
					c-0.381,0-0.693,0.312-0.693,0.693v9.466c0,0.381,0.312,0.693,0.693,0.693h5.036c0.327,1.8,0.908,3.511,1.707,5.094c0,0,0,0,0,0
					l-3.782,4.57c-0.243,0.294-0.202,0.733,0.092,0.976l7.292,6.035c0.294,0.243,0.733,0.201,0.976-0.092l2.951-3.566
					c1.129,0.645,2.331,1.175,3.591,1.577v5.042c0,0.381,0.312,0.693,0.693,0.693h9.466c0.381,0,0.693-0.312,0.693-0.693v-4.851l0,0
					c1.368-0.383,2.673-0.917,3.897-1.582c0,0,0,0,0,0l2.797,3.38c0.243,0.294,0.682,0.335,0.976,0.092l7.293-6.035
					c0.294-0.243,0.335-0.682,0.092-0.976l-3.482-4.208l0,0c0.895-1.683,1.543-3.518,1.894-5.456h3.379
					c0.381,0,0.693-0.312,0.693-0.693v-9.466C190.603,139.704,190.292,139.392,189.91,139.392z M167.959,156.082
					c-5.097,0-9.229-4.132-9.229-9.229c0-5.097,4.132-9.23,9.229-9.23c5.097,0,9.23,4.133,9.23,9.23
					C177.188,151.951,173.056,156.082,167.959,156.082z"/>
			</g>
			
				<circle style="fill:none;stroke:#000000;stroke-width:1.5329;stroke-linecap:round;stroke-linejoin:round;stroke-miterlimit:10;stroke-dasharray:6.1316;" cx="168.372" cy="146.863" r="14.318"/>
		</g>
		<path style="fill:#94DBD2;" d="M173.565,146.863c0,2.868-2.325,5.194-5.194,5.194c-2.868,0-5.194-2.325-5.194-5.194
			s2.325-5.194,5.194-5.194C171.24,141.669,173.565,143.995,173.565,146.863z"/>
	</g>
	
		<ellipse transform="matrix(0.6096 -0.7927 0.7927 0.6096 82.1333 315.502)" style="fill:#F5DBD0;" cx="361.377" cy="74.366" rx="24.815" ry="19.621"/>
	<g>
		<g>
			<g>
				<path style="fill:#9792FB;" d="M261.059,189.365h-9.093c-0.649-1.508-1.395-2.964-2.231-4.362l5.479-6.62
					c0.48-0.58,0.398-1.446-0.182-1.926l-14.393-11.911c-0.58-0.479-1.446-0.398-1.926,0.182l-4.797,5.797
					c-1.946-0.941-3.988-1.717-6.104-2.308l0,0v-7.589c0-0.752-0.616-1.368-1.368-1.368h-18.682c-0.753,0-1.368,0.616-1.368,1.368
					v7.966c-2.107,0.671-4.131,1.527-6.056,2.544l-5.305-6.41c-0.48-0.58-1.347-0.662-1.926-0.182l-14.393,11.911
					c-0.58,0.479-0.662,1.346-0.182,1.926l6.497,7.852c0,0,0,0,0,0c-0.556,1.016-1.066,2.06-1.526,3.131h-12.365
					c-0.753,0-1.368,0.616-1.368,1.368v18.682c0,0.752,0.615,1.368,1.368,1.368h9.94c0.645,3.552,1.792,6.929,3.368,10.053
					c0,0,0,0,0,0.001l-7.465,9.02c-0.48,0.58-0.398,1.446,0.182,1.926l14.393,11.911c0.58,0.48,1.447,0.398,1.926-0.182l5.824-7.037
					c2.229,1.272,4.601,2.319,7.087,3.112v9.952c0,0.753,0.616,1.368,1.368,1.368h18.682c0.752,0,1.368-0.616,1.368-1.368v-9.574
					l0,0c2.701-0.756,5.276-1.81,7.691-3.123c0,0,0,0,0,0l5.521,6.671c0.48,0.579,1.346,0.661,1.926,0.182l14.393-11.911
					c0.579-0.48,0.661-1.346,0.181-1.926l-6.872-8.305l0,0c1.767-3.322,3.045-6.944,3.738-10.769h6.669
					c0.752,0,1.368-0.616,1.368-1.368v-18.682C262.426,189.981,261.811,189.365,261.059,189.365z M217.734,222.306
					c-10.06,0-18.215-8.155-18.215-18.216c0-10.06,8.155-18.216,18.215-18.216c10.06,0,18.216,8.156,18.216,18.216
					C235.95,214.151,227.794,222.306,217.734,222.306z"/>
			</g>
			
				<ellipse transform="matrix(0.1913 -0.9815 0.9815 0.1913 -23.5958 379.5827)" style="fill:none;stroke:#000000;stroke-width:1.5329;stroke-linecap:round;stroke-linejoin:round;stroke-miterlimit:10;stroke-dasharray:6.1316;" cx="218.549" cy="204.11" rx="28.258" ry="28.258"/>
		</g>
		<circle style="fill:#9792FB;" cx="217.211" cy="204.272" r="9.522"/>
	</g>
	<g>
		<polygon style="fill:#E9BC46;" points="231.852,427.907 234.16,250.835 350.156,250.835 400.363,334.995 400.363,428.484 		"/>
		
			<polyline style="fill:none;stroke:#000000;stroke-width:1.6707;stroke-linecap:round;stroke-linejoin:round;stroke-miterlimit:10;" points="
			235.891,256.51 343.23,256.51 394.592,338.458 394.592,427.907 		"/>
		
			<path style="fill:none;stroke:#FFFFFF;stroke-width:1.5329;stroke-linecap:round;stroke-linejoin:round;stroke-miterlimit:10;" d="
			M234.16,277.286c0,0,49.63-16.736,60.595,51.938c0,0,72.714-45.59,82.524,99.26"/>
	</g>
	<g>
		<g>
			<path d="M65.104,422.042L35.32,319.925c-3.155-10.818,4.825-21.676,15.932-21.676h162c6.722,0,12.782,4.114,15.353,10.423
				l35.738,87.698c4.565,11.202-3.632,23.494-15.565,23.335C192.275,418.954,60.798,417.666,65.104,422.042z"/>
			
				<path style="fill:none;stroke:#57929D;stroke-width:1.5115;stroke-linecap:round;stroke-linejoin:round;stroke-miterlimit:10;" d="
				M73.382,414.305l-26.99-90.77c-2.859-9.616,4.372-19.267,14.437-19.267h146.802c6.091,0,11.583,3.657,13.913,9.265l32.385,77.954
				c4.136,9.957-3.291,20.884-14.105,20.742C188.622,411.56,69.479,410.416,73.382,414.305z"/>
			<path style="fill:#629CB9;" d="M331.489,427.475H73.383c-4.553,0-8.279-3.725-8.279-8.279v0c0-4.553,3.726-8.279,8.279-8.279
				h258.106c4.553,0,8.279,3.725,8.279,8.279l0,0C339.768,423.749,336.042,427.475,331.489,427.475z"/>
			<path style="fill:#DE5A22;" d="M155.975,387.769L155.975,387.769c-17.395,0-31.628-14.233-31.628-31.628v0
				c0-17.395,14.233-31.628,31.628-31.628l0,0c17.396,0,31.628,14.233,31.628,31.628v0
				C187.603,373.536,173.37,387.769,155.975,387.769z"/>
			<polygon style="fill:#FCF7F2;" points="149.144,369.159 148.922,357.567 148.7,345.974 158.851,351.578 169.001,357.183 
				159.072,363.171 			"/>
			<path style="fill:none;stroke:#000000;stroke-width:0.474;stroke-miterlimit:10;" d="M94.629,422.11H74.571
				c-1.512,0-2.75-1.237-2.75-2.75v-0.491c0-1.512,1.237-2.75,2.749-2.75h20.059c1.512,0,2.75,1.237,2.75,2.75v0.491
				C97.379,420.872,96.142,422.11,94.629,422.11z"/>
			<path style="fill:none;stroke:#000000;stroke-width:0.474;stroke-miterlimit:10;" d="M301.759,421.348h-6.424
				c-1.178,0-2.141-0.964-2.141-2.141l0,0c0-1.178,0.964-2.141,2.141-2.141h6.424c1.178,0,2.141,0.964,2.141,2.141l0,0
				C303.9,420.384,302.937,421.348,301.759,421.348z"/>
			<path style="fill:none;stroke:#000000;stroke-width:0.474;stroke-miterlimit:10;" d="M318.354,420.812h-6.424
				c-1.178,0-2.141-0.964-2.141-2.141l0,0c0-1.178,0.964-2.141,2.141-2.141h6.424c1.178,0,2.141,0.964,2.141,2.141l0,0
				C320.496,419.849,319.532,420.812,318.354,420.812z"/>
		</g>
		
			<path style="fill:none;stroke:#57929D;stroke-width:1.5115;stroke-linecap:round;stroke-linejoin:round;stroke-miterlimit:10;" d="
			M58.18,358.713c0,0,52.999,1.606,57.817-52.999"/>
		
			<path style="fill:none;stroke:#57929D;stroke-width:1.4909;stroke-linecap:round;stroke-linejoin:round;stroke-miterlimit:10;" d="
			M232.215,341.151c-20.7,7.852-8.939,42.398-8.939,42.398l0,0c-13.662-2.73-27.933,4.73-33.031,17.763
			c-1.39,3.554-2.075,7.387-1.919,11.204"/>
	</g>
	<path style="fill:none;stroke:#000000;stroke-width:2.0171;stroke-miterlimit:10;" d="M58.144,428.187
		c136.476-0.37,273.94,1.286,410.892,0.367"/>
	<path style="fill:none;stroke:#E176CB;stroke-width:2.0439;stroke-linecap:round;stroke-linejoin:round;stroke-miterlimit:10;" d="
		M480.578,282.48c0,0,3.462,23.661-24.815,49.053"/>
	<path style="fill:none;stroke:#E176CB;stroke-width:2.0439;stroke-linecap:round;stroke-linejoin:round;stroke-miterlimit:10;" d="
		M135.628,286.049c12.306-2.991,22.274-13.942,24.098-26.474c0.615-4.224-0.366-9.603-4.448-10.85
		c-2.71-0.828-5.747,0.756-7.242,3.163c-1.495,2.407-1.689,5.423-1.284,8.228c1.201,8.324,7.342,15.417,14.867,19.173
		c7.525,3.757,16.256,4.51,24.625,3.677"/>
	<path style="fill:none;stroke:#E9BC46;stroke-width:2.0439;stroke-linecap:round;stroke-linejoin:round;stroke-miterlimit:10;" d="
		M376.703,40.433c16.195,1,30.253,16.013,30.186,32.239c18.776-0.542,36.616,15.044,38.6,33.722"/>
	<path style="fill:none;stroke:#2D201B;stroke-width:1.5329;stroke-linecap:round;stroke-linejoin:round;stroke-miterlimit:10;" d="
		M115.856,261.127c0,3.187-2.584,5.771-5.771,5.771c-3.187,0-5.771-2.584-5.771-5.771c0-3.187,2.584-5.771,5.771-5.771
		C113.272,255.356,115.856,257.94,115.856,261.127z"/>
	<path style="fill:none;stroke:#2D201B;stroke-width:1.5329;stroke-linecap:round;stroke-linejoin:round;stroke-miterlimit:10;" d="
		M126.161,60.437c0,3.187-2.584,5.771-5.771,5.771s-5.771-2.584-5.771-5.771c0-3.187,2.584-5.771,5.771-5.771
		S126.161,57.25,126.161,60.437z"/>
	
		<circle style="fill:none;stroke:#2D201B;stroke-width:1.5329;stroke-linecap:round;stroke-linejoin:round;stroke-miterlimit:10;" cx="296.775" cy="354.905" r="5.771"/>
	<path style="fill:none;stroke:#E9BC46;stroke-width:2.0439;stroke-linecap:round;stroke-linejoin:round;stroke-miterlimit:10;" d="
		M83.316,242.052c-4.678,7.419-6.885,16.121-8.331,24.772c-1.873,11.204-2.576,22.748-0.364,33.89
		c2.212,11.142,7.537,21.908,16.204,29.252"/>
	<path style="fill:#2D201B;" d="M122.781,240.352c0,2.55-2.067,4.617-4.617,4.617c-2.55,0-4.617-2.067-4.617-4.617
		c0-2.55,2.067-4.617,4.617-4.617C120.714,235.735,122.781,237.802,122.781,240.352z"/>
	<path style="fill:#2D201B;" d="M318.415,338.458c0,2.55-2.067,4.617-4.617,4.617c-2.55,0-4.617-2.067-4.617-4.617
		c0-2.55,2.067-4.617,4.617-4.617C316.349,333.841,318.415,335.908,318.415,338.458z"/>
	<path style="fill:#2D201B;" d="M466.728,187.26c0,2.55-2.067,4.617-4.617,4.617c-2.55,0-4.617-2.067-4.617-4.617
		c0-2.55,2.067-4.617,4.617-4.617C464.661,182.643,466.728,184.71,466.728,187.26z"/>
	<path style="fill:#2D201B;" d="M159.715,97.81c0,1.594-1.292,2.885-2.885,2.885s-2.885-1.292-2.885-2.885
		c0-1.594,1.292-2.885,2.885-2.885S159.715,96.217,159.715,97.81z"/>
	
		<ellipse transform="matrix(0.2287 -0.9735 0.9735 0.2287 92.7362 218.0217)" style="fill:none;stroke:#2D201B;stroke-width:1.5329;stroke-linecap:round;stroke-linejoin:round;stroke-miterlimit:10;" cx="183.953" cy="50.489" rx="10.965" ry="10.965"/>
	<path style="fill:#2D201B;" d="M151.636,40.678c0,1.912-1.55,3.462-3.463,3.462c-1.912,0-3.462-1.55-3.462-3.462
		s1.55-3.463,3.462-3.463C150.086,37.215,151.636,38.766,151.636,40.678z"/>
	<g>
		<g>
			<g>
				<g>
					<polygon style="fill:#223D66;stroke:#223D66;stroke-width:0.6146;stroke-miterlimit:10;" points="270.607,251.317 
						420.561,251.317 420.019,147.965 270.066,147.965 					"/>
					<path d="M301.177,195.986c12.512,0.012,25.007-1.743,36.937-5.558c11.489-3.674,22.309-9.27,31.999-16.447
						c9.823-7.276,18.417-16.193,25.675-26.015H270.066v44.644C280.295,194.753,290.715,195.976,301.177,195.986z"/>
					<polygon style="fill:#223D66;stroke:#223D66;stroke-width:0.5374;stroke-miterlimit:10;" points="338.002,101.61 
						475.385,136.073 340.206,170.535 208.7,136.073 					"/>
				</g>
				
					<polyline style="fill:none;stroke:#C59A40;stroke-width:3.1814;stroke-linecap:round;stroke-linejoin:round;stroke-miterlimit:10;" points="
					441.376,245.852 441.376,152.485 359.227,133.065 				"/>
				<circle style="fill:#C59A40;" cx="442.403" cy="208.473" r="8.392"/>
			</g>
			
				<path style="fill:none;stroke:#57929D;stroke-width:2.8195;stroke-linecap:round;stroke-linejoin:round;stroke-miterlimit:10;" d="
				M325.288,105.783c2.932,10.163,0.094,21.374-5.692,30.229c-5.786,8.855-14.251,15.635-23.141,21.365"/>
			
				<path style="fill:none;stroke:#57929D;stroke-width:2.8195;stroke-linecap:round;stroke-linejoin:round;stroke-miterlimit:10;" d="
				M270.214,200.983c14.138,4.415,29.734,27.25,30.311,47.448"/>
			
				<path style="fill:none;stroke:#57929D;stroke-width:2.8195;stroke-linecap:round;stroke-linejoin:round;stroke-miterlimit:10;" d="
				M332.266,247.854c2.885-24.238,17.971-45.705,32.938-53.186c5.159-2.579,12.335-5.661,18.083-3.432
				c3.314,1.286,5.918,3.783,6.537,7.389c0.756,4.405-1.105,8.828-3.734,12.28c-2.01,2.639-6.62,8.005-9.917,4.068
				c-0.464-0.554-0.697-1.266-0.842-1.975c-1.972-9.581,8.172-17.209,13.898-23.241c8.745-9.212,19.456-16.908,30.622-22.914"/>
		</g>
		<g>
			<path style="fill:#DA9F4B;" d="M454.519,250.319c0.99-6.015,1.303-12.142,0.932-18.226c-0.39-6.38-1.951-13.406-7.204-17.049
				c-2.138-1.483-4.945-2.25-7.385-1.344c-2.835,1.052-4.51,4.119-4.841,7.125c-0.331,3.006,0.424,6.011,1.097,8.96
				c2.085,9.143,3.209,19.497-2.104,27.224C440.399,253.321,448.084,251.403,454.519,250.319z"/>
			
				<path style="fill:none;stroke:#DA9F4B;stroke-width:1.2009;stroke-linecap:round;stroke-linejoin:round;stroke-miterlimit:10;" d="
				M452.228,221.623c-1.176-4.933-7.508-8.88-12.399-7.334c-10.923,3.451-4.06,19.291-3.907,26.936
				c0.122,6.07-0.653,12.342-3.672,17.609"/>
			
				<path style="fill:none;stroke:#000000;stroke-width:0.8006;stroke-linecap:round;stroke-linejoin:round;stroke-miterlimit:10;" d="
				M447.011,250.042c3.494-8.194,3.98-17.632,1.344-26.141c-1.166-3.764-3.041-7.49-6.236-9.797
				c7.452,9.628,6.745,24.62,0.686,35.18"/>
		</g>
		<path style="fill:#E9BC46;" d="M364.006,130.704c0,3.187-4.651,5.771-10.388,5.771c-5.737,0-10.388-2.584-10.388-5.771
			c0-3.187,4.651-5.771,10.388-5.771C359.355,124.934,364.006,127.517,364.006,130.704z"/>
	</g>
	<path style="fill:none;stroke:#94DBD2;stroke-width:2.1597;stroke-linecap:round;stroke-linejoin:round;stroke-miterlimit:10;" d="
		M196.045,326.753c15.162-3.873,31.631-0.438,45.175,7.402c13.543,7.84,24.358,19.786,32.795,32.965
		c-4.092-26.452,10.155-53.194,33.531-66.232"/>
</g>
</svg>
