<?xml version="1.0" encoding="utf-8"?>
<!-- Generator: Adobe Illustrator 27.5.0, SVG Export Plug-In . SVG Version: 6.00 Build 0)  -->
<svg version="1.1" id="Capa_1" xmlns="http://www.w3.org/2000/svg" xmlns:xlink="http://www.w3.org/1999/xlink" x="0px" y="0px"
	 viewBox="0 0 2122 2122" style="enable-background:new 0 0 2122 2122;" xml:space="preserve">
<g>
	<g>
		<path style="fill:#E73753;" d="M1995.585,1218.824c-7.113-61.445-20.308-122.026-39.492-180.833
			c-14.448-44.284-31.581-88.737-54.766-129.262c-4.138-7.232-8.584-14.495-13.507-21.376
			c37.312-82.48-17.267-215.19-80.377-345.323c-14.07-33.552-33.49-64.997-53.464-95.564
			c-14.538-22.25-63.619-94.487-76.554-100.564c-5.625-2.502-10.278-3.437-14.161-3.301c-29.706-37.59-61.422-73.712-96.297-106.584
			c-29.037-27.37-60.453-52.904-95.064-72.929c-25.353-14.667-53.127-26.876-82.223-31.505c-23.199-3.689-47.466-2.948-69.489,5.895
			c-13.166,5.289-24.854,12.832-35.073,22.157c-3.884-2.42-7.757-4.214-11.045-5.026c-17.372-4.289-20.829,7.803-34.176,27.569
			c-13.836,20.489-2.258,32.548,7.353,39.945c9.612,7.4,28.515,8.819,37.724-3.142c9.208-11.963,14.796-19.645,19.614-29.25
			c2.631-5.244-0.19-11.88-5.32-17.998c1.536-1.35,3.106-2.657,4.69-3.955c0.439-0.326,0.877-0.656,1.32-0.98
			c1.061-0.774,2.135-1.527,3.224-2.26c4.103-2.761,8.404-5.228,12.864-7.365c1.102-0.527,2.218-1.019,3.332-1.518
			c0.561-0.221,1.119-0.449,1.681-0.669c2.407-0.929,4.85-1.769,7.32-2.517c4.909-1.487,9.926-2.61,14.995-3.386
			c0.078-0.013,0.173-0.02,0.265-0.029c-0.084,0.001-0.131,0.003-0.225,0.004c0.607-0.008,1.244-0.156,1.849-0.224
			c1.401-0.162,2.804-0.295,4.21-0.406c2.708-0.212,5.423-0.33,8.139-0.366c5.677-0.07,11.355,0.237,16.996,0.862
			c0.688,0.076,1.375,0.162,2.062,0.242c0.082,0.01,0.139,0.016,0.209,0.025c0.055,0.007,0.099,0.015,0.167,0.025
			c1.489,0.227,2.976,0.451,4.461,0.705c3.138,0.542,6.26,1.177,9.363,1.89c6.376,1.469,12.671,3.286,18.87,5.379
			c3.38,1.139,6.731,2.363,10.054,3.661c1.564,0.613,3.117,1.245,4.671,1.882c0.012,0.005,0.024,0.01,0.036,0.015
			c-0.2-0.084,0.211,0.083,0.53,0.221c0.203,0.084,0.405,0.17,0.608,0.253c-0.23-0.096-0.406-0.169-0.563-0.234
			c0.035,0.016,0.073,0.032,0.103,0.044c0.985,0.436,1.977,0.857,2.961,1.293c7.005,3.109,13.875,6.518,20.615,10.164
			c15.283,8.267,29.901,17.738,43.95,27.95c1.9,1.38,3.79,2.776,5.67,4.185c0.897,0.673,1.792,1.348,2.684,2.026
			c0.449,0.34,0.898,0.682,1.346,1.025c0.048,0.038,0.639,0.492,1.012,0.781c3.833,2.976,7.628,6.003,11.382,9.078
			c8.073,6.617,15.965,13.452,23.696,20.464c37.179,33.722,70.771,71.312,102.078,110.491c0.721,0.903,1.424,1.823,2.143,2.729
			c-3.934,8.09-3.854,17.828-3.854,17.828s44,57.391,60.882,82.555c21.826,32.527,43.803,65.335,58.667,101.577
			c14.865,36.241,48.238,132.099-46.327,215.737c-94.564,83.638-185.625,38.804-219.78,19.622
			c-34.154-19.181-64.032-45.002-93.65-70.639c-22.91-19.829-74.496-70.511-74.496-70.511s-4.516-0.592-10.089-0.039
			c-16.578-16.734-32.745-33.875-48.278-51.585c-15.79-18.005-30.774-36.323-44.504-54.922
			c-23.137-31.339-44.182-64.643-59.713-100.454c-0.293-0.674-0.58-1.35-0.869-2.027c0.211,0.487-0.686-1.645-0.862-2.072
			c-0.762-1.857-1.508-3.721-2.236-5.591c-1.454-3.737-2.84-7.501-4.146-11.29c-2.393-6.944-4.526-13.976-6.333-21.097
			c-1.696-6.679-3.107-13.434-4.16-20.245c-0.117-0.756-0.225-1.514-0.338-2.27c-0.015-0.1-0.026-0.173-0.038-0.253
			c-0.003-0.03-0.005-0.049-0.009-0.084c-0.191-1.668-0.403-3.333-0.569-5.004c-0.306-3.071-0.532-6.148-0.672-9.229
			c-0.268-5.939-0.212-11.895,0.227-17.823c0.097-1.32,0.215-2.641,0.351-3.956c0.075-0.733,0.157-1.466,0.245-2.197
			c0.014-0.113,0.028-0.227,0.042-0.34c0.48-2.609,0.828-5.239,1.372-7.843c1.087-5.191,2.52-10.313,4.324-15.301
			c0.408-1.129,0.835-2.253,1.281-3.366c0.013-0.033,0.019-0.04,0.031-0.071c-0.046,0.086-0.064,0.13-0.119,0.23
			c0.123-0.223,0.222-0.465,0.325-0.705c-0.06,0.13-0.124,0.27-0.207,0.475c0.403-0.759,0.476-1.022,0.313-0.706
			c0.153-0.372,0.299-0.747,0.461-1.105c1.028-2.283,2.139-4.53,3.331-6.735c2.357-4.359,5.034-8.547,8.003-12.515
			c0.055-0.073,0.111-0.147,0.168-0.22c0.313-0.38,0.613-0.775,0.923-1.155c0.827-1.018,1.674-2.018,2.539-3.001
			c1.641-1.867,3.349-3.673,5.119-5.417c1.152-1.136,2.374-2.197,3.576-3.279c5.438,5.818,11.664,9.409,17.18,7.444
			c10.123-3.608,18.429-8.216,31.427-15.894c12.998-7.68,13.898-26.614,7.729-37.058c-6.17-10.441-16.723-23.407-38.749-12.177
			c-21.249,10.832-33.672,12.787-31.538,30.552c0.4,3.33,1.687,7.346,3.583,11.454c-8.475,7.24-15.954,15.623-22.053,25.065
			c-12.526,19.39-18.199,42.5-18.671,65.421c-0.587,28.474,6.402,56.923,16.557,83.353c13.928,36.252,33.634,70.017,55.878,101.753
			c29.63,42.273,63.688,81.378,99.747,118.257c0.507,0.519,1.027,1.027,1.536,1.544c-3.122,4.516-4.225,11.278-1.137,21.401
			c4.453,13.581,70.152,71.118,90.459,88.266c23.524,19.863,47.71,39.42,73.648,55.896l-0.005,0.001
			c141.855,92.58,297.13,173.265,385.944,109.316c1.105,1.866,2.232,3.72,3.299,5.607c9.507,16.803,17.694,34.328,25.306,52.06
			c0.322,0.774,0.645,1.547,0.963,2.323c1.185,2.882,2.353,5.77,3.505,8.665c2.188,5.507,4.316,11.038,6.385,16.589
			c4.503,12.081,8.733,24.264,12.708,36.529c8.694,26.826,16.179,54.048,22.414,81.549c3.299,14.558,6.244,29.197,8.806,43.901
			c1.332,7.644,2.56,15.309,3.678,22.989c0.098,0.672,0.191,1.344,0.287,2.016c-0.194-1.474,0.077,0.294,0.252,1.64
			c0.041,0.316,0.077,0.634,0.117,0.95c0.021,0.144,0.042,0.287,0.061,0.431c0.14,1.008,0.272,2.018,0.416,3.026
			c-0.152-1.061-0.277-1.943-0.385-2.712c0.448,3.488,0.89,6.977,1.295,10.47c3.542,30.598,5.285,61.43,4.662,92.232
			c-0.308,15.314-1.207,30.616-2.789,45.852c-0.378,3.64-0.796,7.275-1.254,10.905c-0.253,1.756-0.501,3.512-0.77,5.266
			c-1.144,7.463-2.465,14.901-3.981,22.296c-3.001,14.659-6.759,29.164-11.372,43.397c-2.289,7.063-4.788,14.055-7.508,20.96
			c-0.563,1.434-1.145,2.857-1.723,4.282c-1.516,3.451-3.051,6.894-4.669,10.299c-6.353,13.369-13.616,26.31-21.801,38.646
			c-2.012,3.031-4.078,6.027-6.2,8.982c-0.967,1.346-1.946,2.686-2.935,4.016c-0.194,0.261-0.39,0.52-0.585,0.779
			c-4.58,5.725-9.263,11.35-14.226,16.753c-10.422,11.344-21.758,21.844-33.837,31.406c-1.581,1.19-3.172,2.372-4.776,3.533
			c-3.217,2.328-6.48,4.59-9.785,6.793c-7.09,4.724-14.373,9.156-21.814,13.303c-7.396,4.122-14.95,7.962-22.628,11.527
			c-2.149,0.998-4.309,1.976-6.477,2.931c-0.79,0.349-2.203,0.934-3.276,1.375c0.753-0.306,1.815-0.737,3.35-1.358
			c-1.155,0.467-2.31,0.936-3.465,1.405c-1.222,0.501-1.895,0.771-0.537,0.218c-3.138,1.275-6.278,2.544-9.443,3.754
			c-15.912,6.085-32.156,11.316-48.683,15.455c-7.532,1.887-15.122,3.548-22.759,4.959c-3.697,0.683-7.405,1.305-11.122,1.867
			c-0.423,0.064-0.847,0.126-1.27,0.186c-1.403,0.175-2.806,0.355-4.212,0.512c-14.222,1.579-28.553,2.222-42.859,1.784
			c-6.643-0.204-13.278-0.64-19.89-1.318c-1.481-0.151-2.959-0.323-4.437-0.498c-3.011-0.461-6.021-0.928-9.019-1.478
			c-12.517-2.292-24.867-5.5-36.909-9.617c-2.744-0.938-5.473-1.925-8.183-2.955c-1.692-0.645-5.914-2.467-7.275-3.041
			c-4.204-1.905-8.388-3.846-12.496-5.971c-3.418-1.766-6.78-3.639-10.115-5.556c8.661-9.975,16.936-20.28,24.793-30.867
			c36.447-49.117,64.302-106.574,77.831-166.348c12.172-53.783,13.398-111.008-9.408-162.143
			c-10.415-23.351-27.253-42.662-47.692-57.759c-12.75-9.415-27.053-15.981-42.037-20.532c5.94-29.688,9.15-60.122,9.145-91.249
			c-0.026-147.378-107.897-288.626-246.232-339.459c-2.763-1.015-5.547-1.972-8.34-2.9c-0.749-0.25-1.501-0.491-2.252-0.734
			c-2.383-0.771-4.776-1.512-7.178-2.22c-0.459-0.135-0.917-0.28-1.377-0.413c-2.811-0.813-5.635-1.576-8.469-2.304
			c-0.688-0.176-1.378-0.343-2.067-0.514c-2.33-0.581-4.667-1.132-7.011-1.657c-0.653-0.145-1.304-0.297-1.958-0.438
			c-2.87-0.621-5.749-1.203-8.637-1.739c-0.504-0.094-1.009-0.177-1.513-0.267c-2.474-0.448-4.955-0.861-7.44-1.246
			c-0.714-0.111-1.428-0.223-2.143-0.329c-2.947-0.435-5.898-0.84-8.858-1.189c-0.073-0.009-0.147-0.016-0.22-0.024
			c-2.88-0.338-5.767-0.625-8.656-0.882c-0.716-0.064-1.431-0.125-2.146-0.184c-2.718-0.224-5.438-0.418-8.162-0.572
			c-0.261-0.015-0.523-0.035-0.784-0.05c-3.001-0.161-6.007-0.272-9.013-0.35c-0.632-0.015-1.263-0.025-1.896-0.036
			c-2.572-0.052-5.144-0.072-7.716-0.062c-0.507,0.002-1.015-0.003-1.522,0.002c-3.019,0.028-6.039,0.096-9.057,0.207
			c-0.451,0.016-0.902,0.04-1.353,0.059c-2.633,0.108-5.264,0.249-7.895,0.42c-0.599,0.039-1.197,0.074-1.796,0.117
			c-3.051,0.216-6.101,0.464-9.145,0.763c-0.053,0.006-0.107,0.013-0.16,0.018c-2.943,0.292-5.882,0.634-8.817,1.004
			c-0.613,0.078-1.226,0.156-1.839,0.238c-2.979,0.393-5.955,0.814-8.922,1.288c0.027,0,0.056,0.003,0.084,0.003
			c-93.676,14.929-180.547,69.857-220.498,155.584c-62.253-133.583-238.421-192.426-376.756-141.593
			c-68.842,25.297-130.133,72.99-174.349,132.681c-4.569-13.406-4.512-28.681-3.996-41.137c-1.166,16.309-10.135,76.794-79.076,82.7
			c18.879-0.449,37.138,0.206,51.57,8.481c-25.598,48.565-40.372,102.227-40.382,156.733
			c-0.016,86.509,24.722,167.691,64.322,242.249c0,0,0-0.002-0.001-0.002c0.005,0.01,0.011,0.019,0.016,0.029
			c131.797,248.115,428.336,422.769,526.443,475.502c0.042,0.023,0.084,0.045,0.126,0.068c3.622,1.947,6.969,3.725,10.029,5.335
			c0.082,0.043,0.164,0.087,0.245,0.13c3.041,1.6,5.795,3.031,8.238,4.291c0.034,0.017,0.07,0.035,0.104,0.053
			c1.198,0.617,2.317,1.192,3.363,1.725c0.077,0.04,0.151,0.077,0.227,0.116c2.052,1.047,3.8,1.929,5.229,2.644
			c0.079,0.039,0.155,0.077,0.232,0.116c0.663,0.331,1.258,0.627,1.774,0.883c0.088,0.044,0.155,0.077,0.239,0.118
			c0.438,0.217,0.827,0.408,1.146,0.565c0.056,0.029,0.112,0.055,0.165,0.082c0.318,0.156,0.568,0.278,0.745,0.364
			c0.107,0.052,0.133,0.064,0.188,0.092c0.096,0.045,0.158,0.075,0.158,0.075s76.369-36.804,175.625-103.264
			c29.845,15.435,61.856,26.502,95.37,31.69c72.974,11.295,146.44-0.433,212.506-33.349c31.647-15.768,60.567-36.148,86.722-59.688
			c19.771,12.628,41.017,22.948,63.322,30.571c58.236,19.905,121.95,18.532,181.19,3.865
			c69.609-17.234,137.317-51.165,186.433-104.253c44.437-48.031,72.683-108.801,85.898-172.577
			C2002.351,1348.026,2002.989,1282.786,1995.585,1218.824z M1822.701,883.714c-36.729,32.484-117.524,9.598-185.418-19.122
			c32.021-7.631,68.317-25.678,108.684-61.381c42.523-37.61,65.043-73.126,75.941-105.287
			C1844.336,767.826,1859.897,850.816,1822.701,883.714z M1423.699,1622.061c-2.786,2.323-5.604,4.608-8.453,6.855
			c-0.043,0.035-0.065,0.052-0.106,0.083c-1.507,1.144-3.02,2.279-4.543,3.401c-6.413,4.719-12.974,9.239-19.675,13.54
			c-13.156,8.445-26.852,16.052-41.012,22.679c-2.991,1.401-6.014,2.722-9.036,4.052c-0.201,0.082-0.401,0.165-0.603,0.247
			c-1.948,0.789-3.904,1.56-5.867,2.31c-7.56,2.893-15.227,5.505-22.983,7.823c-15.224,4.551-30.578,7.239-46.156,10.063
			c-0.015,0.001-0.03,0.003-0.044,0.005c-1.814,0.211-3.63,0.408-5.448,0.587c-4.455,0.44-8.918,0.781-13.388,1.033
			c-8.958,0.504-17.938,0.653-26.908,0.421c-8.255-0.214-16.503-0.751-24.715-1.625c-1.471-0.156-2.939-0.338-4.408-0.514
			c0.603,0.091,1.256,0.189,2.022,0.305c-0.802-0.122-1.605-0.234-2.408-0.35c-0.41-0.049-0.82-0.094-1.23-0.144
			c-1.839-0.221-4.672-0.732-0.178-0.077c-3.902-0.598-7.794-1.261-11.669-2.014c-15.445-3.001-30.643-7.252-45.405-12.694
			c-0.142-0.053-0.281-0.112-0.423-0.165c69.546-50.396,145.007-113.121,211.113-186.151
			c15.378,37.402,36.361,72.309,62.742,103.156c7.14,8.349,14.742,16.275,22.717,23.79
			C1426.322,1619.805,1425.027,1620.953,1423.699,1622.061z M1484.671,1559.276c-1.273,1.607-2.557,3.205-3.852,4.794
			c-2.378,2.918-4.793,5.805-7.245,8.663c-1.955,2.279-3.954,4.517-5.955,6.755c-8.146-7.623-15.869-15.699-23.121-24.178
			c-1.709-1.998-3.393-4.019-5.051-6.06c-0.85-1.043-1.689-2.098-2.526-3.155c-3.357-4.47-6.639-8.993-9.782-13.616
			c-6.623-9.741-12.734-19.826-18.334-30.187c-2.786-5.158-5.446-10.383-7.977-15.669c-1.234-2.575-2.437-5.165-3.61-7.77
			c-0.633-1.405-1.619-3.729-2.287-5.314c-3.851-9.564-7.43-19.221-10.523-29.064c-0.196-0.622-0.373-1.251-0.565-1.874
			c51.184-64.634,93.524-136.131,118.123-213.316c2.084,0.674,4.159,1.421,6.232,2.178c1.474,0.61,3.23,1.353,4.186,1.828
			c2.559,1.27,5.073,2.633,7.535,4.085c2.015,1.186,3.992,2.436,5.931,3.744c0.891,0.601,1.766,1.225,2.64,1.851
			c3.565,2.978,7.02,6.052,10.234,9.421c1.329,1.395,2.596,2.844,3.853,4.302c-1.823-2.254,0.593,0.461,1.839,2.163
			c0.532,0.666,1.061,1.333,1.609,1.983c-0.508-0.604-0.946-1.126-1.347-1.605c2.918,4.079,5.586,8.333,7.988,12.734
			c1.159,2.124,2.26,4.278,3.301,6.463c0.374,0.785,0.727,1.577,1.086,2.368c3.895,9.907,6.714,20.221,8.619,30.689
			c0.156,0.858,0.29,1.718,0.43,2.577c0.096,0.828,0.783,5.77,0.963,7.766c0.532,5.908,0.818,11.839,0.887,17.771
			c0.14,12.132-0.693,24.226-2.125,36.265c-0.193,1.298-0.385,2.597-0.594,3.894c-0.51,3.177-1.069,6.347-1.673,9.509
			c-1.29,6.748-2.788,13.455-4.472,20.116c-3.419,13.515-7.608,26.831-12.452,39.903c-1.216,3.281-2.473,6.544-3.77,9.791
			c-0.239,0.597-0.484,1.191-0.725,1.787c0.645-1.528-0.288,0.832-0.883,2.2c-0.034,0.077-0.069,0.152-0.103,0.229
			c-0.032,0.078-0.063,0.157-0.095,0.234c-0.366,0.89-0.747,1.777-1.111,2.668c0.381-0.934,0.694-1.701,0.973-2.38
			c-2.888,6.601-5.88,13.149-9.066,19.611c-13.117,26.618-28.92,51.742-46.823,75.385
			C1484.901,1558.983,1484.777,1559.142,1484.671,1559.276z M1486.866,1556.442
			C1487.797,1555.224,1487.526,1555.582,1486.866,1556.442L1486.866,1556.442z"/>
		<path style="fill:#E73753;" d="M1429.821,162.75c0.079,0.033,0.252,0.106,0.576,0.24c-0.015-0.006-0.029-0.012-0.045-0.02
			C1430.175,162.896,1429.998,162.824,1429.821,162.75z"/>
		<path style="fill:#E73753;" d="M1348.958,149.055C1351.408,149.017,1349.935,148.958,1348.958,149.055L1348.958,149.055z"/>
	</g>
	<g>
		<path style="fill:#094867;" d="M1995.585,1218.824c-7.113-61.445-20.308-122.026-39.492-180.833
			c-14.448-44.284-31.581-88.737-54.766-129.262c-4.138-7.232-8.584-14.495-13.507-21.376
			c37.312-82.48-17.267-215.19-80.377-345.323c-14.07-33.552-33.49-64.997-53.464-95.564
			c-14.538-22.25-63.619-94.487-76.554-100.564c-5.625-2.502-10.278-3.437-14.161-3.301c-29.706-37.59-61.422-73.712-96.297-106.584
			c-29.037-27.37-60.453-52.904-95.064-72.929c-25.353-14.667-53.127-26.876-82.223-31.505c-23.199-3.689-47.466-2.948-69.489,5.895
			c-13.166,5.289-24.854,12.832-35.073,22.157c-3.884-2.42-7.757-4.214-11.045-5.026c-17.372-4.289-20.829,7.803-34.176,27.569
			c-13.836,20.489-2.258,32.548,7.353,39.945c9.612,7.4,28.515,8.819,37.724-3.142c9.208-11.963,14.796-19.645,19.614-29.25
			c2.631-5.244-0.19-11.88-5.32-17.998c1.536-1.35,3.106-2.657,4.69-3.955c0.439-0.326,0.877-0.656,1.32-0.98
			c1.061-0.774,2.135-1.527,3.224-2.26c4.103-2.761,8.404-5.228,12.864-7.365c1.102-0.527,2.218-1.019,3.332-1.518
			c0.561-0.221,1.119-0.449,1.681-0.669c2.407-0.929,4.85-1.769,7.32-2.517c4.909-1.487,9.926-2.61,14.995-3.386
			c0.078-0.013,0.173-0.02,0.265-0.029c-0.084,0.001-0.131,0.003-0.225,0.004c0.607-0.008,1.244-0.156,1.849-0.224
			c1.401-0.162,2.804-0.295,4.21-0.406c2.708-0.212,5.423-0.33,8.139-0.366c5.677-0.07,11.355,0.237,16.996,0.862
			c0.688,0.076,1.375,0.162,2.062,0.242c0.082,0.01,0.139,0.016,0.209,0.025c0.055,0.007,0.099,0.015,0.167,0.025
			c1.489,0.227,2.976,0.451,4.461,0.705c3.138,0.542,6.26,1.177,9.363,1.89c6.376,1.469,12.671,3.286,18.87,5.379
			c3.38,1.139,6.731,2.363,10.054,3.661c1.564,0.613,3.117,1.245,4.671,1.882c0.012,0.005,0.024,0.01,0.036,0.015
			c-0.2-0.084,0.211,0.083,0.53,0.221c0.203,0.084,0.405,0.17,0.608,0.253c-0.23-0.096-0.406-0.169-0.563-0.234
			c0.035,0.016,0.073,0.032,0.103,0.044c0.985,0.436,1.977,0.857,2.961,1.293c7.005,3.109,13.875,6.518,20.615,10.164
			c15.283,8.267,29.901,17.738,43.95,27.95c1.9,1.38,3.79,2.776,5.67,4.185c0.897,0.673,1.792,1.348,2.684,2.026
			c0.449,0.34,0.898,0.682,1.346,1.025c0.048,0.038,0.639,0.492,1.012,0.781c3.833,2.976,7.628,6.003,11.382,9.078
			c8.073,6.617,15.965,13.452,23.696,20.464c37.179,33.722,70.771,71.312,102.078,110.491c0.721,0.903,1.424,1.823,2.143,2.729
			c-3.934,8.09-3.854,17.828-3.854,17.828s44,57.391,60.882,82.555c21.826,32.527,43.803,65.335,58.667,101.577
			c14.865,36.241,48.238,132.099-46.327,215.737c-94.564,83.638-185.625,38.804-219.78,19.622
			c-34.154-19.181-64.032-45.002-93.65-70.639c-22.91-19.829-74.496-70.511-74.496-70.511s-4.516-0.592-10.089-0.039
			c-16.578-16.734-32.745-33.875-48.278-51.585c-15.79-18.005-30.774-36.323-44.504-54.922
			c-23.137-31.339-44.182-64.643-59.713-100.454c-0.293-0.674-0.58-1.35-0.869-2.027c0.211,0.487-0.686-1.645-0.862-2.072
			c-0.762-1.857-1.508-3.721-2.236-5.591c-1.454-3.737-2.84-7.501-4.146-11.29c-2.393-6.944-4.526-13.976-6.333-21.097
			c-1.696-6.679-3.107-13.434-4.16-20.245c-0.117-0.756-0.225-1.514-0.338-2.27c-0.015-0.1-0.026-0.173-0.038-0.253
			c-0.003-0.03-0.005-0.049-0.009-0.084c-0.191-1.668-0.403-3.333-0.569-5.004c-0.306-3.071-0.532-6.148-0.672-9.229
			c-0.268-5.939-0.212-11.895,0.227-17.823c0.097-1.32,0.215-2.641,0.351-3.956c0.075-0.733,0.157-1.466,0.245-2.197
			c0.014-0.113,0.028-0.227,0.042-0.34c0.48-2.609,0.828-5.239,1.372-7.843c1.087-5.191,2.52-10.313,4.324-15.301
			c0.408-1.129,0.835-2.253,1.281-3.366c0.013-0.033,0.019-0.04,0.031-0.071c-0.046,0.086-0.064,0.13-0.119,0.23
			c0.123-0.223,0.222-0.465,0.325-0.705c-0.06,0.13-0.124,0.27-0.207,0.475c0.403-0.759,0.476-1.022,0.313-0.706
			c0.153-0.372,0.299-0.747,0.461-1.105c1.028-2.283,2.139-4.53,3.331-6.735c2.357-4.359,5.034-8.547,8.003-12.515
			c0.055-0.073,0.111-0.147,0.168-0.22c0.313-0.38,0.613-0.775,0.923-1.155c0.827-1.018,1.674-2.018,2.539-3.001
			c1.641-1.867,3.349-3.673,5.119-5.417c1.152-1.136,2.374-2.197,3.576-3.279c5.438,5.818,11.664,9.409,17.18,7.444
			c10.123-3.608,18.429-8.216,31.427-15.894c12.998-7.68,13.898-26.614,7.729-37.058c-6.17-10.441-16.723-23.407-38.749-12.177
			c-21.249,10.832-33.672,12.787-31.538,30.552c0.4,3.33,1.687,7.346,3.583,11.454c-8.475,7.24-15.954,15.623-22.053,25.065
			c-12.526,19.39-18.199,42.5-18.671,65.421c-0.587,28.474,6.402,56.923,16.557,83.353c13.928,36.252,33.634,70.017,55.878,101.753
			c29.63,42.273,63.688,81.378,99.747,118.257c0.507,0.519,1.027,1.027,1.536,1.544c-3.122,4.516-4.225,11.278-1.137,21.401
			c4.453,13.581,70.152,71.118,90.459,88.266c23.524,19.863,47.71,39.42,73.648,55.896l-0.005,0.001
			c141.855,92.58,297.13,173.265,385.944,109.316c1.105,1.866,2.232,3.72,3.299,5.607c9.507,16.803,17.694,34.328,25.306,52.06
			c0.322,0.774,0.645,1.547,0.963,2.323c1.185,2.882,2.353,5.77,3.505,8.665c2.188,5.507,4.316,11.038,6.385,16.589
			c4.503,12.081,8.733,24.264,12.708,36.529c8.694,26.826,16.179,54.048,22.414,81.549c3.299,14.558,6.244,29.197,8.806,43.901
			c1.332,7.644,2.56,15.309,3.678,22.989c0.098,0.672,0.191,1.344,0.287,2.016c-0.194-1.474,0.077,0.294,0.252,1.64
			c0.041,0.316,0.077,0.634,0.117,0.95c0.021,0.144,0.042,0.287,0.061,0.431c0.14,1.008,0.272,2.018,0.416,3.026
			c-0.152-1.061-0.277-1.943-0.385-2.712c0.448,3.488,0.89,6.977,1.295,10.47c3.542,30.598,5.285,61.43,4.662,92.232
			c-0.308,15.314-1.207,30.616-2.789,45.852c-0.378,3.64-0.796,7.275-1.254,10.905c-0.253,1.756-0.501,3.512-0.77,5.266
			c-1.144,7.463-2.465,14.901-3.981,22.296c-3.001,14.659-6.759,29.164-11.372,43.397c-2.289,7.063-4.788,14.055-7.508,20.96
			c-0.563,1.434-1.145,2.857-1.723,4.282c-1.516,3.451-3.051,6.894-4.669,10.299c-6.353,13.369-13.616,26.31-21.801,38.646
			c-2.012,3.031-4.078,6.027-6.2,8.982c-0.967,1.346-1.946,2.686-2.935,4.016c-0.194,0.261-0.39,0.52-0.585,0.779
			c-4.58,5.725-9.263,11.35-14.226,16.753c-10.422,11.344-21.758,21.844-33.837,31.406c-1.581,1.19-3.172,2.372-4.776,3.533
			c-3.217,2.328-6.48,4.59-9.785,6.793c-7.09,4.724-14.373,9.156-21.814,13.303c-7.396,4.122-14.95,7.962-22.628,11.527
			c-2.149,0.998-4.309,1.976-6.477,2.931c-0.79,0.349-2.203,0.934-3.276,1.375c0.753-0.306,1.815-0.737,3.35-1.358
			c-1.155,0.467-2.31,0.936-3.465,1.405c-1.222,0.501-1.895,0.771-0.537,0.218c-3.138,1.275-6.278,2.544-9.443,3.754
			c-15.912,6.085-32.156,11.316-48.683,15.455c-7.532,1.887-15.122,3.548-22.759,4.959c-3.697,0.683-7.405,1.305-11.122,1.867
			c-0.423,0.064-0.847,0.126-1.27,0.186c-1.403,0.175-2.806,0.355-4.212,0.512c-14.222,1.579-28.553,2.222-42.859,1.784
			c-6.643-0.204-13.278-0.64-19.89-1.318c-1.481-0.151-2.959-0.323-4.437-0.498c-3.011-0.461-6.021-0.928-9.019-1.478
			c-12.517-2.292-24.867-5.5-36.909-9.617c-2.744-0.938-5.473-1.925-8.183-2.955c-1.692-0.645-5.914-2.467-7.275-3.041
			c-4.204-1.905-8.388-3.846-12.496-5.971c-3.418-1.766-6.78-3.639-10.115-5.556c8.661-9.975,16.936-20.28,24.793-30.867
			c36.447-49.117,64.302-106.574,77.831-166.348c12.172-53.783,13.398-111.008-9.408-162.143
			c-10.415-23.351-27.253-42.662-47.692-57.759c-12.75-9.415-27.053-15.981-42.037-20.532c-11.406-3.463-23.204-5.761-35.015-7.244
			c-27.332-3.434-55.117,0.043-79.672,11.087c-14.052,6.32-27.056,15.097-38.288,26.531
			c-30.685,31.235-43.842,74.212-48.364,116.767c-1.17,11.004-1.645,22.121-1.525,33.266c0.378,35.195,6.83,70.685,17.266,103.895
			c3.448,10.974,7.383,21.771,11.743,32.377c15.378,37.402,36.361,72.309,62.742,103.156c7.14,8.349,14.742,16.275,22.717,23.79
			c-1.314,1.125-2.608,2.273-3.936,3.382c-2.786,2.323-5.604,4.608-8.453,6.855c-0.043,0.035-0.065,0.052-0.106,0.083
			c-1.507,1.144-3.02,2.279-4.543,3.401c-6.413,4.719-12.974,9.239-19.675,13.54c-13.156,8.445-26.852,16.052-41.012,22.679
			c-2.991,1.401-6.014,2.722-9.036,4.052c-0.201,0.082-0.401,0.165-0.603,0.247c-1.948,0.789-3.904,1.56-5.867,2.31
			c-7.56,2.893-15.227,5.505-22.983,7.823c-15.224,4.551-30.578,7.239-46.156,10.063c-0.015,0.001-0.03,0.003-0.044,0.005
			c-1.814,0.211-3.63,0.408-5.448,0.587c-4.455,0.44-8.918,0.781-13.388,1.033c-8.958,0.504-17.938,0.653-26.908,0.421
			c-8.255-0.214-16.503-0.751-24.715-1.625c-1.471-0.156-2.939-0.338-4.408-0.514c0.603,0.091,1.256,0.189,2.022,0.305
			c-0.802-0.122-1.605-0.234-2.408-0.35c-0.41-0.049-0.82-0.094-1.23-0.144c-1.839-0.221-4.672-0.732-0.178-0.077
			c-3.902-0.598-7.794-1.261-11.669-2.014c-15.445-3.001-30.643-7.252-45.405-12.694c-0.142-0.053-0.281-0.112-0.423-0.165
			c-2.801-1.04-5.583-2.132-8.352-3.253c0.502,0.227,1.049,0.475,1.67,0.757c-0.822-0.373-1.657-0.717-2.486-1.075
			c-0.144-0.059-0.292-0.111-0.436-0.17c-1.056-0.433-2.606-1.161-2.672-1.225c-0.921-0.415-1.847-0.822-2.764-1.246
			c-6.865-3.18-13.609-6.616-20.222-10.29c-13.084-7.272-25.644-15.473-37.631-24.435c-0.333-0.25-0.774-0.59-1.235-0.951
			c0.509,0.408,1.073,0.861,1.768,1.417c-1.289-1.036-2.605-2.036-3.896-3.069c-3.03-2.419-6.019-4.888-8.972-7.399
			c-0.065-0.054-0.133-0.107-0.198-0.163c-5.518-4.702-10.902-9.559-16.153-14.558c-10.693-10.177-20.833-20.93-30.452-32.125
			c-3.964-4.615-7.816-9.322-11.606-14.081c-0.819-1.027-1.654-2.042-2.465-3.075c-0.968-1.28-1.944-2.555-2.904-3.84
			c-2.128-2.845-4.228-5.712-6.3-8.597c-14.332-19.963-27.343-40.859-39.223-62.367c-1.778-3.22-3.534-6.451-5.262-9.698
			c-6.23-11.701-12.137-23.576-17.743-35.587c-2.728-5.846-5.385-11.724-7.972-17.63c-1.055-2.411-2.092-4.829-3.127-7.249
			c-0.437-1.047-0.872-2.095-1.306-3.145c-3.38-8.211-6.644-16.477-9.783-24.793c-0.758-2.009-1.488-4.03-2.231-6.046
			c-6.155-16.684-11.79-33.567-16.824-50.617c-2.834,1.738-5.746,3.329-8.719,4.732c-16.01,7.559-32.546,7.833-47.451,3.056
			c3.245,11.273,6.841,22.456,10.545,33.536c2.499,7.474,5.126,14.915,7.815,22.334c0.782,2.162,1.583,4.318,2.383,6.473
			c13.248,35.726,28.751,70.705,46.713,104.258c1.095,2.047,2.153,4.116,3.267,6.152c15.136,27.66,32.23,54.647,51.474,79.936
			c17.271,22.697,36.287,44.011,57.228,63.183c0.537,0.492,1.06,1.001,1.601,1.49c24.385,22.093,51.492,41.359,80.67,56.45
			c29.845,15.435,61.856,26.502,95.37,31.69c72.974,11.295,146.44-0.433,212.506-33.349c31.647-15.768,60.567-36.148,86.722-59.688
			c19.771,12.628,41.017,22.948,63.322,30.571c58.236,19.905,121.95,18.532,181.19,3.865
			c69.609-17.234,137.317-51.165,186.433-104.253c44.437-48.031,72.683-108.801,85.898-172.577
			C2002.351,1348.026,2002.989,1282.786,1995.585,1218.824z M1822.701,883.714c-36.729,32.484-117.524,9.598-185.418-19.122
			c32.021-7.631,68.317-25.678,108.684-61.381c42.523-37.61,65.043-73.126,75.941-105.287
			C1844.336,767.826,1859.897,850.816,1822.701,883.714z M982.981,1560.404c-0.059-0.084,0.151,0.188,0.479,0.615
			C983.302,1560.812,983.131,1560.615,982.981,1560.404z M1484.671,1559.276c-1.273,1.607-2.557,3.205-3.852,4.794
			c-2.378,2.918-4.793,5.805-7.245,8.663c-1.955,2.279-3.954,4.517-5.955,6.755c-8.146-7.623-15.869-15.699-23.121-24.178
			c-1.709-1.998-3.393-4.019-5.051-6.06c-0.85-1.043-1.689-2.098-2.526-3.155c-3.357-4.47-6.639-8.993-9.782-13.616
			c-6.623-9.741-12.734-19.826-18.334-30.187c-2.786-5.158-5.446-10.383-7.977-15.669c-1.234-2.575-2.437-5.165-3.61-7.77
			c-0.633-1.405-1.619-3.729-2.287-5.314c-3.851-9.564-7.43-19.221-10.523-29.064c-0.196-0.622-0.373-1.251-0.565-1.874
			c-3.146-10.201-5.868-20.53-8.108-30.966c-1.191-5.551-2.25-11.129-3.172-16.73c-0.358-2.181-0.679-4.365-0.998-6.548
			c-0.106-0.869-0.216-1.738-0.315-2.609c-2.354-20.641-2.807-41.558-0.72-62.241c0.067-0.669,0.156-1.336,0.232-2.003
			c0.207-1.611,0.594-4.596,0.839-6.05c0.769-4.578,1.679-9.131,2.744-13.651c2.042-8.67,4.662-17.212,7.948-25.494
			c0.041-0.09,0.08-0.184,0.122-0.274c0.95-2.096,1.946-4.172,2.992-6.221c1.88-3.684,3.918-7.287,6.125-10.784
			c1.084-1.716,2.207-3.409,3.371-5.072c0.301-0.429,0.61-0.852,0.916-1.278c2.183-2.639,4.413-5.228,6.817-7.675
			c2.582-2.628,5.324-5.071,8.15-7.427c0.063-0.045,0.125-0.092,0.188-0.137c1.673-1.184,3.383-2.316,5.126-3.394
			c3.321-2.053,6.773-3.893,10.314-5.539c-0.843,0.334-1.837,0.724-3.051,1.198c0.94-0.368,1.869-0.763,2.811-1.124
			c0.099-0.038,0.201-0.067,0.3-0.105c0.192-0.088,0.376-0.193,0.568-0.281c2.099-0.957,5.808-2.241-0.439,0.237
			c1.855-0.702,3.727-1.361,5.62-1.955c4.195-1.313,8.472-2.358,12.795-3.152c0.544-0.101,1.089-0.189,1.635-0.28
			c1.548-0.161,3.097-0.314,4.653-0.418c4.88-0.323,9.778-0.363,14.665-0.161c2.435,0.101,4.866,0.267,7.293,0.476
			c1.467,0.129,2.932,0.281,4.395,0.444c8.324,1.363,16.371,3.331,24.306,5.896c2.084,0.674,4.159,1.421,6.232,2.178
			c1.474,0.61,3.23,1.353,4.186,1.828c2.559,1.27,5.073,2.633,7.535,4.085c2.015,1.186,3.992,2.436,5.931,3.744
			c0.891,0.601,1.766,1.225,2.64,1.851c3.565,2.978,7.02,6.052,10.234,9.421c1.329,1.395,2.596,2.844,3.853,4.302
			c-1.823-2.254,0.593,0.461,1.839,2.163c0.532,0.666,1.061,1.333,1.609,1.983c-0.508-0.604-0.946-1.126-1.347-1.605
			c2.918,4.079,5.586,8.333,7.988,12.734c1.159,2.124,2.26,4.278,3.301,6.463c0.374,0.785,0.727,1.577,1.086,2.368
			c3.895,9.907,6.714,20.221,8.619,30.689c0.156,0.858,0.29,1.718,0.43,2.577c0.096,0.828,0.783,5.77,0.963,7.766
			c0.532,5.908,0.818,11.839,0.887,17.771c0.14,12.132-0.693,24.226-2.125,36.265c-0.193,1.298-0.385,2.597-0.594,3.894
			c-0.51,3.177-1.069,6.347-1.673,9.509c-1.29,6.748-2.788,13.455-4.472,20.116c-3.419,13.515-7.608,26.831-12.452,39.903
			c-1.216,3.281-2.473,6.544-3.77,9.791c-0.239,0.597-0.484,1.191-0.725,1.787c0.645-1.528-0.288,0.832-0.883,2.2
			c-0.034,0.077-0.069,0.152-0.103,0.229c-0.032,0.078-0.063,0.157-0.095,0.234c-0.366,0.89-0.747,1.777-1.111,2.668
			c0.381-0.934,0.694-1.701,0.973-2.38c-2.888,6.601-5.88,13.149-9.066,19.611c-13.117,26.618-28.92,51.742-46.823,75.385
			C1484.901,1558.983,1484.777,1559.142,1484.671,1559.276z M1486.866,1556.442
			C1487.797,1555.224,1487.526,1555.582,1486.866,1556.442L1486.866,1556.442z"/>
	</g>
	<g>
		<path style="fill:#504842;" d="M1348.958,149.055C1351.408,149.017,1349.935,148.958,1348.958,149.055L1348.958,149.055z"/>
	</g>
	<path style="fill:#E73753;" d="M328.385,779.227c0,0,73.046-19.22,82.076-65.769c3.065-15.8-5.56-33.19-19.332-41.518
		c-13.773-8.33-33.883-5.689-43.338,7.337c-3.893-15.616-21.555-25.591-37.444-23.021c-15.888,2.57-30.392,15.468-33.463,31.268
		C267.838,734.071,328.385,779.227,328.385,779.227z"/>
	<path style="fill:#E73753;" d="M1122.038,1921.305c0,0,73.046-19.22,82.076-65.769c3.064-15.8-5.56-33.188-19.333-41.518
		c-13.772-8.33-33.883-5.686-43.338,7.337c-3.893-15.616-21.555-25.591-37.444-23.021c-15.888,2.57-30.393,15.468-33.464,31.268
		C1061.491,1876.149,1122.038,1921.305,1122.038,1921.305z"/>
	<path style="fill:#E73753;" d="M1602.67,1114.483c-17.235,26.131-34.058,12.835-44.115,3.653
		c5.084,4.928,22.659,24.758,5.41,49.276c10.331-12.916,21.444-23.755,43.86-8.637
		C1582.976,1139.727,1596.146,1129.578,1602.67,1114.483z"/>
	<path style="fill:#E73753;" d="M1280.17,1942.643c-24.847-19.048-11.678-29.199-5.155-44.292
		c-17.234,26.13-34.057,12.836-44.114,3.655c5.085,4.93,22.656,24.755,5.408,49.275
		C1246.641,1938.362,1257.755,1927.523,1280.17,1942.643z"/>
	<path style="fill:#E73753;" d="M1086.424,1986.086c-16.519-12.664-7.763-19.411-3.427-29.447
		c-11.456,17.37-22.638,8.538-29.325,2.434c3.385,3.282,15.056,16.459,3.592,32.755
		C1064.133,1983.241,1071.522,1976.035,1086.424,1986.086z"/>
	<path style="fill:#E73753;" d="M1674.011,1110.825c-1.267-3.389,8.652-39.923,8.652-39.923s-12.223,35.334-15.899,37.229
		c-2.903,1.497-43.491-14.067-43.491-14.067s40.022,19.262,40.799,22.238c0.972,3.729-15.779,41.762-15.779,41.762
		s18.82-38.131,21.714-39.316c4.228-1.728,30.085,10.068,36.782,13.186C1700.361,1128.887,1676.385,1117.168,1674.011,1110.825z"/>
	<path style="fill:#E73753;" d="M1633.093,1179.035c-4.588-2.63-13.506-19.892-13.506-19.892s5.208,18.063,2.84,23.624
		c-1.871,4.391-23.268,13.19-23.268,13.19s24.214-4.107,27.863-1.484c4.574,3.288,11.839,23.472,11.839,23.472
		s-5.027-22.223-2.877-26.256c3.133-5.872,17.871-10.555,21.762-11.704C1654.233,1180.947,1641.578,1183.899,1633.093,1179.035z"/>
	<path style="fill:#E73753;" d="M973.111,1885.499c4.227-1.729,30.085,10.068,36.782,13.186
		c-6.429-3.047-30.405-14.767-32.778-21.11c-1.267-3.389,8.651-39.923,8.651-39.923s-12.223,35.335-15.898,37.23
		c-2.903,1.497-43.491-14.067-43.491-14.067s40.022,19.262,40.799,22.238c0.973,3.729-15.779,41.762-15.779,41.762
		S970.217,1886.683,973.111,1885.499z"/>
	<path style="fill:#E73753;" d="M248.039,833.64c0.973,3.729-15.779,41.762-15.779,41.762s18.82-38.132,21.714-39.313
		c4.228-1.731,30.092,10.069,36.785,13.185c-6.425-3.046-30.408-14.767-32.781-21.112c-1.267-3.389,8.652-39.923,8.652-39.923
		s-12.222,35.334-15.898,37.229c-2.904,1.497-43.491-14.067-43.491-14.067S247.263,830.665,248.039,833.64z"/>
	<path style="fill:#DE2F4E;" d="M460.157,1451.185c29.837,28.265,60.165,56.224,91.75,82.529
		c35.193,29.31,72.11,56.552,110.373,81.718c35.559,23.387,72.285,46.615,111.472,63.463c18.644,8.015,38.118,14.533,58.264,17.408
		c17.81,2.542,35.922,1.668,53.679-0.912c37.115-5.394,72.68-19.028,105.852-36.214c1.342-0.695,2.659-1.434,3.995-2.14
		c-20.941-19.172-39.957-40.486-57.228-63.183c-33.085,15.37-68.028,24.307-104.508,21.525
		c-35.288-2.691-68.834-16.362-100.301-32.558c-132.569-68.24-236.797-182.63-315.996-308.959
		c-55.219-88.079-99.603-191.614-73.531-297.084c0.665-2.689,1.37-5.363,2.11-8.022c-4.751-22.082-14.239-34.651-26.507-41.684
		c-25.598,48.565-40.372,102.227-40.382,156.733c-0.016,86.509,24.722,167.691,64.322,242.249
		c10.064,12.784,20.505,25.247,31.192,37.397C401.69,1394.117,430.516,1423.107,460.157,1451.185z"/>
	<path style="fill:#DE2F4E;" d="M373.319,903.231c28.735-50.892,72.044-93.138,123.377-122.384
		c36.794-20.96,76.281-34.659,118.819-36.501c40.386-1.749,80.954,6.309,118.13,21.999c33.838,14.284,65.008,34.977,91.158,60.78
		c26.535,26.186,38.569,59.898,63.838,86.686c2.86,3.031,6.072,6.097,10.152,6.949c6.835,1.426,13.113-3.714,18.317-8.367
		c45.659-40.843,101.394-72.239,162.021-81.017c60.628-8.778,126.223,7.158,170.493,49.5c99.814,95.467,80.6,262.647,25.587,374.962
		c-1.181,2.411-2.38,4.812-3.596,7.201c-51.986,102.146-135.841,184.844-224.322,257.927
		c-18.967,15.667-38.958,31.211-59.867,45.054c3.79,4.758,7.642,9.466,11.606,14.081c9.619,11.194,19.759,21.948,30.452,32.125
		c5.251,4.999,10.635,9.856,16.153,14.558c0.065,0.055,0.132,0.108,0.198,0.163c47.111-31.458,90.203-69.343,130.059-109.145
		c50.16-50.089,97.204-103.776,137.272-162.339c-0.12-11.146,0.355-22.262,1.525-33.266c4.522-42.555,17.679-85.532,48.364-116.767
		c11.232-11.434,24.236-20.211,38.288-26.531c7.314-23.995,12.809-48.525,16.021-73.509c9.696-75.429-3.308-152.312-40.05-219.131
		c-33.803-61.473-87.176-111.892-153.157-137.012c-32.003-12.185-66.987-18.071-101.556-18.892c2.967-0.473,5.942-0.894,8.922-1.288
		c-97.016,12.798-188.13,68.456-229.336,156.875c-62.253-133.583-238.421-192.426-376.756-141.593
		c-68.842,25.297-130.133,72.99-174.349,132.681C354.757,887.808,361.445,897.354,373.319,903.231z"/>
	<path style="fill:#CD2346;" d="M995.542,1657.037c-1.335,0.706-2.653,1.445-3.995,2.14c-33.172,17.186-68.736,30.82-105.852,36.214
		c-17.757,2.58-35.868,3.454-53.679,0.912c-20.146-2.875-39.62-9.393-58.264-17.408c-39.187-16.848-75.914-40.076-111.472-63.463
		c-38.263-25.166-75.18-52.408-110.373-81.718c-31.585-26.305-61.913-54.264-91.75-82.529
		c-29.642-28.078-58.467-57.068-85.443-87.735c-10.686-12.149-21.128-24.612-31.192-37.397c0,0,0-0.002-0.001-0.002
		c0.005,0.01,0.011,0.019,0.016,0.029c131.789,248.1,428.321,422.755,526.443,475.502c0.042,0.023,0.084,0.045,0.126,0.068
		c3.622,1.947,6.969,3.725,10.029,5.335c0.082,0.043,0.164,0.087,0.245,0.13c3.041,1.6,5.795,3.031,8.238,4.291
		c0.034,0.017,0.07,0.035,0.104,0.053c1.198,0.617,2.317,1.192,3.363,1.725c0.077,0.04,0.151,0.077,0.227,0.116
		c2.052,1.047,3.799,1.928,5.229,2.644c0.079,0.039,0.155,0.077,0.232,0.116c0.663,0.331,1.258,0.627,1.774,0.883
		c0.088,0.044,0.155,0.077,0.239,0.118c0.438,0.217,0.827,0.408,1.146,0.565c0.056,0.029,0.112,0.055,0.165,0.082
		c0.318,0.156,0.568,0.278,0.745,0.364c0.107,0.052,0.133,0.064,0.188,0.092c0.057,0.026,0.158,0.075,0.158,0.075
		s76.369-36.804,175.625-103.264c-29.178-15.091-56.285-34.357-80.67-56.45C996.602,1658.038,996.079,1657.529,995.542,1657.037z"/>
	<path style="fill:#CD2346;" d="M1045.836,1626.945c2.953,2.51,5.942,4.979,8.972,7.399c1.291,1.033,2.607,2.033,3.896,3.069
		c-0.695-0.557-1.259-1.009-1.768-1.417c-2.083-1.629-4.594-3.678,0,0c0.461,0.362,0.902,0.702,1.235,0.951
		c11.987,8.962,24.547,17.163,37.631,24.435c6.613,3.673,13.358,7.11,20.222,10.29c0.917,0.425,1.843,0.832,2.764,1.246
		c-0.054-0.052,0.892,0.344,3.923,1.713c2.769,1.121,5.55,2.213,8.352,3.253c69.546-50.396,145.007-113.121,211.113-186.151
		c-4.36-10.606-8.295-21.403-11.743-32.377c-10.436-33.21-16.888-68.7-17.266-103.895c-40.068,58.563-87.112,112.25-137.272,162.339
		C1136.039,1557.602,1092.948,1595.487,1045.836,1626.945z"/>
	<path style="fill:#CD2346;" d="M1224.157,749.244c65.981,25.12,119.354,75.539,153.157,137.012
		c36.742,66.82,49.746,143.702,40.05,219.131c-3.212,24.984-8.707,49.514-16.021,73.509c24.555-11.044,52.34-14.521,79.672-11.087
		c11.811,1.483,23.609,3.781,35.015,7.244c5.94-29.688,9.15-60.122,9.145-91.249c-0.026-147.378-107.897-288.626-246.232-339.459
		c-2.763-1.015-5.547-1.972-8.34-2.9c-0.749-0.25-1.501-0.491-2.252-0.734c-2.383-0.771-4.776-1.512-7.178-2.22
		c-0.459-0.135-0.917-0.28-1.377-0.413c-2.811-0.813-5.635-1.576-8.469-2.304c-0.688-0.176-1.378-0.343-2.067-0.514
		c-2.33-0.581-4.667-1.132-7.011-1.657c-0.653-0.145-1.304-0.297-1.958-0.438c-2.87-0.621-5.749-1.203-8.637-1.739
		c-0.504-0.094-1.009-0.177-1.513-0.267c-2.474-0.448-4.955-0.861-7.44-1.246c-0.714-0.111-1.428-0.223-2.143-0.329
		c-2.947-0.435-5.898-0.84-8.858-1.189c-0.073-0.009-0.147-0.016-0.22-0.024c-2.88-0.338-5.767-0.625-8.656-0.882
		c-0.716-0.064-1.431-0.125-2.146-0.184c-2.718-0.224-5.438-0.418-8.162-0.572c-0.261-0.015-0.523-0.035-0.784-0.05
		c-3.001-0.161-6.007-0.272-9.013-0.35c-0.632-0.015-1.263-0.025-1.896-0.036c-2.572-0.052-5.144-0.072-7.716-0.062
		c-0.507,0.002-1.015-0.003-1.522,0.002c-3.019,0.028-6.039,0.096-9.057,0.207c-0.451,0.016-0.902,0.04-1.353,0.059
		c-2.633,0.108-5.264,0.249-7.895,0.42c-0.599,0.039-1.197,0.074-1.796,0.117c-3.051,0.216-6.101,0.464-9.145,0.763
		c-0.053,0.006-0.107,0.013-0.16,0.018c-2.943,0.292-5.882,0.634-8.817,1.004c-0.613,0.078-1.226,0.156-1.839,0.238
		c-2.979,0.393-5.955,0.814-8.922,1.288C1157.17,731.173,1192.154,737.059,1224.157,749.244z"/>
	<path style="fill:#CD2346;" d="M1477.66,1223.39c-1.464-0.163-2.928-0.315-4.395-0.444c-2.428-0.209-4.859-0.375-7.293-0.476
		c-4.887-0.202-9.785-0.162-14.665,0.161c-1.556,0.104-3.105,0.257-4.653,0.418c-0.546,0.091-1.091,0.179-1.635,0.28
		c-4.323,0.794-8.601,1.839-12.795,3.152c-1.893,0.594-3.765,1.253-5.62,1.955c-0.057,0.022-0.131,0.051-0.189,0.074
		c-3.541,1.646-6.993,3.486-10.314,5.539c-1.743,1.078-3.452,2.21-5.126,3.394c-0.063,0.045-0.125,0.092-0.188,0.137
		c-2.826,2.356-5.568,4.799-8.15,7.427c-2.404,2.447-4.634,5.036-6.817,7.675c-0.306,0.426-0.615,0.849-0.916,1.278
		c-1.165,1.663-2.288,3.356-3.371,5.072c-2.207,3.497-4.244,7.1-6.125,10.784c-1.046,2.048-2.043,4.124-2.992,6.221
		c-0.042,0.091-0.081,0.184-0.122,0.274c-3.287,8.282-5.906,16.823-7.948,25.494c-1.065,4.52-1.974,9.073-2.744,13.651
		c-0.245,1.454-0.632,4.438-0.839,6.05c-0.076,0.668-0.165,1.334-0.232,2.003c-2.087,20.683-1.634,41.601,0.72,62.241
		c0.099,0.871,0.208,1.74,0.315,2.609c0.319,2.183,0.64,4.367,0.998,6.548c0.922,5.601,1.981,11.179,3.172,16.73
		c2.24,10.436,4.962,20.765,8.108,30.966c51.184-64.634,93.524-136.131,118.123-213.316
		C1494.03,1226.72,1485.984,1224.753,1477.66,1223.39z"/>
	<path style="fill:#E9425A;" d="M1263.263,1051.534c-3.227-32.941-12.233-66.104-31.767-92.824
		c-34.831-47.64-96.573-65.542-153.312-64.42c-65.39,1.292-103.778,50.223-160.39,75.454c-13.542,6.035-28.966,10.33-43.081,5.795
		c-12.962-4.162-22.513-14.996-30.989-25.655c-50.459-63.438-88.424-125.45-175.888-138.312
		c-60.246-8.859-123.064,8.919-172.712,44.176c-17.643,12.527-33.888,27.317-46.322,45.027
		c-52.781,75.174-49.331,179.752-16.873,261.863c26.523,67.099,71.098,125.556,119.575,178.994
		c35.908,39.583,74.488,77.127,117.568,108.635c7.618,5.571,15.376,10.955,23.285,16.128c36.609,23.939,77.344,43.523,120.9,47.555
		c23.992,2.222,47.459-0.296,70.316-6.182c-17.963-33.553-33.465-68.531-46.713-104.258
		c-72.049-0.165-136.077-68.126-130.87-143.096c0.349-5.024,1.008-10.078,1.997-15.145c10.166-52.102,55.343-95.746,107.914-103.159
		c58.469-8.244,112.955,28.418,136.705,80.523c9.941,21.81,16.491,45.801,14.113,69.651c-4.263,42.736-36.927,78.235-75.375,97.757
		c3.139,8.316,6.403,16.582,9.783,24.793c0.433,1.049,0.869,2.097,1.306,3.145c1.035,2.42,2.072,4.837,3.127,7.249
		c2.587,5.906,5.244,11.784,7.972,17.63c5.607,12.011,11.514,23.885,17.743,35.587c1.728,3.246,3.484,6.478,5.262,9.698
		c36.964-17.612,71.975-41.889,104.584-66.399c85.169-64.013,170.112-137.932,205.903-238.282
		C1262.029,1141.387,1267.617,1095.987,1263.263,1051.534z"/>
	<path style="fill:#EC6778;" d="M677.051,848.566c-17.63-8.71-37.995-8.478-57.227-5.556
		c-51.478,7.818-105.109,37.194-135.648,83.761c-4.189,6.388-7.944,13.1-11.199,20.122c-29.741,64.173-36.326,147.219-7.815,213.091
		c4.131,9.544,9.524,19.345,18.467,23.752c10.248,5.049,22.866,1.426,31.555-6.264c8.689-7.69,14.102-18.766,18.37-29.92
		c10.18-26.601,15.218-55.493,28.257-80.632c15.962-30.774,43.027-53.76,72.764-68.918c36.329-18.519,81.774-37.406,79.769-89.861
		C713.385,883.039,698.411,859.118,677.051,848.566z"/>
	<path style="fill:#EC6778;" d="M1077.154,1009.346c52.997,8.615,98.803,51.37,111.042,103.646
		c1.944,8.302,3.215,17.052,7.937,24.153c4.721,7.1,14.294,11.935,21.93,8.141c4.989-2.477,7.796-7.823,10-12.938
		c25.021-58.086,10.516-130.928-34.847-174.998c-27.099-26.327-64.175-41.334-101.718-43.478
		c-42.978-2.457-74.468,11.421-104.962,40.797c-11.391,10.975-22.32,27.229-15.49,41.497c3.9,8.146,12.82,12.921,21.739,14.349
		c8.918,1.429,18.013,0.061,26.981-1.015C1038.823,1007.217,1058.209,1006.267,1077.154,1009.346z M1173.61,957.148
		c-7.277,16.839-21.968,28.164,5.749,49.412c-25.006-16.866-37.403-4.775-48.929,9.635c19.235-27.344-0.347-49.456-6.027-54.965
		c-0.498-0.454-0.986-0.904-1.454-1.336c0,0,0.561,0.47,1.454,1.336C1135.624,971.474,1154.387,986.293,1173.61,957.148z"/>
	<path style="fill:#ADA5A0;" d="M966.718,1292.283c2.379-23.851-4.172-47.842-14.113-69.651
		c-23.75-52.105-78.236-88.768-136.705-80.523c-52.57,7.413-97.748,51.057-107.914,103.159c-0.989,5.067-1.648,10.121-1.997,15.145
		c-5.207,74.97,58.822,142.931,130.87,143.096c-0.799-2.156-1.601-4.311-2.383-6.473c-67.588-1.567-127.084-65.543-122.187-136.053
		c0.331-4.778,0.958-9.585,1.899-14.405c9.669-49.555,52.637-91.065,102.637-98.115c55.609-7.841,107.431,27.03,130.019,76.585
		c9.455,20.744,15.685,43.561,13.422,66.247c-4.033,40.447-34.82,74.073-71.156,92.699c0.743,2.016,1.473,4.037,2.231,6.046
		C929.791,1370.518,962.455,1335.019,966.718,1292.283z"/>
	<path style="fill:#D3D2D2;" d="M960.267,1291.295c2.263-22.686-3.968-45.504-13.422-66.247
		c-22.588-49.555-74.41-84.426-130.019-76.585c-50,7.05-92.968,48.56-102.637,98.115c-0.94,4.82-1.568,9.627-1.899,14.405
		c-4.897,70.51,54.6,134.486,122.187,136.053c-2.69-7.42-5.316-14.86-7.815-22.334c-3.703-11.08-7.3-22.263-10.545-33.536
		c-30.76-9.859-54.539-41.347-52.166-75.512c0.192-2.764,0.555-5.543,1.099-8.332c5.592-28.661,30.443-52.667,59.36-56.744
		c32.162-4.535,62.133,15.632,75.197,44.294c5.468,11.996,9.072,25.193,7.763,38.313c-2.104,21.099-16.802,38.981-35.083,50.193
		c5.034,17.05,10.669,33.933,16.824,50.617C925.447,1365.368,956.234,1331.742,960.267,1291.295z"/>
	<g>
		<path style="fill:#D6D2CF;" d="M1665.22,341.055c-33.045-41.817-64.623-76.77-96.543-106.852
			c-33.286-31.374-64.533-55.342-95.525-73.271c-29.827-17.257-57.004-27.661-83.079-31.81c-26.499-4.217-50.324-2.183-70.813,6.044
			c-13.067,5.25-25.121,12.862-35.822,22.631c-0.577,0.526-0.875,1.291-0.804,2.068c0.073,0.78,0.504,1.479,1.167,1.89
			c5.113,3.184,10.053,7.406,13.554,11.583c0.431,0.514,1.052,0.833,1.722,0.884c0.672,0.058,1.334-0.171,1.836-0.614
			c1.515-1.333,3.062-2.621,4.527-3.825l1.303-0.967c1.038-0.755,2.087-1.491,3.152-2.207c4.015-2.702,8.236-5.121,12.548-7.184
			c0.892-0.426,1.795-0.831,2.699-1.235l2.131-0.875c2.353-0.906,4.736-1.727,7.147-2.458c4.731-1.432,9.659-2.545,14.804-3.323
			c0.032-0.003,0.066-0.008,0.098-0.012c0.321-0.029,0.646-0.078,0.969-0.127l0.58-0.083c1.369-0.159,2.743-0.288,4.117-0.397
			c2.653-0.207,5.315-0.322,7.976-0.358c5.377-0.075,11.016,0.217,16.692,0.848l2.105,0.246l0.438-2.459h0l0.127,2.542
			c1.362,0.207,2.724,0.414,4.073,0.646c3.094,0.536,6.173,1.16,9.23,1.864c6.054,1.396,12.324,3.182,18.633,5.31
			c3.34,1.128,6.655,2.339,9.941,3.622c1.552,0.607,3.092,1.233,4.692,1.89c0.017,0.008,0.034,0.014,0.053,0.019l0.431,0.183
			c0.002,0,0.015,0.005,0.037,0.015c0.012,0.005,0.026,0.012,0.041,0.02l0.007,0.002c0.007,0.002,0.015,0.007,0.022,0.01l2.96,1.291
			c6.704,2.977,13.581,6.368,20.441,10.08c14.356,7.764,28.641,16.848,43.669,27.771c1.89,1.374,3.771,2.765,5.641,4.163
			l5.009,3.808c3.815,2.962,7.593,5.975,11.33,9.038c7.769,6.368,15.71,13.225,23.603,20.38
			c33.608,30.482,66.906,66.531,101.805,110.204l2.136,2.719c0.475,0.602,1.196,0.945,1.954,0.945c0.09,0,0.18-0.005,0.27-0.014
			c0.853-0.093,1.598-0.617,1.973-1.389c2.918-5.997,7.194-9.013,13.069-9.218c0.94-0.032,1.783-0.59,2.178-1.445
			C1665.921,342.796,1665.804,341.793,1665.22,341.055z"/>
		<path style="fill:#D6D2CF;" d="M1272.989,596.121c-16.799-19.155-31.313-37.067-44.373-54.758
			c-26.224-35.52-45.664-68.219-59.435-99.971l-0.86-2.005l-0.032,0.012c-0.002-0.005-0.002-0.009-0.005-0.017l0.03-0.012
			c-0.031-0.075-0.068-0.146-0.105-0.214c-0.105-0.3-0.219-0.575-0.319-0.811l-0.416-0.999c-0.755-1.842-1.498-3.695-2.22-5.549
			c-1.442-3.708-2.816-7.44-4.112-11.201c-2.436-7.065-4.548-14.095-6.273-20.897c-1.727-6.797-3.111-13.53-4.114-20.01
			l-0.563-4.138c-0.132-1.111-0.263-2.224-0.373-3.343c-0.302-3.025-0.526-6.058-0.663-9.094c-0.27-5.983-0.195-11.881,0.222-17.527
			c0.095-1.296,0.212-2.589,0.346-3.883l0.259-2.344c0.197-1.069,0.373-2.143,0.548-3.218c0.249-1.522,0.497-3.047,0.811-4.562
			c1.083-5.165,2.506-10.2,4.229-14.965c0.4-1.101,0.816-2.2,1.198-3.17c0.039-0.075,0.071-0.153,0.103-0.232
			c0.053-0.122,0.107-0.251,0.168-0.397c0.046-0.083,0.212-0.48,0.248-0.567l0.297-0.707c1.004-2.229,2.088-4.424,3.25-6.575
			c2.297-4.246,4.923-8.353,7.912-12.343l0.926-1.162c0.806-0.994,1.632-1.966,2.475-2.926c1.6-1.822,3.269-3.586,4.996-5.286
			c0.88-0.87,1.801-1.688,2.721-2.512l0.772-0.686c0.497-0.449,0.794-1.08,0.824-1.747c0.029-0.67-0.212-1.323-0.67-1.813
			c-3.761-4.029-7.379-9.503-9.925-15.021c-0.329-0.709-0.967-1.225-1.732-1.391c-0.748-0.161-1.559,0.034-2.154,0.538
			c-8.87,7.576-16.448,16.192-22.528,25.608c-11.959,18.512-18.553,41.583-19.072,66.724c-0.526,25.685,5.099,54.049,16.724,84.299
			c12.677,32.997,31.047,66.456,56.163,102.293c27.13,38.704,59.841,77.488,100.005,118.565l1.535,1.545
			c0.473,0.484,1.116,0.752,1.786,0.752c0.07,0,0.139-0.002,0.21-0.01c0.743-0.061,1.417-0.453,1.841-1.067
			c3.627-5.242,10.699-6.969,15.993-7.495c0.958-0.095,1.776-0.733,2.1-1.637c0.326-0.906,0.102-1.917-0.575-2.602
			C1303.396,629.661,1287.637,612.823,1272.989,596.121z"/>
	</g>
	<path style="fill:#E7E5E5;" d="M1154.537,312.33c0.403-0.759,0.476-1.022,0.313-0.706c-0.032,0.079-0.073,0.152-0.106,0.231
		C1154.684,311.985,1154.62,312.125,1154.537,312.33z"/>
	<path style="fill:#ADA5A0;" d="M907.37,1283.184c1.309-13.119-2.295-26.317-7.763-38.313
		c-13.064-28.663-43.035-48.83-75.197-44.294c-28.918,4.077-53.768,28.083-59.36,56.744c-0.544,2.789-0.906,5.568-1.099,8.332
		c-2.373,34.165,21.406,65.653,52.166,75.512c14.905,4.777,31.441,4.503,47.451-3.056c2.973-1.403,5.886-2.994,8.719-4.732
		C890.569,1322.165,905.266,1304.283,907.37,1283.184z M860.781,1331.707c-44.297,20.912-93.143-19.627-89.962-65.434
		c0.173-2.495,0.501-5.006,0.992-7.524c5.05-25.881,27.492-47.562,53.607-51.243c29.046-4.097,56.112,14.115,67.909,39.999
		c4.939,10.834,8.192,22.752,7.011,34.601C898.143,1304.115,880.784,1322.263,860.781,1331.707z"/>
	<path style="fill:#E7E5E5;" d="M893.327,1247.505c-11.798-25.884-38.864-44.095-67.909-39.999
		c-26.114,3.681-48.557,25.362-53.607,51.243c-0.491,2.517-0.819,5.029-0.992,7.524c-3.181,45.806,45.666,86.346,89.962,65.434
		c20.003-9.443,37.362-27.592,39.557-49.6C901.519,1270.257,898.266,1258.339,893.327,1247.505z"/>
	<path style="fill:#CD2346;" d="M226.947,943.698c-10.256-1.116-21.232,5.856-23.205,15.982c-6.486-8.022-19.448-9.046-27.988-3.255
		c-8.54,5.79-13.483,17.209-10.996,27.222c7.328,29.499,54.73,39.376,54.73,39.376s37.26-30.921,29.922-60.42
		C246.919,952.59,237.204,944.817,226.947,943.698z"/>
	<path style="fill:#CD2346;" d="M1332.75,1864.992c0,0,37.26-30.92,29.922-60.417c-2.49-10.013-12.205-17.788-22.462-18.904
		c-10.256-1.119-21.232,5.855-23.206,15.981c-6.485-8.025-19.448-9.045-27.988-3.258c-8.54,5.79-13.483,17.209-10.995,27.222
		C1285.348,1855.118,1332.75,1864.992,1332.75,1864.992z"/>
	<path style="fill:#E9425A;" d="M176.361,765.939c0,0,37.26-30.921,29.922-60.42c-2.491-10.013-12.205-17.786-22.462-18.904
		c-10.257-1.116-21.232,5.856-23.205,15.984c-6.485-8.025-19.448-9.048-27.988-3.258c-8.54,5.79-13.484,17.209-10.996,27.221
		C128.959,756.062,176.361,765.939,176.361,765.939z"/>
	<path style="fill:#E9425A;" d="M1609.688,990.502c-10.257-1.119-21.232,5.856-23.205,15.982
		c-6.485-8.025-19.449-9.048-27.988-3.258c-8.54,5.79-13.482,17.209-10.996,27.222c7.328,29.502,54.729,39.376,54.729,39.376
		s37.261-30.92,29.923-60.417C1629.659,999.394,1619.945,991.618,1609.688,990.502z"/>
	<path style="fill:#E9425A;" d="M549.772,1744.372c0,0,37.26-30.921,29.922-60.42c-2.491-10.013-12.205-17.786-22.462-18.904
		c-10.257-1.116-21.232,5.856-23.205,15.982c-6.486-8.022-19.448-9.046-27.989-3.255c-8.54,5.79-13.483,17.209-10.996,27.222
		C502.37,1734.495,549.772,1744.372,549.772,1744.372z"/>
	<path style="fill:#DCB5C3;" d="M347.088,835.89c0.184-2.56,0.181-4.069,0.181-4.069
		C347.207,833.134,347.145,834.501,347.088,835.89z"/>
	<path style="fill:#DCB5C3;" d="M346.089,968.755c0.959,4.46,1.741,9.276,2.297,14.546c-0.431-9.689-0.108-17.891,0.827-24.924
		c1.635-12.312,5.198-20.943,10.164-27.144c13.336-16.648,36.713-15.931,59.653-22.792c-20.421,2.368-35.118,0.033-45.711-5.211
		c-11.873-5.877-18.562-15.423-22.235-26.204c-4.569-13.406-4.512-28.681-3.996-41.137c-1.166,16.309-10.135,76.794-79.076,82.7
		c18.879-0.449,37.138,0.206,51.57,8.481C331.849,934.105,341.337,946.674,346.089,968.755z"/>
	<path style="fill:#DCB5C3;" d="M1130.43,1016.194c11.526-14.41,23.923-26.501,48.929-9.635
		c-27.718-21.248-13.027-32.573-5.749-49.412c-19.222,29.146-37.985,14.326-49.206,4.082
		C1130.083,966.739,1149.665,988.85,1130.43,1016.194z"/>
	<path style="fill:#DCB5C3;" d="M1124.403,961.23c-0.894-0.866-1.454-1.336-1.454-1.336
		C1123.417,960.326,1123.905,960.776,1124.403,961.23z"/>
</g>
</svg>
