<svg viewBox="0 0 523.4172 608.262" fill="none" xmlns="http://www.w3.org/2000/svg" xmlns:xlink="http://www.w3.org/1999/xlink" x="0" y="0"><defs><clipPath id="clip8_100_4">
<rect width="523.417" height="608.262" fill="white" transform="translate(-0.0003999999998995918, 0)"/>
</clipPath></defs><g id="a" clip-path="url(#clip8_100_4)">
<path id="Vector_112" d="M36.2766,383.28h-34.863v-34.864c0,-6.218 5.088,-11.306 11.307,-11.306h33.921v35.805c0,5.715 -4.65,10.365 -10.365,10.365z" fill="#3F3D56"/>
<path id="Vector_113" d="M513.0536,46.898h-34.86v-34.863c0,-6.219 5.08,-11.307 11.3,-11.307h33.92v35.805c0,5.715 -4.65,10.365 -10.36,10.365z" fill="#3F3D56"/>
<g id="Group_2">
<path id="Vector_114" d="M268.7636,593.396l-12.55,-0.001l-5.98,-48.436l18.54,0.001z" fill="#A0616A"/>
<path id="Vector_115" d="M269.2136,606.496l-38.62,-0.002v-0.488c0.001,-8.301 6.73,-15.029 15.03,-15.03l7.05,-5.351l13.17,5.352h3.37z" fill="#2F2E41"/>
</g>
<path id="Vector_116" d="M260.8136,343.414l-8.29,28.773c0,0 -17.9,94.163 -13.19,107.354c4.71,13.192 8.18,96.171 8.18,96.171h24.51c0,0 3.3,-21.051 3.21,-24.219c-0.1,-3.168 5.56,-54.049 -1.98,-61.587l32.98,-82.917l51.82,-43.344l-20.32,-25.224z" fill="#2F2E41"/>
<path id="Vector_117" opacity="0.5" d="M380.6636,390.09v-15.076l-15.07,-20.73c-6.22,0 -11.31,5.088 -11.31,11.307v50.881c0,6.219 5.09,11.307 11.31,11.307h50.88c6.22,0 11.31,-5.088 11.31,-11.307l-20.73,-14.133h-14.14c-6.75,0 -12.25,-5.495 -12.25,-12.249z" fill="#0EA5E9"/>
<path id="Vector_118" opacity="0.5" d="M453.4236,265.242h-307.583c-10.017,0 -18.166,-8.149 -18.166,-18.166v-106.889c0,-10.017 8.149,-18.166 18.166,-18.166h307.583c10.02,0 18.17,8.149 18.17,18.166v106.889c0,10.017 -8.15,18.166 -18.17,18.166z" fill="#0EA5E9"/>
<path id="Vector_119" d="M321.0936,244.984h-200.694c-10.276,0 -18.637,-8.361 -18.637,-18.638v-106.888c0,-10.277 8.36,-18.638 18.637,-18.638h307.584c10.28,0 18.64,8.361 18.64,18.638c0,69.215 -56.31,125.526 -125.53,125.526zM120.3996,102.705c-9.237,0 -16.753,7.515 -16.753,16.753v106.888c0,9.238 7.516,16.753 16.753,16.753h200.694c68.18,0 123.65,-55.465 123.65,-123.641c0,-9.238 -7.52,-16.753 -16.76,-16.753z" fill="#0EA5E9"/>
<g id="Group_3">
<path id="Vector_120" d="M346.5536,355.268l-1.99,-28.233l15.97,-3.389l1.05,29.924c0.62,0.663 1.17,1.428 1.6,2.289c2.34,4.682 0.43,10.371 -4.25,12.707c-4.68,2.336 -10.37,0.435 -12.7,-4.247c-1.49,-2.985 -1.25,-6.377 0.32,-9.051z" fill="#A0616A"/>
<path id="Vector_121" d="M321.2036,174.242l-6.14,4.579l15.1,86.101l-2.21,5.272l2.95,2.769l0.9,6.621l11.89,61.509h18.13c-0.27,-2.137 4.97,-4.327 4.71,-6.596c-0.3,-2.594 -2.43,-6.519 -2.73,-9.259c-0.09,-0.849 -0.19,-1.704 -0.28,-2.565c-0.14,-1.264 -0.27,-2.54 -0.41,-3.828c-0.11,-0.997 -0.22,-2.001 -0.32,-3.012c-2.32,-21.875 -3.27,-46.492 -4.61,-67.748c-1.71,-27.098 -4.04,-48.736 -10.63,-52.271z" fill="#3F3D56"/>
</g>
<path id="Vector_122" d="M367.0336,591.93c1.95,0.122 3.03,-2.296 1.55,-3.706l-0.14,-0.582c0.02,-0.047 0.04,-0.094 0.05,-0.14c1.97,-4.694 8.64,-4.662 10.6,0.039c1.73,4.172 3.93,8.352 4.48,12.764c0.24,1.947 0.13,3.931 -0.3,5.842c4.06,-8.867 6.2,-18.55 6.2,-28.287c0,-2.446 -0.14,-4.893 -0.41,-7.333c-0.23,-1.997 -0.54,-3.981 -0.94,-5.946c-2.17,-10.626 -6.88,-20.747 -13.66,-29.2c-3.26,-1.783 -5.99,-4.571 -7.63,-7.912c-0.59,-1.205 -1.05,-2.501 -1.27,-3.822c0.37,0.049 1.4,-5.605 1.12,-5.952c0.52,-0.785 1.44,-1.175 2.01,-1.941c2.81,-3.81 6.68,-3.145 8.7,2.033c4.32,2.179 4.36,5.793 1.71,9.268c-1.68,2.212 -1.92,5.204 -3.4,7.571c0.16,0.195 0.32,0.384 0.47,0.578c2.79,3.579 5.2,7.425 7.23,11.466c-0.57,-4.491 0.28,-9.901 1.73,-13.389c1.64,-3.973 4.73,-7.32 7.45,-10.755c3.27,-4.127 9.96,-2.326 10.54,2.905c0,0.05 0.01,0.101 0.01,0.152c-0.4,0.228 -0.8,0.47 -1.18,0.725c-2.21,1.458 -1.44,4.875 1.17,5.278l0.06,0.009c-0.15,1.455 -0.4,2.897 -0.76,4.315c3.48,13.489 -4.05,18.402 -14.8,18.623c-0.24,0.122 -0.47,0.243 -0.7,0.359c1.08,3.067 1.95,6.214 2.6,9.403c0.58,2.817 0.98,5.666 1.2,8.526c0.28,3.609 0.26,7.236 -0.04,10.839l0.01,-0.128c0.78,-3.968 2.93,-7.674 6.06,-10.242c4.66,-3.828 11.24,-5.238 16.27,-8.315c2.42,-1.481 5.52,0.433 5.1,3.239l-0.02,0.134c-0.75,0.304 -1.48,0.657 -2.19,1.053c-0.4,0.228 -0.8,0.47 -1.18,0.725c-2.21,1.458 -1.44,4.875 1.17,5.278l0.06,0.009c0.04,0.007 0.08,0.013 0.12,0.019c-1.29,3.049 -3.07,5.879 -5.31,8.319c-2.19,11.775 -11.55,12.893 -21.57,9.464h-0.01c-1.09,4.771 -2.69,9.433 -4.75,13.875h-16.98c-0.06,-0.188 -0.12,-0.383 -0.17,-0.572c1.57,0.098 3.15,0.006 4.7,-0.28c-1.26,-1.546 -2.52,-3.104 -3.78,-4.649c-0.03,-0.031 -0.06,-0.061 -0.08,-0.092c-0.64,-0.791 -1.29,-1.576 -1.93,-2.367v-0.001c-0.04,-2.429 0.26,-4.85 0.83,-7.199z" fill="#F2F2F2"/>
<path id="Vector_123" d="M177.1256,607.141c0,0.622 0.5,1.121 1.122,1.121h238.656c0.63,0 1.13,-0.499 1.13,-1.121c0,-0.622 -0.5,-1.122 -1.13,-1.122h-238.656c-0.622,0 -1.122,0.5 -1.122,1.122z" fill="#CCCCCC"/>
<path id="Vector_124" d="M21.3796,0c-11.808,0 -21.38,9.572 -21.38,21.38v362.114h1.885v-234.921c0,-81.014 65.674,-146.689 146.689,-146.689l374.72,-0.342l-0.35,-1.542z" fill="#3F3D56"/>
<path id="Vector_125" d="M178.0846,241.215c0,1.262 -0.038,2.525 -0.104,3.769h-57.581c-9.771,0 -17.695,-7.925 -17.695,-17.696v-53.5c2.478,-0.274 4.994,-0.415 7.538,-0.415c37.464,0 67.842,30.378 67.842,67.842z" fill="#0EA5E9"/>
<path id="Vector_126" d="M391.5536,172.428h-184.088c-3.138,0 -5.688,2.55 -5.688,5.687c0,3.137 2.55,5.687 5.688,5.687h184.088c3.13,0 5.68,-2.55 5.68,-5.687c0,-3.137 -2.55,-5.687 -5.68,-5.687z" fill="#0EA5E9"/>
<path id="Vector_127" d="M264.5436,140.538h-57.078c-3.138,0 -5.688,2.55 -5.688,5.687c0,3.137 2.55,5.688 5.688,5.688h57.078c3.13,0 5.69,-2.551 5.69,-5.688c0,-3.137 -2.56,-5.687 -5.69,-5.687z" fill="#0EA5E9"/>
<g id="Group_4">
<path id="Vector_128" d="M320.5936,593.396l-12.56,-0.001l-5.97,-48.436l18.53,0.001z" fill="#A0616A"/>
<path id="Vector_129" d="M321.0336,606.496l-38.62,-0.002v-0.488c0,-8.301 6.73,-15.03 15.03,-15.03l7.06,-5.351l13.16,5.352h3.37z" fill="#2F2E41"/>
</g>
<path id="Vector_130" d="M294.4536,354.755l6.59,57.477l-14.6,59.833l12.72,104.118l23.56,1.885c0,0 11.3,-76.322 0.94,-102.705l26.38,-103.647l-19.79,-11.307z" fill="#2F2E41"/>
<path id="Vector_131" d="M319.0236,160.545c-4.15,-4.437 -2.73,-8.48 -9.16,-9.613c-4.35,-0.768 -9.6,0.002 -14.06,-0.002c-11.21,-0.01 -12.9,6.19 -19.35,14.427c-16.63,21.216 -1.16,38.242 -5.09,63.609c-3.65,23.569 6.13,36.404 1.8,60.037c-2.06,11.25 -6.06,27.09 -13.05,40.027c-3.86,7.144 -5.71,15.454 -4.77,23.37c0.84,7.005 91.31,7.822 93.82,6.098c2.95,-2.029 1.95,-6.381 2.24,-9.412c0.78,-8.213 1.57,-13.967 -0.4,-22.355c-1.85,-7.882 -1.82,-17.041 -1.85,-25.188c-0.02,-7.854 -11.08,5.112 -10.44,-2.729c0.82,-10.001 2.44,-19.786 4.23,-29.696c1.39,-7.67 1.93,-15.553 3.97,-23.063c2.34,-8.651 5.14,-16.262 5.23,-25.335c0.08,-7.063 1.78,-16.936 -1.03,-23.407c-4.13,-9.533 -12.47,-18.116 -19.51,-25.751c-3.5,-3.797 -6.98,-6.268 -10.97,-9.414" fill="#3F3D56"/>
<g id="Group_5">
<path id="Vector_132" d="M176.9996,203.986l25.474,12.335l-5.016,15.535l-26.469,-13.999c-0.888,0.215 -1.823,0.306 -2.783,0.249c-5.223,-0.306 -9.209,-4.789 -8.902,-10.012c0.306,-5.223 4.789,-9.209 10.012,-8.902c3.331,0.195 6.152,2.093 7.684,4.794z" fill="#A0616A"/>
<path id="Vector_133" d="M255.1336,274.393c-2.44,-1.292 -39.604,-24.995 -59.147,-36.005c-0.366,-0.206 -2.888,1.145 -3.24,0.947c-0.538,-0.303 -0.027,-2.549 -0.529,-2.831c-1.088,-0.614 -3.12,0.775 -4.022,0.267c-3.265,-1.84 -2.573,-9.69 -2.573,-9.69l6.595,-16.018l10.783,-0.344l2.409,4.113l5.112,-0.616l3.368,4.385l38.814,15.229c1.51,-20.238 9.6,-36.933 18.37,-53.266l3.54,0.669c8.94,1.689 14.9,10.194 13.44,19.17l-10.24,62.826c-0.99,5.845 -5.13,10.558 -10.79,12.3c-4.1,1.259 -8.35,0.739 -11.89,-1.136z" fill="#3F3D56"/>
</g>
<path id="Vector_134" d="M293.6736,144.975c15.92,0 28.83,-12.91 28.83,-28.837c0,-15.926 -12.91,-28.837 -28.83,-28.837c-15.93,0 -28.84,12.911 -28.84,28.837c0,15.927 12.91,28.837 28.84,28.837z" fill="#A0616A"/>
<path id="Vector_135" d="M325.6736,117.015c-1,-0.405 -2.01,-0.744 -2.89,-0.961c4.95,6.23 -3.4,11.697 -4.7,18.073c0.11,5.061 -2.66,7.357 -7.5,8.743l0.11,-0.395c-39.38,10.086 2.16,-23.49 -28.62,-24.415c-4.7,0.274 1.57,-14.479 -3.25,-13.737c-12.25,1.885 -12.82,0.59 -14.14,9.424c-2.38,0.781 -5.65,-2.828 -5.27,-6.597c-0.87,-1.586 -3.15,-0.571 -4.07,-2.978c-0.97,-1.837 -2.81,-13.851 1.4,-8.235c0.28,-3.834 -0.81,-11.671 3.98,-4.975c-0.63,-3.046 2.02,-1.727 3.12,0.085c0.79,-1.781 1.57,-3.552 2.34,-5.333c-0.22,0.801 -0.08,1.677 0.32,2.468c2.22,-4.721 5.62,-5.149 10.91,-6.482c-0.06,1.446 -0.03,3.139 0.17,4.447c6.15,-10.187 21.04,-7.341 26.98,1.659c3.76,0.859 5.35,-0.443 9.12,0.499c10.13,2.532 14.76,18.147 11.99,28.71z" fill="#2F2E41"/>
<path id="Vector_136" d="M402.3436,389.147h34.86v-34.863c0,-6.219 -5.09,-11.307 -11.31,-11.307h-33.92v35.806c0,5.715 4.65,10.364 10.37,10.364z" fill="#0EA5E9"/>
<path id="Vector_137" d="M120.3306,60.167c4.401,0 7.968,-3.647 7.968,-8.145c0,-4.499 -3.567,-8.146 -7.968,-8.146c-4.401,0 -7.968,3.647 -7.968,8.146c0,4.498 3.567,8.145 7.968,8.145z" fill="#3F3D56"/>
<path id="Vector_138" d="M147.8566,60.167c4.401,0 7.968,-3.647 7.968,-8.145c0,-4.499 -3.567,-8.146 -7.968,-8.146c-4.4,0 -7.968,3.647 -7.968,8.146c0,4.498 3.568,8.145 7.968,8.145z" fill="#3F3D56"/>
<path id="Vector_139" d="M175.3836,60.167c4.4,0 7.968,-3.647 7.968,-8.145c0,-4.499 -3.568,-8.146 -7.968,-8.146c-4.401,0 -7.969,3.647 -7.969,8.146c0,4.498 3.568,8.145 7.969,8.145z" fill="#3F3D56"/>
<path id="Vector_140" d="M370.7736,79.406c-0.78,0 -1.41,0.633 -1.41,1.413v9.422c0,0.78 0.63,1.414 1.41,1.414h9.42c0.78,0 1.42,-0.634 1.42,-1.414v-9.422c0,-0.78 -0.64,-1.413 -1.42,-1.413z" fill="#0EA5E9"/>
<path id="Vector_141" d="M392.4436,79.406c-0.78,0 -1.41,0.633 -1.41,1.413v9.422c0,0.78 0.63,1.414 1.41,1.414h9.42c0.78,0 1.42,-0.634 1.42,-1.414v-9.422c0,-0.78 -0.64,-1.413 -1.42,-1.413z" fill="#0EA5E9"/>
<path id="Vector_142" d="M414.1136,79.406c-0.78,0 -1.41,0.633 -1.41,1.413v9.422c0,0.78 0.63,1.414 1.41,1.414h9.43c0.77,0 1.41,-0.634 1.41,-1.414v-9.422c0,-0.78 -0.64,-1.413 -1.41,-1.413z" fill="#0EA5E9"/>
</g></svg>