<svg viewBox="0 0 351.3786 333" fill="none" xmlns="http://www.w3.org/2000/svg" xmlns:xlink="http://www.w3.org/1999/xlink" x="0" y="0"><defs><clipPath id="clip39_100_4">
<rect width="351.379" height="333" fill="white" transform="translate(-0.0003000000000383807, 0.00010000000020227162)"/>
</clipPath></defs><g id="e3b35851-94e9-429d-821b-b07e6585d4d1" clip-path="url(#clip39_100_4)">
<path id="Vector_340" d="M126.9777,63.4901c0.008,10.23 -2.462,20.32 -7.197,29.39c-4.736,9.07 -11.598,16.86 -19.999,22.71c-2.366,1.65 -4.844,3.14 -7.416,4.46c-0.854,0.44 -1.713,0.85 -2.589,1.25c-0.788,0.36 -1.582,0.7 -2.386,1.02c-9.98,4.04 -20.82,5.49 -31.509,4.2c-1.85,-0.22 -3.677,-0.52 -5.479,-0.9c-0.077,-0.02 -0.159,-0.03 -0.235,-0.05c-3.775,-0.8 -7.468,-1.95 -11.029,-3.43c-10.618,-4.41 -19.84,-11.62 -26.682,-20.85c-6.842,-9.24 -11.047,-20.16 -12.168,-31.61c-1.121,-11.44 0.886,-22.97 5.806,-33.36c4.919,-10.39 12.568,-19.25 22.128,-25.63c9.561,-6.38 20.675,-10.05 32.158,-10.61c11.482,-0.57 22.901,2 33.039,7.42c10.138,5.42 18.614,13.49 24.525,23.35c5.91,9.86 9.032,21.14 9.033,32.64z" fill="#F1F1F1"/>
<path id="Vector_341" d="M75.1797,51.6401c-0.055,-0.07 -0.115,-0.13 -0.175,-0.19c-3.392,-3.42 -7.999,-5.37 -12.819,-5.42c-4.82,-0.05 -9.466,1.81 -12.927,5.16c-0.038,0.03 -0.071,0.07 -0.104,0.1c-0.044,0.04 -0.082,0.08 -0.12,0.11c-1.705,1.7 -3.057,3.72 -3.98,5.95c-0.922,2.22 -1.396,4.61 -1.395,7.01v11.5c0.001,0.65 0.261,1.28 0.722,1.74c0.462,0.46 1.088,0.72 1.741,0.72h31.744c0.653,0 1.279,-0.26 1.741,-0.72c0.462,-0.46 0.721,-1.09 0.722,-1.74v-11.5c0.005,-4.75 -1.843,-9.31 -5.15,-12.72z" fill="#2F2E41"/>
<path id="Vector_342" d="M62.7307,78.2101c7.424,0 13.442,-6.02 13.442,-13.45c0,-7.42 -6.018,-13.44 -13.442,-13.44c-7.425,0 -13.443,6.02 -13.443,13.44c0,7.43 6.018,13.45 13.443,13.45z" fill="#FFB7B7"/>
<path id="Vector_343" d="M76.8597,63.6201l-1.587,-11.09c-0.049,-0.34 -0.223,-0.65 -0.487,-0.87c-0.089,-0.07 -0.187,-0.13 -0.29,-0.18c-8.128,-3.8 -16.37,-3.8 -24.498,-0.01c-0.109,0.05 -0.21,0.11 -0.301,0.19c-0.033,0.03 -0.066,0.06 -0.099,0.09c-0.217,0.23 -0.352,0.52 -0.383,0.83l-1.062,11.11c-0.018,0.19 0.004,0.38 0.065,0.56c0.06,0.18 0.157,0.35 0.286,0.49c0.206,0.22 0.484,0.37 0.788,0.42c0.074,0.02 0.149,0.03 0.224,0.03h2.693c0.26,-0.01 0.515,-0.08 0.735,-0.22c0.22,-0.14 0.396,-0.34 0.507,-0.57l1.166,-2.5c0.075,-0.16 0.2,-0.29 0.357,-0.38c0.157,-0.08 0.338,-0.11 0.514,-0.08c0.175,0.02 0.337,0.11 0.461,0.24c0.123,0.13 0.202,0.29 0.222,0.47l0.23,1.84c0.043,0.33 0.204,0.63 0.454,0.85c0.25,0.22 0.571,0.34 0.904,0.35h17.749c0.233,0 0.461,-0.06 0.663,-0.18c0.14,-0.08 0.266,-0.18 0.372,-0.3c0.128,-0.14 0.223,-0.32 0.278,-0.51c0.054,-0.19 0.068,-0.39 0.039,-0.58z" fill="#2F2E41"/>
<path id="Vector_344" d="M95.9717,102.8401l3.81,12.75c-2.367,1.65 -4.845,3.14 -7.417,4.46c-0.853,0.44 -1.713,0.85 -2.588,1.25l-3.946,-16.92l-1.533,-6.56l9.852,-1.1z" fill="#FFB7B7"/>
<path id="Vector_345" d="M50.6377,100.7201l-0.328,17.23l-0.142,7.62c-3.775,-0.8 -7.468,-1.95 -11.029,-3.43l1.308,-16.32l0.329,-4.12z" fill="#FFB7B7"/>
<path id="Vector_346" d="M95.9717,102.8401l-9.895,1.48l0.12,1.62l1.193,16.38c-9.979,4.04 -20.819,5.49 -31.509,4.2c-1.85,-0.22 -3.676,-0.52 -5.478,-0.9c0.81,-3.4 1.51,-6.47 0.646,-7.07c-0.261,-0.18 -0.508,-0.38 -0.739,-0.6c-4.034,-3.85 -2.545,-12.54 -2.545,-12.54l-7.318,0.41l-2.534,0.14c0,0 1.095,-17.51 6.02,-17.51h6.021l29.008,-2.74c0,0 8.21,-2.74 10.399,1.09c1.149,2.01 3.196,6.27 4.887,9.87c1.533,3.28 2.775,6.01 2.775,6.01z" fill="#2F2E41"/>
<path id="Vector_347" d="M351.3747,64.1901c-0.102,10.02 -2.581,19.88 -7.231,28.76c-4.651,8.88 -11.342,16.54 -19.523,22.33c-0.143,0.1 -0.29,0.2 -0.438,0.31c-0.153,0.11 -0.312,0.22 -0.471,0.32c-0.919,0.64 -1.857,1.24 -2.813,1.82c-1.346,0.82 -2.724,1.6 -4.132,2.32c-0.044,0.02 -0.093,0.04 -0.137,0.06c-0.81,0.42 -1.627,0.81 -2.452,1.19c-0.028,0.01 -0.049,0.02 -0.077,0.03c-0.191,0.09 -0.394,0.18 -0.591,0.26c-1.527,0.68 -3.087,1.3 -4.674,1.85c-1.352,0.47 -2.724,0.9 -4.116,1.28c-2.847,0.78 -5.746,1.36 -8.675,1.74c-2.498,0.32 -5.013,0.49 -7.531,0.51c-0.208,0.01 -0.416,0.01 -0.624,0.01c-1.373,0 -2.742,-0.05 -4.094,-0.13c-1.182,-0.08 -2.353,-0.18 -3.514,-0.33c-1.789,-0.21 -3.557,-0.49 -5.298,-0.87c-0.076,-0.01 -0.153,-0.02 -0.23,-0.04c-0.06,-0.01 -0.125,-0.03 -0.185,-0.04c-1.752,-0.37 -3.476,-0.81 -5.167,-1.33c-1.593,-0.48 -3.157,-1.02 -4.691,-1.63c-0.394,-0.15 -0.782,-0.31 -1.171,-0.47c-0.969,-0.41 -1.927,-0.83 -2.868,-1.28c-0.274,-0.13 -0.542,-0.26 -0.81,-0.39c-0.909,-0.44 -1.806,-0.91 -2.682,-1.4c-1.056,-0.59 -2.094,-1.2 -3.114,-1.85c-1.286,-0.81 -2.545,-1.66 -3.766,-2.56c-10.844,-7.97 -18.876,-19.18 -22.938,-32c-4.061,-12.83 -3.942,-26.62 0.341,-39.38c4.283,-12.75 12.508,-23.82 23.488,-31.6c10.98,-7.78 24.147,-11.86 37.602,-11.67c34.814,0.48 62.958,29.36 62.582,64.18z" fill="#F1F1F1"/>
<path id="Vector_348" d="M274.5677,125.5701c-1.751,-0.37 -3.475,-0.81 -5.166,-1.33l5.807,-36.01l6.015,-0.18l10.908,-0.35l5.593,-0.17c0,0 3.968,17.43 6.995,37.19c-2.847,0.78 -5.746,1.36 -8.675,1.74c-2.498,0.32 -5.013,0.49 -7.531,0.51c-0.208,0.01 -0.416,0.01 -0.624,0.01c-1.374,0 -2.742,-0.05 -4.094,-0.13c-1.182,-0.08 -2.353,-0.18 -3.514,-0.33c-1.789,-0.21 -3.557,-0.49 -5.298,-0.87c-0.076,-0.01 -0.153,-0.02 -0.23,-0.04c-0.06,-0.01 -0.126,-0.03 -0.186,-0.04z" fill="#CBCBCB"/>
<path id="Vector_349" d="M274.9837,125.6501c-0.076,-0.01 -0.153,-0.02 -0.23,-0.04c-0.06,-0.01 -0.126,-0.03 -0.186,-0.04c-1.751,-0.37 -3.475,-0.81 -5.166,-1.33c-1.593,-0.48 -3.157,-1.02 -4.691,-1.63c-0.394,-0.15 -0.783,-0.31 -1.171,-0.47c-0.969,-0.41 -1.927,-0.83 -2.868,-1.28c-0.274,-0.13 -0.542,-0.26 -0.81,-0.39l-0.482,-26.96l14.778,-6.33c0,0 0.049,0.39 7.065,0.87c1.336,4.35 -6.239,37.6 -6.239,37.6z" fill="#2F2E41"/>
<path id="Vector_350" d="M319.1527,92.2301l-2.786,14.65l0.263,13.23c-0.81,0.42 -1.627,0.81 -2.452,1.19c-0.028,0.01 -0.05,0.02 -0.077,0.03c-0.191,0.09 -0.394,0.18 -0.591,0.26c-1.527,0.68 -3.087,1.3 -4.674,1.85c-1.352,0.47 -2.724,0.9 -4.116,1.28c-2.847,0.78 -5.746,1.36 -8.675,1.74c-2.498,0.32 -5.013,0.49 -7.531,0.51l-0.29,-23.46c-0.613,-7.56 1.418,-12.57 3.908,-15.81c13.272,-1.77 12.977,-1.93 12.977,-1.93l14.071,6.33z" fill="#2F2E41"/>
<path id="Vector_351" d="M265.7127,95.6201l-1.002,26.99c-0.394,-0.15 -0.783,-0.31 -1.171,-0.47c-0.969,-0.41 -1.927,-0.83 -2.868,-1.28c-0.274,-0.13 -0.542,-0.26 -0.81,-0.39c-0.909,-0.44 -1.806,-0.91 -2.682,-1.4c-1.057,-0.59 -2.095,-1.2 -3.114,-1.85l5.314,-23.71z" fill="#2F2E41"/>
<path id="Vector_352" d="M324.6197,115.2801c-0.142,0.1 -0.29,0.2 -0.437,0.31c-0.154,0.11 -0.312,0.22 -0.471,0.32c-0.92,0.64 -1.857,1.24 -2.813,1.82c-1.347,0.82 -2.724,1.6 -4.133,2.32c-0.043,0.02 -0.093,0.04 -0.137,0.06c-0.834,0.43 -1.676,0.84 -2.526,1.22h-0.002l-1.002,-27.08l6.054,-2.02l0.279,-0.09z" fill="#2F2E41"/>
<path id="Vector_353" d="M302.9957,67.1701c2.433,-8.29 -2.304,-16.99 -10.579,-19.41c-8.276,-2.43 -16.956,2.33 -19.388,10.63c-2.433,8.29 2.304,16.99 10.579,19.41c8.276,2.43 16.956,-2.33 19.388,-10.63z" fill="#9F616A"/>
<path id="Vector_354" d="M272.2867,66.7001v-6.09c0,0 -4.913,-5.78 0.491,-7.24c0,0 1.474,-14.58 14.248,-7.78c0,0 17.688,-2.91 15.722,7.29c0,0 4.422,-2.66 2.948,4.14l-2.85,10.96c0,0 1.376,-7.24 -3.046,-8.21l-2.456,-1.46c0,0 -6.878,6.8 -17.196,-1.46c0,0 -4.422,-1.05 -3.931,3.32c0.492,4.37 -3.93,6.53 -3.93,6.53z" fill="#2F2E41"/>
<path id="Vector_355" d="M239.1787,255.0501c0.007,10.23 -2.462,20.32 -7.198,29.39c-4.736,9.07 -11.598,16.86 -19.999,22.71c-0.153,0.11 -0.312,0.22 -0.47,0.32c-0.92,0.64 -1.858,1.25 -2.814,1.83c-1.346,0.82 -2.723,1.59 -4.132,2.31c-0.854,0.44 -1.713,0.85 -2.589,1.25c-0.219,0.1 -0.443,0.2 -0.667,0.29c-1.527,0.68 -3.087,1.3 -4.675,1.85c-4.145,1.45 -8.432,2.46 -12.79,3.02c-2.705,0.35 -5.429,0.52 -8.155,0.52c-1.374,0 -2.742,-0.04 -4.094,-0.13c-1.183,-0.08 -2.354,-0.18 -3.514,-0.32c-1.867,-0.23 -3.711,-0.53 -5.528,-0.92c-0.06,-0.01 -0.126,-0.03 -0.186,-0.04c-3.775,-0.8 -7.467,-1.94 -11.029,-3.43c-0.968,-0.4 -1.926,-0.83 -2.868,-1.28c-1.187,-0.56 -2.351,-1.15 -3.491,-1.79c-9.8,-5.41 -17.994,-13.32 -23.751,-22.93c-5.757,-9.6 -8.873,-20.55 -9.031,-31.75c-0.159,-11.19 2.646,-22.23 8.129,-31.99c5.483,-9.76 13.45,-17.9 23.092,-23.59c9.643,-5.69 20.619,-8.73 31.814,-8.81c11.196,-0.08 22.214,2.81 31.936,8.36c9.723,5.55 17.805,13.57 23.426,23.26c5.621,9.68 8.583,20.67 8.584,31.87z" fill="#F1F1F1"/>
<path id="Vector_356" d="M173.9457,270.7001c7.829,0 14.177,-6.35 14.177,-14.18c0,-7.83 -6.348,-14.18 -14.177,-14.18c-7.83,0 -14.178,6.35 -14.178,14.18c0,7.83 6.348,14.18 14.178,14.18z" fill="#FFB8B8"/>
<path id="Vector_357" d="M168.0817,318.0801c-1.866,-0.22 -3.711,-0.52 -5.528,-0.91l1.724,-38.79l0.246,-0.26l3.53,-3.73h11.226l4.143,4.01l0.351,0.35l8.861,8.49l4.001,27.76c-4.146,1.45 -8.433,2.46 -12.791,3.02c-2.705,0.35 -5.429,0.52 -8.155,0.52c-1.374,0 -2.742,-0.04 -4.094,-0.13c-1.183,-0.08 -2.354,-0.18 -3.514,-0.33z" fill="#CBCBCB"/>
<path id="Vector_358" d="M148.4707,312.4201c-1.187,-0.56 -2.351,-1.15 -3.492,-1.79c-0.114,-10.51 -0.191,-17.49 -0.191,-17.49l1.335,-0.81c0.016,-0.01 0.033,-0.02 0.049,-0.02l15.156,-9.21l3.18,-5.17l0.016,0.19l0.936,10.89c2.819,9.62 4.87,19.45 6.136,29.4c-1.183,-0.08 -2.354,-0.18 -3.514,-0.32c-1.867,-0.23 -3.711,-0.53 -5.528,-0.92c-0.06,-0.01 -0.126,-0.03 -0.186,-0.04c-3.775,-0.8 -7.467,-1.94 -11.029,-3.43c-0.968,-0.4 -1.926,-0.83 -2.868,-1.28z" fill="#2F2E41"/>
<path id="Vector_359" d="M196.6357,315.0001c-4.146,1.45 -8.433,2.46 -12.791,3.02c-0.604,-3.53 -0.826,-7.12 -0.663,-10.7c1.183,-18.9 -1.543,-29.39 -0.361,-29.39l0.602,0.47l7.438,5.88l9.792,3.59h0.005l6.738,2.47l1.187,0.44v0.56c0.006,1.95 0.017,8.77 0.115,17.96c-1.346,0.82 -2.723,1.59 -4.132,2.31c-0.854,0.44 -1.713,0.85 -2.589,1.25c-0.219,0.1 -0.443,0.2 -0.667,0.29c-1.527,0.68 -3.087,1.3 -4.674,1.85z" fill="#2F2E41"/>
<path id="Vector_360" d="M160.5327,260.9601c0,0 1.205,-2.12 0.925,-9.19c-0.281,-7.06 10.48,-3.07 19.472,-3.74c8.992,-0.67 7.089,11.8 7.089,11.8c0,0 0.648,-0.74 2.037,-6.76c1.389,-6.02 -1.764,-12.02 -1.764,-12.02c-0.929,-6.33 -5.934,-4.3 -5.934,-4.3c2.41,0.94 1.947,2.95 1.947,2.95c-2.04,-3.58 -7.046,-1.55 -7.046,-1.55c-6.675,-4.19 -13.441,1.32 -13.441,1.32c-8.064,1.83 -3.335,8.25 -3.335,8.25c-8.11,4.1 0.05,13.24 0.05,13.24z" fill="#2F2E41"/>
<path id="Vector_361" d="M138.0997,306.2201c0.208,-4.81 0.301,-7.91 0.191,-8.35c-0.563,-2.25 7.132,-5.27 7.833,-5.54c0.016,-0.01 0.032,-0.02 0.049,-0.02l1.565,0.83l0.734,19.28c-1.188,-0.56 -2.352,-1.15 -3.492,-1.79c-2.386,-1.32 -4.685,-2.79 -6.88,-4.41z" fill="#2F2E41"/>
<path id="Vector_362" d="M208.6977,309.3001c-1.346,0.82 -2.724,1.59 -4.132,2.31c-0.854,0.44 -1.713,0.85 -2.589,1.25c-0.219,0.1 -0.443,0.2 -0.668,0.29l-2.463,-24.31l1.44,-1.05c0,0 0.131,0.03 0.367,0.08h0.005c1.155,0.29 4.702,1.23 6.738,2.47c0.454,0.26 0.857,0.6 1.187,1c0.201,0.24 0.301,0.55 0.279,0.87c-0.065,0.63 1.029,6.65 2.649,15.26c-0.919,0.64 -1.857,1.25 -2.813,1.83z" fill="#2F2E41"/>
<path id="Vector_363" d="M86.4857,267.9901h-23.544v-105.55h1.095v104.45h22.449z" fill="#F1F1F1"/>
<path id="Vector_364" d="M288.4417,267.9901h-23.544v-1.1h22.449v-105.43h1.095z" fill="#F1F1F1"/>
<path id="Vector_365" d="M287.8897,139.2101c7.991,0 14.469,-6.47 14.469,-14.46c0,-8 -6.478,-14.47 -14.469,-14.47c-7.991,0 -14.469,6.47 -14.469,14.47c0,7.99 6.478,14.46 14.469,14.46z" fill="#0EA5E9"/>
<path id="Vector_366" d="M286.5107,130.8501l-4.331,-5.57l2.519,-1.95l2.05,2.63l6.928,-7.31l2.316,2.19z" fill="white"/>
<path id="Vector_367" d="M63.4887,140.3401c7.991,0 14.469,-6.47 14.469,-14.47c0,-7.99 -6.478,-14.46 -14.469,-14.46c-7.991,0 -14.469,6.47 -14.469,14.46c0,8 6.478,14.47 14.469,14.47z" fill="#0EA5E9"/>
<path id="Vector_368" d="M62.1107,131.9801l-4.331,-5.57l2.518,-1.95l2.051,2.63l6.927,-7.31l2.316,2.19z" fill="white"/>
<path id="Vector_369" d="M175.6897,333.0001c7.991,0 14.469,-6.48 14.469,-14.47c0,-7.99 -6.478,-14.47 -14.469,-14.47c-7.991,0 -14.47,6.48 -14.47,14.47c0,7.99 6.479,14.47 14.47,14.47z" fill="#0EA5E9"/>
<path id="Vector_370" d="M174.3107,324.6401l-4.331,-5.57l2.519,-1.96l2.05,2.64l6.927,-7.31l2.316,2.19z" fill="white"/>
</g></svg>