<svg viewBox="0 0 430.5062 433" fill="none" xmlns="http://www.w3.org/2000/svg" xmlns:xlink="http://www.w3.org/1999/xlink" x="0" y="0"><defs><clipPath id="clip22_100_4">
<rect width="430.506" height="433" fill="white" transform="translate(0, 0.00010000000020227162)"/>
</clipPath></defs><g id="a_2" clip-path="url(#clip22_100_4)">
<path id="Vector_258" d="M302.89,431.4301h-187.252c-20.3,0 -36.816,-16.51 -36.816,-36.81v-357.8c0,-20.3 16.516,-36.82 36.816,-36.82h187.252c20.3,0 36.816,16.52 36.816,36.82v357.8c0,20.3 -16.516,36.81 -36.816,36.81z" fill="#3F3D56"/>
<path id="Vector_259" d="M339.706,131.6101c-0.859,0 -1.557,0.7 -1.557,1.56v49.84c0,0.86 0.698,1.56 1.557,1.56c0.859,0 1.558,-0.7 1.558,-1.56v-49.84c0,-0.86 -0.699,-1.56 -1.558,-1.56z" fill="#3F3D56"/>
<path id="Vector_260" d="M336.202,36.8201v357.79c0,17.67 -13.753,32.12 -31.142,33.25h-0.008c-0.257,0.01 -0.514,0.03 -0.779,0.03c-0.459,0.03 -0.919,0.04 -1.386,0.04c0,0 -1.713,-0.13 -4.844,-0.36c-3.162,-0.24 -7.764,-0.59 -13.504,-1.05c-1.721,-0.13 -3.535,-0.28 -5.451,-0.43c-3.816,-0.31 -8.006,-0.66 -12.499,-1.05c-1.791,-0.14 -3.645,-0.31 -5.537,-0.47c-9.672,-0.83 -20.505,-1.81 -31.929,-2.91c-1.932,-0.18 -3.878,-0.37 -5.841,-0.56c-0.514,-0.06 -1.036,-0.11 -1.557,-0.16c-8.146,-0.8 -16.518,-1.67 -24.921,-2.59c-0.521,-0.05 -1.043,-0.1 -1.557,-0.16c-14.477,-1.6 -29.009,-3.33 -42.606,-5.2c-10.459,-1.43 -20.365,-2.95 -29.258,-4.51c-2.897,-0.51 -5.685,-1.03 -8.348,-1.55c-0.522,-0.1 -1.044,-0.2 -1.558,-0.31c-18.823,-3.77 -31.15,-7.84 -31.15,-12.01v-357.79c0,-18.41 14.913,-33.32 33.315,-33.32h19.89c3.177,0 5.731,2.48 6.004,5.65c0.023,0.21 0.046,0.42 0.085,0.63c0.577,3.18 3.497,5.4 6.737,5.4h121.813c3.24,0 6.16,-2.22 6.736,-5.4c0.039,-0.21 0.063,-0.42 0.086,-0.63c0.273,-3.17 2.827,-5.65 6.004,-5.65h19.89c18.402,0 33.315,14.91 33.315,33.32z" fill="white"/>
<path id="Vector_261" d="M179.033,362.1201c0.117,0.52 0.218,1.04 0.319,1.56h-56.141c-3.629,0 -6.713,2.38 -7.779,5.65c-0.211,-0.34 -0.429,-0.68 -0.639,-1.02v-0.01c0.062,-0.55 0.125,-1.09 0.195,-1.64c1.113,-8.8 3.294,-17.46 6.495,-25.74c4.524,0.78 8.831,-2.26 9.617,-6.79c0.413,-2.41 -0.257,-4.89 -1.838,-6.77l-0.28,-2.31l0.288,-0.52c6.191,-10.67 19.866,-14.3 30.535,-8.11c5.07,2.93 8.785,7.75 10.334,13.41c2.944,10.67 6.604,21.45 8.894,32.29z" fill="#FAFAFA"/>
<path id="Vector_262" d="M330.19,274.1601l-0.14,0.51c-3.045,0.82 -6.036,1.82 -8.948,3c-1.667,0.69 -3.31,1.43 -4.93,2.23c-5.576,2.79 -7.834,9.56 -5.038,15.14c1.409,2.83 3.948,4.93 6.993,5.8l0.218,0.06l0.467,0.14c-6.432,11.17 -14.734,21.16 -24.546,29.53c-14.135,44.39 -50.838,44.16 -87.852,26.06h-0.024c-2.85,7.78 -6.051,15.42 -9.586,22.91c-0.514,1.09 -1.028,2.16 -1.558,3.24v-10.92c0,-0.7 -0.085,-1.39 -0.257,-2.03c0.312,-0.7 0.608,-1.39 0.904,-2.09c9.508,-22.37 15.925,-46 19.009,-70.25c1.192,-9.46 1.854,-18.97 1.986,-28.51c0.101,-7.81 -0.148,-15.61 -0.732,-23.4c-3.24,-42.27 -16.455,-83.17 -38.572,-119.34c-11.829,-8.53 -20.762,-20.48 -25.59,-34.25c-1.76,-4.94 -2.788,-10.12 -3.06,-15.37c1.409,0.38 8.13,-20.95 7.211,-22.43c2.383,-2.78 6.144,-3.84 8.699,-6.51c12.693,-13.35 27.318,-8.9 32.606,12.07c15.607,10.5 14.018,24.47 2.103,36.61c-7.577,7.71 -9.929,19.15 -16.782,27.56c0.49,0.83 1.012,1.64 1.503,2.46c9.002,15.16 16.494,31.16 22.373,47.77c0.296,-17.74 4.798,-35.17 13.138,-50.84c8.286,-14.54 21.829,-25.96 33.993,-37.9c9.002,-8.97 23.581,-8.95 32.552,0.05c4.307,4.32 6.721,10.18 6.721,16.28l-0.016,0.59c-1.666,0.68 -3.31,1.42 -4.929,2.23c-5.576,2.78 -7.827,9.57 -5.039,15.14c1.41,2.82 3.948,4.93 6.993,5.8l0.218,0.06c-1.261,5.55 -2.936,11 -5.023,16.29c6.916,53.76 -24.538,69.07 -66.147,64.7c-0.982,0.36 -1.932,0.72 -2.905,1.04c5.077,23.33 7.094,47.22 6.004,71.06c-0.685,14.06 -2.508,28.05 -5.443,41.82l0.132,-0.49c4.953,-15.1 14.96,-28.02 28.339,-36.6c19.851,-12.51 45.947,-14.75 66.849,-24.19c6.456,-3.09 14.181,-0.35 17.265,6.1c1.324,2.77 1.62,5.91 0.841,8.87z" fill="#FAFAFA"/>
<path id="Vector_263" d="M78.043,94.2301c-0.859,0 -1.557,0.7 -1.557,1.56v12.46c0,0.86 0.698,1.56 1.557,1.56c0.859,0 1.558,-0.7 1.558,-1.56v-12.46c0,-0.86 -0.699,-1.56 -1.558,-1.56z" fill="#3F3D56"/>
<path id="Vector_264" d="M78.043,131.6101c-0.859,0 -1.557,0.7 -1.557,1.56v24.14c0,0.86 0.698,1.56 1.557,1.56c0.859,0 1.558,-0.7 1.558,-1.56v-24.14c0,-0.86 -0.699,-1.56 -1.558,-1.56z" fill="#3F3D56"/>
<path id="Vector_265" d="M78.043,165.8801c-0.859,0 -1.557,0.69 -1.557,1.55v24.14c0,0.86 0.698,1.56 1.557,1.56c0.859,0 1.558,-0.7 1.558,-1.56v-24.14c0,-0.86 -0.699,-1.55 -1.558,-1.55z" fill="#3F3D56"/>
<path id="Vector_266" d="M133.725,8.9601h-27.257c-0.86,0 -1.557,0.69 -1.557,1.55v0.78c0,0.86 0.697,1.56 1.557,1.56h27.257c0.86,0 1.557,-0.7 1.557,-1.56v-0.78c0,-0.86 -0.697,-1.55 -1.557,-1.55z" fill="#3F3D56"/>
<path id="Vector_267" d="M287.919,12.8501c1.72,0 3.115,-1.4 3.115,-3.12c0,-1.72 -1.395,-3.11 -3.115,-3.11c-1.721,0 -3.115,1.39 -3.115,3.11c0,1.72 1.394,3.12 3.115,3.12z" fill="#3F3D56"/>
<path id="Vector_268" d="M296.485,12.8501c1.721,0 3.115,-1.4 3.115,-3.12c0,-1.72 -1.394,-3.11 -3.115,-3.11c-1.72,0 -3.115,1.39 -3.115,3.11c0,1.72 1.395,3.12 3.115,3.12z" fill="#3F3D56"/>
<path id="Vector_269" d="M305.052,12.8501c1.72,0 3.115,-1.4 3.115,-3.12c0,-1.72 -1.395,-3.11 -3.115,-3.11c-1.721,0 -3.115,1.39 -3.115,3.11c0,1.72 1.394,3.12 3.115,3.12z" fill="#3F3D56"/>
<path id="Vector_270" d="M279.353,48.2801h-140.177c-3.65,0 -6.619,-2.97 -6.619,-6.62c0,-3.65 2.969,-6.62 6.619,-6.62h140.177c3.65,0 6.619,2.97 6.619,6.62c0,3.65 -2.969,6.62 -6.619,6.62z" fill="#E6E6E6"/>
<path id="Vector_271" d="M141.512,44.7801c-2.147,0 -3.894,-1.75 -3.894,-3.9c0,-2.14 1.747,-3.89 3.894,-3.89c2.147,0 3.894,1.75 3.894,3.89c0,2.15 -1.747,3.9 -3.894,3.9zM141.512,38.5501c-1.288,0 -2.336,1.05 -2.336,2.33c0,1.29 1.048,2.34 2.336,2.34c1.288,0 2.336,-1.05 2.336,-2.34c0,-1.28 -1.048,-2.33 -2.336,-2.33z" fill="white"/>
<path id="Vector_272" d="M147.503,47.4201c-0.191,0 -0.382,-0.06 -0.532,-0.21l-3.655,-3.42c-0.314,-0.29 -0.33,-0.79 -0.035,-1.1c0.293,-0.32 0.786,-0.33 1.1,-0.04l3.655,3.43c0.314,0.29 0.33,0.78 0.035,1.1c-0.153,0.16 -0.36,0.24 -0.568,0.24z" fill="white"/>
<path id="Vector_273" d="M141.123,179.8901c-0.644,0 -1.168,0.53 -1.168,1.17v0.78c0,0.64 0.524,1.17 1.168,1.17h27.256c0.644,0 1.168,-0.53 1.168,-1.17v-0.78c0,-0.64 -0.524,-1.17 -1.168,-1.17z" fill="#3F3D56"/>
<path id="Vector_274" d="M187.07,168.2101h-63.858c-5.368,0 -9.735,-4.36 -9.735,-9.73v-63.86c0,-5.37 4.367,-9.74 9.735,-9.74h63.858c5.367,0 9.734,4.37 9.734,9.74v63.86c0,5.37 -4.367,9.73 -9.734,9.73zM123.212,86.4401c-4.516,0 -8.177,3.66 -8.177,8.18v63.86c0,4.51 3.661,8.17 8.177,8.17h44.731c15.079,0 27.304,-12.22 27.304,-27.3v-44.73c0,-4.52 -3.661,-8.18 -8.177,-8.18z" fill="#F2F2F2"/>
<g id="Group_7">
<path id="Vector_275" d="M132.556,93.0601c-4.938,0 -8.955,4.02 -8.955,8.96v14.02c0,4.93 4.017,8.95 8.955,8.95h14.018c4.938,0 8.956,-4.02 8.956,-8.95v-14.02c0,-4.94 -4.018,-8.96 -8.956,-8.96z" fill="#F2F2F2"/>
<path id="Vector_276" d="M169.158,93.0601c-4.938,0 -8.956,4.02 -8.956,8.96v14.02c0,4.93 4.018,8.95 8.956,8.95h14.018c4.938,0 8.955,-4.02 8.955,-8.95v-14.02c0,-4.94 -4.017,-8.96 -8.955,-8.96z" fill="#F2F2F2"/>
<path id="Vector_277" d="M129.831,128.5001c-4.939,0 -8.956,4.01 -8.956,8.95v14.02c0,4.94 4.017,8.95 8.956,8.95h14.017c4.939,0 8.956,-4.01 8.956,-8.95v-14.02c0,-4.94 -4.017,-8.95 -8.956,-8.95z" fill="#F2F2F2"/>
</g>
<path id="Vector_278" d="M249.37,179.8901c-0.644,0 -1.168,0.53 -1.168,1.17v0.78c0,0.64 0.524,1.17 1.168,1.17h27.257c0.644,0 1.168,-0.53 1.168,-1.17v-0.78c0,-0.64 -0.524,-1.17 -1.168,-1.17z" fill="#3F3D56"/>
<path id="Vector_279" d="M141.123,318.5101c-0.644,0 -1.168,0.53 -1.168,1.17v0.78c0,0.64 0.524,1.17 1.168,1.17h27.256c0.644,0 1.168,-0.53 1.168,-1.17v-0.78c0,-0.64 -0.524,-1.17 -1.168,-1.17z" fill="#3F3D56"/>
<path id="Vector_280" d="M187.07,306.8301h-63.858c-5.368,0 -9.735,-4.37 -9.735,-9.73v-63.86c0,-5.37 4.367,-9.74 9.735,-9.74h63.858c5.367,0 9.734,4.37 9.734,9.74v63.86c0,5.36 -4.367,9.73 -9.734,9.73zM123.212,225.0601c-4.516,0 -8.177,3.66 -8.177,8.18v63.86c0,4.51 3.661,8.17 8.177,8.17h45.509c14.65,0 26.526,-11.87 26.526,-26.52v-45.51c0,-4.52 -3.661,-8.18 -8.177,-8.18z" fill="#F2F2F2"/>
<path id="Vector_281" d="M129.831,231.2901c-4.939,0 -8.956,4.02 -8.956,8.96v14.02c0,4.93 4.017,8.95 8.956,8.95h14.017c4.939,0 8.956,-4.02 8.956,-8.95v-14.02c0,-4.94 -4.017,-8.96 -8.956,-8.96z" fill="#F2F2F2"/>
<path id="Vector_282" d="M166.432,231.2901c-4.938,0 -8.955,4.02 -8.955,8.96v14.02c0,4.93 4.017,8.95 8.955,8.95h14.018c4.938,0 8.956,-4.02 8.956,-8.95v-14.02c0,-4.94 -4.018,-8.96 -8.956,-8.96z" fill="#F2F2F2"/>
<path id="Vector_283" d="M129.831,267.1101c-4.939,0 -8.956,4.02 -8.956,8.96v14.02c0,4.94 4.017,8.95 8.956,8.95h14.017c4.939,0 8.956,-4.01 8.956,-8.95v-14.02c0,-4.94 -4.017,-8.96 -8.956,-8.96z" fill="#F2F2F2"/>
<path id="Vector_284" d="M249.37,318.5101c-0.644,0 -1.168,0.53 -1.168,1.17v0.78c0,0.64 0.524,1.17 1.168,1.17h27.257c0.644,0 1.168,-0.53 1.168,-1.17v-0.78c0,-0.64 -0.524,-1.17 -1.168,-1.17z" fill="#3F3D56"/>
<path id="Vector_285" d="M295.317,306.8301h-63.858c-5.368,0 -9.734,-4.37 -9.734,-9.73v-63.86c0,-5.37 4.366,-9.74 9.734,-9.74h63.858c5.368,0 9.735,4.37 9.735,9.74v63.86c0,5.36 -4.367,9.73 -9.735,9.73zM231.459,225.0601c-4.516,0 -8.177,3.66 -8.177,8.18v63.86c0,4.51 3.661,8.17 8.177,8.17h46.022c14.367,0 26.013,-11.64 26.013,-26.01v-46.02c0,-4.52 -3.661,-8.18 -8.177,-8.18z" fill="#F2F2F2"/>
<path id="Vector_286" d="M238.078,231.2901c-4.938,0 -8.955,4.02 -8.955,8.96v14.02c0,4.93 4.017,8.95 8.955,8.95h14.018c4.938,0 8.956,-4.02 8.956,-8.95v-14.02c0,-4.94 -4.018,-8.96 -8.956,-8.96z" fill="#F2F2F2"/>
<path id="Vector_287" d="M274.68,231.2901c-4.939,0 -8.956,4.02 -8.956,8.96v14.02c0,4.93 4.017,8.95 8.956,8.95h14.018c4.938,0 8.955,-4.02 8.955,-8.95v-14.02c0,-4.94 -4.017,-8.96 -8.955,-8.96z" fill="#F2F2F2"/>
<path id="Vector_288" d="M238.078,267.1101c-4.938,0 -8.955,4.02 -8.955,8.96v14.02c0,4.94 4.017,8.95 8.955,8.95h14.018c4.938,0 8.956,-4.01 8.956,-8.95v-14.02c0,-4.94 -4.018,-8.96 -8.956,-8.96z" fill="#F2F2F2"/>
<path id="Vector_289" d="M196.804,371.8501v46.5c-0.521,-0.05 -1.043,-0.1 -1.557,-0.16v-46.34c0,-0.7 -0.086,-1.38 -0.257,-2.03c-0.904,-3.53 -4.112,-6.14 -7.92,-6.14h-63.858c-3.629,0 -6.713,2.37 -7.78,5.65c-0.257,0.8 -0.397,1.64 -0.397,2.52v35.08c-0.522,-0.1 -1.044,-0.2 -1.558,-0.31v-34.77c0,-1.9 0.553,-3.69 1.511,-5.19c1.729,-2.73 4.766,-4.54 8.224,-4.54h63.858c3.894,0 7.258,2.3 8.823,5.61c0.584,1.25 0.911,2.65 0.911,4.12z" fill="#F2F2F2"/>
<path id="Vector_290" d="M143.848,369.9101h-14.017c-4.938,0 -8.956,4.02 -8.956,8.96v14.01c0,4.94 4.018,8.96 8.956,8.96h14.017c4.938,0 8.956,-4.02 8.956,-8.96v-14.01c0,-4.94 -4.018,-8.96 -8.956,-8.96z" fill="#F2F2F2"/>
<path id="Vector_291" d="M180.45,369.9101h-14.018c-4.937,0 -8.955,4.02 -8.955,8.96v14.01c0,4.94 4.018,8.96 8.955,8.96h14.018c4.937,0 8.956,-4.02 8.956,-8.96v-14.01c0,-4.94 -4.019,-8.96 -8.956,-8.96z" fill="#F2F2F2"/>
<path id="Vector_292" d="M143.849,405.7301h-14.018c-2.531,0 -4.821,1.06 -6.448,2.75c8.893,1.56 18.799,3.08 29.258,4.51c-0.795,-4.13 -4.431,-7.26 -8.792,-7.26z" fill="#F2F2F2"/>
<path id="Vector_293" d="M305.052,371.8501v56.04h-1.558v-56.04c0,-4.5 -3.668,-8.17 -8.177,-8.17h-63.858c-4.509,0 -8.177,3.67 -8.177,8.17v49.25c-0.514,-0.06 -1.036,-0.11 -1.557,-0.16v-49.09c0,-5.36 4.368,-9.73 9.734,-9.73h63.858c5.366,0 9.735,4.37 9.735,9.73z" fill="#F2F2F2"/>
<path id="Vector_294" d="M252.096,369.9101h-14.018c-4.937,0 -8.955,4.02 -8.955,8.96v14.01c0,4.94 4.018,8.96 8.955,8.96h14.018c4.937,0 8.956,-4.02 8.956,-8.96v-14.01c0,-4.94 -4.019,-8.96 -8.956,-8.96z" fill="#F2F2F2"/>
<path id="Vector_295" d="M288.698,369.9101h-14.018c-4.938,0 -8.956,4.02 -8.956,8.96v14.01c0,4.94 4.018,8.96 8.956,8.96h14.018c4.937,0 8.955,-4.02 8.955,-8.96v-14.01c0,-4.94 -4.018,-8.96 -8.955,-8.96z" fill="#F2F2F2"/>
<path id="Vector_296" d="M252.096,405.7301h-14.018c-4.937,0 -8.955,4.02 -8.955,8.96v6.97c11.424,1.1 22.257,2.08 31.929,2.91v-9.88c0,-4.94 -4.019,-8.96 -8.956,-8.96z" fill="#F2F2F2"/>
<path id="Vector_297" d="M161.16,266.9801c-2.108,0 -3.823,1.72 -3.823,3.82v5.99c0,2.1 1.715,3.82 3.823,3.82h5.983c2.108,0 3.823,-1.72 3.823,-3.82v-5.99c0,-2.1 -1.715,-3.82 -3.823,-3.82z" fill="#F2F2F2"/>
<path id="Vector_298" d="M179.85,266.9801c-2.108,0 -3.823,1.72 -3.823,3.82v5.99c0,2.1 1.715,3.82 3.823,3.82h5.983c2.108,0 3.823,-1.72 3.823,-3.82v-5.99c0,-2.1 -1.715,-3.82 -3.823,-3.82z" fill="#F2F2F2"/>
<path id="Vector_299" d="M161.16,129.9201c-2.108,0 -3.823,1.71 -3.823,3.82v5.99c0,2.1 1.715,3.82 3.823,3.82h5.983c2.108,0 3.823,-1.72 3.823,-3.82v-5.99c0,-2.11 -1.715,-3.82 -3.823,-3.82z" fill="#F2F2F2"/>
<path id="Vector_300" d="M179.85,129.9201c-2.108,0 -3.823,1.71 -3.823,3.82v5.99c0,2.1 1.715,3.82 3.823,3.82h5.983c2.108,0 3.823,-1.72 3.823,-3.82v-5.99c0,-2.11 -1.715,-3.82 -3.823,-3.82z" fill="#F2F2F2"/>
<path id="Vector_301" d="M275.529,405.7301h-5.981c-2.111,0 -3.824,1.72 -3.824,3.83v5.98c0,2.11 1.713,3.82 3.824,3.82h5.981c2.11,0 3.823,-1.71 3.823,-3.82v-5.98c0,-2.11 -1.713,-3.83 -3.823,-3.83z" fill="#F2F2F2"/>
<path id="Vector_302" d="M294.219,405.7301h-5.981c-2.11,0 -3.823,1.72 -3.823,3.83v5.98c0,2.11 1.713,3.82 3.823,3.82h5.981c2.111,0 3.824,-1.71 3.824,-3.82v-5.98c0,-2.11 -1.713,-3.83 -3.824,-3.83z" fill="#F2F2F2"/>
<path id="Vector_303" d="M275.529,423.6401h-5.981c-1.191,0 -2.258,0.55 -2.959,1.4c4.493,0.39 8.683,0.74 12.499,1.05c-0.545,-1.44 -1.931,-2.45 -3.559,-2.45z" fill="#F2F2F2"/>
<path id="Vector_304" d="M294.219,423.6401h-5.981c-1.783,0 -3.286,1.22 -3.699,2.88c5.74,0.46 10.342,0.81 13.504,1.05v-0.1c0,-2.11 -1.714,-3.83 -3.824,-3.83z" fill="#F2F2F2"/>
<g id="Group_8">
<g id="Group_9">
<path id="Vector_305" d="M309.897,94.6501l2.621,13.08l-7.259,2.54l-2.28,-13.92c-0.334,-0.28 -0.634,-0.6 -0.886,-0.98c-1.372,-2.05 -0.824,-4.82 1.223,-6.19c2.048,-1.37 4.821,-0.82 6.193,1.22c0.874,1.31 0.965,2.91 0.388,4.25z" fill="#A0616A"/>
<path id="Vector_306" d="M347.859,180.2601l10.626,-11.45l-34.065,-34.84c0,0 -1.392,-1.31 -0.452,-1.49c0.941,-0.19 -0.482,-1.59 -0.482,-1.59c0,0 -2.218,-2.11 -0.439,-1.45c1.78,0.65 -0.476,-1.58 -0.476,-1.58l-7.978,-26.33l-1.415,-4.67l-11.915,7.11c0,0 0.105,0.9 0.316,2.44c1.063,7.79 4.797,31.81 11.103,37.91c7.554,7.32 35.177,35.94 35.177,35.94z" fill="#0EA5E9"/>
</g>
<g id="Group_10">
<path id="Vector_307" d="M317.879,424.1701h-7.505l-3.571,-28.95h11.077z" fill="#A0616A"/>
<path id="Vector_308" d="M318.143,432.0001h-23.08v-0.29c0,-4.96 4.022,-8.99 8.983,-8.99l4.217,-3.19l7.865,3.19h2.015z" fill="#2F2E41"/>
</g>
<g id="Group_11">
<path id="Vector_309" d="M379.107,416.8101l-7.097,2.44l-12.792,-26.21l10.475,-3.6z" fill="#A0616A"/>
<path id="Vector_310" d="M381.904,424.1301l-21.826,7.51l-0.095,-0.28c-1.613,-4.69 0.882,-9.8 5.574,-11.41l2.946,-4.4l8.479,0.47l1.905,-0.66z" fill="#2F2E41"/>
</g>
<path id="Vector_311" d="M365.102,230.4501h-50.331c0,0 -2.45,21.79 -3.359,20.47c-0.909,-1.33 -0.646,0.59 -0.388,2.36c0.258,1.76 -2.305,2.85 -0.635,3.87c1.671,1.01 1.071,2.89 -0.576,3.51c-1.646,0.61 -0.868,5.29 -0.868,5.29l-8.566,83.65l7.009,62.75h11.681l15.575,-114.47v58.4l31.151,52.18l10.124,-3.89l-12.461,-56.08l9.346,-103.57z" fill="#2F2E41"/>
<path id="Vector_312" d="M373.582,236.3501l-3.847,4.22l-58.453,2.01l-2.337,-5.45l11.682,-26.48l12.46,-53.73l5.451,-11.68v-1.29c0,-0.18 -0.042,-0.35 -0.122,-0.51c-0.335,-0.67 0.045,-1.48 0.774,-1.65l0.127,-2l-1.558,0.78l10.124,-4.68l8.333,0.82l0.234,0.74l1.736,1.33c7.235,5.53 11.409,14.17 11.246,23.27l-0.522,29.14z" fill="#3F3D56"/>
<path id="Vector_313" d="M339.52,131.9801c0.348,0.08 0.695,0.15 1.042,0.21c1.08,0.17 2.159,0.23 3.212,0.16c3.196,-0.16 6.21,-1.35 8.647,-3.29c2.576,-2.05 4.5,-4.95 5.307,-8.41c1.897,-8.15 -3.175,-16.3 -11.324,-18.2c-8.033,-1.88 -16.065,3.02 -18.117,10.96c-0.032,0.12 -0.064,0.24 -0.091,0.36c-1.897,8.16 3.169,16.31 11.324,18.21z" fill="#A0616A"/>
<g id="Group_12">
<path id="Vector_314" d="M316.492,237.1401l7.798,-10.81l6.801,3.59l-8.652,11.14c0.028,0.43 -0.006,0.87 -0.111,1.31c-0.567,2.4 -2.972,3.89 -5.37,3.32c-2.399,-0.57 -3.884,-2.97 -3.316,-5.37c0.362,-1.53 1.472,-2.69 2.85,-3.18z" fill="#A0616A"/>
<path id="Vector_315" d="M353.402,151.0801h-15.618l-2.361,48.67c0,0 -0.012,1.91 -0.785,1.35c-0.772,-0.57 -0.837,1.43 -0.837,1.43c0,0 -0.036,3.06 -0.764,1.31c-0.729,-1.75 -0.828,1.42 -0.828,1.42l-13.874,23.76l-2.46,4.22l13.318,3.89c0,0 0.591,-0.69 1.578,-1.89c4.979,-6.08 20.043,-25.16 20.227,-33.93c0.221,-10.51 2.404,-50.23 2.404,-50.23z" fill="#0EA5E9"/>
</g>
<path id="Vector_316" d="M333.087,162.3701c0,0 12.46,-16.35 23.363,-0.78l-2.337,-20.25l-11.916,-2.19c-0.698,-0.07 -1.302,0.49 -1.278,1.19z" fill="#3F3D56"/>
<path id="Vector_317" d="M337.759,146.0201l-0.038,-2.7l-0.359,-0.57l0.397,-0.63l0.063,-0.14l1.495,-6.09l13.317,-4.67l3.582,5.49c-5.381,3.63 -6.604,9.44 -18.457,9.31z" fill="#0EA5E9"/>
<path id="Vector_318" d="M350.331,129.7301l-1.298,-9.74c-0.129,-0.97 -1.387,-1.26 -1.928,-0.45h-2.337l-2.336,-7.79c0,0 -0.891,3.53 -2.397,2.66c-1.658,-0.95 -3.734,-0.47 -5.579,0.03l0.842,-2.24l-3.75,1.03l0.503,-1.59l-2.33,0.75c0.4,-0.3 0.039,-1.01 -0.454,-1.09c-0.494,-0.07 -2.41,2.01 -3.189,2.01c-0.642,0 -1.274,-0.52 -1.769,-0.92c-1.315,-1.09 -1.971,-6.52 -1.346,-7.65c1.159,-2.09 3.787,-1.39 5.451,-3.11c0.371,-0.38 4.296,-0.4 4.673,-0.78c0.465,-0.47 3.829,-2.13 4.486,-2.13c0.657,-0.01 1.279,0.81 0.851,1.31c0.306,-0.99 1.58,-1.24 2.616,-1.22c0.73,0.01 3.002,-1.92 3.728,-1.85c1.565,0.13 1.584,2.27 3.149,2.4c1.263,0.12 2.764,0.39 3.261,1.56c0.243,0.57 0.17,1.21 0.188,1.83c0.018,0.62 0.18,1.31 0.708,1.64c0.459,0.28 1.074,0.19 1.538,-0.09c0.463,-0.27 0.808,-0.71 1.142,-1.13c0.506,1.63 3.348,5.61 3.853,7.24c0.512,1.66 1.025,3.32 1.286,5.03c0.795,5.22 -4.826,10.77 -8.444,14.62" fill="#2F2E41"/>
</g>
<path id="Vector_319" d="M231.459,85.6601c-4.939,0 -8.956,4.02 -8.956,8.96v63.86c0,4.94 4.017,8.95 8.956,8.95h63.858c4.938,0 8.956,-4.01 8.956,-8.95v-63.86c0,-4.94 -4.018,-8.96 -8.956,-8.96z" fill="#F2F2F2"/>
<path id="Vector_320" d="M238.078,92.6701c-4.938,0 -8.955,4.02 -8.955,8.96v14.02c0,4.93 4.017,8.95 8.955,8.95h14.018c4.938,0 8.956,-4.02 8.956,-8.95v-14.02c0,-4.94 -4.018,-8.96 -8.956,-8.96z" fill="#0EA5E9"/>
<path id="Vector_321" d="M274.68,92.6701c-4.939,0 -8.956,4.02 -8.956,8.96v14.02c0,4.93 4.017,8.95 8.956,8.95h14.018c4.938,0 8.955,-4.02 8.955,-8.95v-14.02c0,-4.94 -4.017,-8.96 -8.955,-8.96z" fill="#0EA5E9"/>
<path id="Vector_322" d="M238.078,128.5001c-4.938,0 -8.955,4.01 -8.955,8.95v14.02c0,4.94 4.017,8.95 8.955,8.95h14.018c4.938,0 8.956,-4.01 8.956,-8.95v-14.02c0,-4.94 -4.018,-8.95 -8.956,-8.95z" fill="white"/>
<g id="Group_13">
<path id="Vector_323" d="M269.547,128.5001c-2.108,0 -3.823,1.71 -3.823,3.82v5.98c0,2.11 1.715,3.82 3.823,3.82h5.983c2.108,0 3.822,-1.71 3.822,-3.82v-5.98c0,-2.11 -1.714,-3.82 -3.822,-3.82z" fill="white"/>
<path id="Vector_324" d="M288.237,128.5001c-2.108,0 -3.822,1.71 -3.822,3.82v5.98c0,2.11 1.714,3.82 3.822,3.82h5.983c2.108,0 3.823,-1.71 3.823,-3.82v-5.98c0,-2.11 -1.715,-3.82 -3.823,-3.82z" fill="white"/>
<path id="Vector_325" d="M269.547,146.4101c-2.108,0 -3.823,1.71 -3.823,3.82v5.98c0,2.11 1.715,3.82 3.823,3.82h5.983c2.108,0 3.822,-1.71 3.822,-3.82v-5.98c0,-2.11 -1.714,-3.82 -3.822,-3.82z" fill="white"/>
<path id="Vector_326" d="M288.237,146.4101c-2.108,0 -3.822,1.71 -3.822,3.82v5.98c0,2.11 1.714,3.82 3.822,3.82h5.983c2.108,0 3.823,-1.71 3.823,-3.82v-5.98c0,-2.11 -1.715,-3.82 -3.823,-3.82z" fill="white"/>
</g>
<g id="Group_14">
<path id="Vector_327" d="M388.251,419.5001c1.609,0.1 2.498,-1.9 1.281,-3.06l-0.121,-0.48c0.016,-0.04 0.032,-0.08 0.048,-0.12c1.627,-3.88 7.141,-3.85 8.755,0.03c1.431,3.45 3.254,6.91 3.703,10.55c0.201,1.61 0.111,3.25 -0.246,4.83c3.355,-7.33 5.12,-15.33 5.12,-23.38c0,-2.02 -0.111,-4.04 -0.337,-6.06c-0.186,-1.65 -0.442,-3.29 -0.774,-4.91c-1.796,-8.78 -5.684,-17.15 -11.293,-24.14c-2.696,-1.47 -4.944,-3.77 -6.302,-6.53c-0.488,-1 -0.87,-2.07 -1.051,-3.16c0.306,0.04 1.157,-4.64 0.925,-4.92c0.428,-0.65 1.193,-0.97 1.66,-1.61c2.323,-3.15 5.522,-2.6 7.193,1.68c3.568,1.8 3.603,4.79 1.413,7.66c-1.393,1.83 -1.584,4.3 -2.806,6.26c0.125,0.16 0.256,0.32 0.382,0.48c2.306,2.96 4.3,6.14 5.981,9.47c-0.475,-3.71 0.227,-8.18 1.423,-11.06c1.361,-3.29 3.913,-6.05 6.16,-8.89c2.699,-3.41 8.234,-1.92 8.71,2.4c0.004,0.04 0.009,0.08 0.013,0.13c-0.333,0.18 -0.66,0.38 -0.98,0.6c-1.822,1.2 -1.192,4.02 0.967,4.36l0.049,0.01c-0.121,1.2 -0.327,2.39 -0.629,3.56c2.883,11.15 -3.341,15.21 -12.228,15.39c-0.196,0.1 -0.387,0.2 -0.583,0.3c0.9,2.54 1.619,5.14 2.152,7.77c0.478,2.33 0.81,4.68 0.996,7.05c0.232,2.98 0.212,5.98 -0.04,8.96l0.015,-0.11c0.639,-3.28 2.42,-6.34 5.005,-8.46c3.851,-3.17 9.293,-4.33 13.448,-6.88c2,-1.22 4.563,0.36 4.214,2.68l-0.017,0.11c-0.619,0.25 -1.222,0.54 -1.806,0.87c-0.334,0.19 -0.661,0.39 -0.98,0.6c-1.822,1.21 -1.192,4.03 0.966,4.36l0.049,0.01c0.036,0.01 0.066,0.01 0.101,0.02c-1.061,2.52 -2.54,4.85 -4.391,6.87c-1.803,9.73 -9.545,10.66 -17.826,7.82h-0.005c-0.906,3.95 -2.228,7.8 -3.929,11.47h-14.033c-0.05,-0.15 -0.096,-0.32 -0.141,-0.47c1.298,0.08 2.606,0 3.883,-0.23c-1.041,-1.28 -2.082,-2.57 -3.123,-3.85c-0.025,-0.02 -0.046,-0.05 -0.066,-0.07c-0.528,-0.65 -1.061,-1.3 -1.589,-1.96v0c-0.033,-2.01 0.208,-4.01 0.684,-5.95z" fill="#F2F2F2"/>
<path id="Vector_328" d="M0,432.0701c0,0.52 0.413,0.93 0.927,0.93h428.543c0.514,0 0.927,-0.41 0.927,-0.93c0,-0.51 -0.413,-0.92 -0.927,-0.92h-428.543c-0.514,0 -0.927,0.41 -0.927,0.92z" fill="#CCCCCC"/>
</g>
</g></svg>