<svg viewBox="0 0 443 87" fill="none" xmlns="http://www.w3.org/2000/svg" xmlns:xlink="http://www.w3.org/1999/xlink" x="0" y="0"><defs><mask id="mask0_123_13" style="mask-type:alpha" maskUnits="userSpaceOnUse" x="3" y="13.75" width="437" height="71">
<path id="Digital Future" d="M22.687,68.97h-18.8312v-50.947h18.8062c5.191,0 9.661,1.02 13.409,3.06c3.764,2.023 6.666,4.942 8.706,8.757c2.04,3.797 3.06,8.341 3.06,13.632c0,5.307 -1.02,9.867 -3.06,13.682c-2.023,3.814 -4.917,6.741 -8.681,8.781c-3.765,2.023 -8.235,3.035 -13.409,3.035zM16.17,58.472h6.045c2.852,0 5.265,-0.481 7.239,-1.443c1.99,-0.978 3.491,-2.562 4.502,-4.751c1.028,-2.206 1.542,-5.141 1.542,-8.806c0,-3.665 -0.514,-6.584 -1.542,-8.757c-1.028,-2.189 -2.546,-3.764 -4.552,-4.726c-1.99,-0.979 -4.445,-1.468 -7.364,-1.468h-5.87zM53.226,68.97v-38.21h12.165v38.21zM59.321,26.307c-1.708,0 -3.176,-0.564 -4.403,-1.691c-1.227,-1.145 -1.841,-2.521 -1.841,-4.13c0,-1.592 0.614,-2.952 1.841,-4.08c1.227,-1.144 2.695,-1.716 4.403,-1.716c1.725,0 3.193,0.572 4.403,1.716c1.227,1.128 1.841,2.488 1.841,4.08c0,1.609 -0.614,2.985 -1.841,4.13c-1.21,1.127 -2.678,1.691 -4.403,1.691zM89.145,84.095c-3.632,0 -6.741,-0.506 -9.329,-1.518c-2.587,-1.011 -4.618,-2.396 -6.094,-4.154c-1.476,-1.758 -2.363,-3.748 -2.662,-5.97l11.518,-0.647c0.215,0.779 0.613,1.459 1.194,2.04c0.597,0.58 1.368,1.028 2.313,1.343c0.962,0.315 2.09,0.473 3.383,0.473c2.04,0 3.724,-0.498 5.05,-1.493c1.344,-0.978 2.015,-2.695 2.015,-5.149v-6.717h-0.423c-0.481,1.178 -1.21,2.231 -2.189,3.159c-0.978,0.929 -2.197,1.659 -3.657,2.19c-1.442,0.53 -3.101,0.796 -4.975,0.796c-2.786,0 -5.34,-0.647 -7.662,-1.941c-2.305,-1.31 -4.154,-3.333 -5.547,-6.07c-1.377,-2.753 -2.065,-6.293 -2.065,-10.622c0,-4.461 0.713,-8.134 2.14,-11.02c1.426,-2.902 3.292,-5.05 5.597,-6.443c2.321,-1.393 4.817,-2.09 7.487,-2.09c2.007,0 3.724,0.349 5.15,1.045c1.443,0.68 2.628,1.559 3.557,2.637c0.929,1.078 1.634,2.198 2.115,3.358h0.348v-6.542h12.115v38.359c0,3.234 -0.813,5.962 -2.438,8.185c-1.625,2.222 -3.897,3.905 -6.816,5.049c-2.919,1.161 -6.294,1.742 -10.125,1.742zM89.518,59.592c1.476,0 2.737,-0.39 3.781,-1.17c1.045,-0.779 1.85,-1.898 2.413,-3.358c0.564,-1.459 0.846,-3.209 0.846,-5.249c0,-2.073 -0.282,-3.856 -0.846,-5.348c-0.547,-1.509 -1.351,-2.67 -2.413,-3.483c-1.044,-0.812 -2.305,-1.219 -3.781,-1.219c-1.509,0 -2.786,0.415 -3.831,1.244c-1.045,0.829 -1.841,1.998 -2.388,3.508c-0.531,1.492 -0.796,3.258 -0.796,5.298c0,2.04 0.274,3.79 0.821,5.249c0.547,1.46 1.335,2.579 2.363,3.358c1.045,0.78 2.322,1.17 3.831,1.17zM114.479,68.97v-38.21h12.164v38.21zM120.574,26.307c-1.709,0 -3.176,-0.564 -4.404,-1.691c-1.227,-1.145 -1.84,-2.521 -1.84,-4.13c0,-1.592 0.613,-2.952 1.84,-4.08c1.228,-1.144 2.695,-1.716 4.404,-1.716c1.724,0 3.192,0.572 4.403,1.716c1.227,1.128 1.841,2.488 1.841,4.08c0,1.609 -0.614,2.985 -1.841,4.13c-1.211,1.127 -2.679,1.691 -4.403,1.691zM154.154,30.76v8.955h-24.105v-8.955zM135.099,21.606h12.164v35.349c0,0.746 0.116,1.351 0.348,1.816c0.249,0.447 0.606,0.771 1.07,0.97c0.464,0.182 1.02,0.274 1.667,0.274c0.464,0 0.953,-0.042 1.468,-0.125c0.53,-0.099 0.928,-0.182 1.194,-0.249l1.84,8.782c-0.58,0.166 -1.401,0.373 -2.462,0.622c-1.045,0.248 -2.297,0.406 -3.757,0.472c-2.852,0.133 -5.298,-0.199 -7.338,-0.995c-2.023,-0.812 -3.574,-2.073 -4.652,-3.781c-1.061,-1.708 -1.576,-3.856 -1.542,-6.443zM169.332,69.617c-2.438,0 -4.602,-0.407 -6.493,-1.219c-1.874,-0.829 -3.358,-2.073 -4.453,-3.732c-1.078,-1.675 -1.617,-3.773 -1.617,-6.293c0,-2.123 0.374,-3.914 1.12,-5.374c0.746,-1.459 1.774,-2.645 3.085,-3.557c1.31,-0.912 2.819,-1.6 4.527,-2.065c1.708,-0.481 3.532,-0.804 5.473,-0.97c2.172,-0.199 3.922,-0.406 5.249,-0.622c1.326,-0.232 2.288,-0.555 2.885,-0.97c0.614,-0.431 0.921,-1.036 0.921,-1.816v-0.124c0,-1.277 -0.44,-2.264 -1.319,-2.961c-0.879,-0.696 -2.064,-1.044 -3.557,-1.044c-1.609,0 -2.902,0.348 -3.881,1.044c-0.978,0.697 -1.6,1.659 -1.865,2.886l-11.22,-0.398c0.332,-2.322 1.186,-4.395 2.563,-6.219c1.393,-1.841 3.3,-3.284 5.721,-4.328c2.438,-1.062 5.365,-1.593 8.782,-1.593c2.437,0 4.685,0.291 6.741,0.871c2.056,0.564 3.848,1.393 5.373,2.488c1.526,1.078 2.704,2.404 3.533,3.98c0.846,1.575 1.268,3.375 1.268,5.398v25.971h-11.443v-5.324h-0.298c-0.68,1.294 -1.551,2.389 -2.612,3.284c-1.045,0.896 -2.281,1.567 -3.707,2.015c-1.409,0.448 -3.002,0.672 -4.776,0.672zM173.088,61.656c1.31,0 2.488,-0.265 3.533,-0.796c1.061,-0.53 1.907,-1.26 2.537,-2.189c0.63,-0.945 0.945,-2.04 0.945,-3.283v-3.632c-0.348,0.182 -0.771,0.348 -1.268,0.497c-0.481,0.149 -1.012,0.29 -1.592,0.423c-0.581,0.133 -1.178,0.249 -1.791,0.348c-0.614,0.1 -1.203,0.191 -1.767,0.274c-1.144,0.182 -2.122,0.464 -2.935,0.846c-0.796,0.381 -1.41,0.879 -1.841,1.492c-0.415,0.597 -0.622,1.31 -0.622,2.14c0,1.26 0.448,2.222 1.343,2.885c0.913,0.664 2.065,0.995 3.458,0.995zM209.971,18.023v50.947h-12.165v-50.947zM229.164,68.97v-50.947h34.777v10.001h-22.463v10.448h20.249v10.025h-20.249v20.473zM290.599,52.477v-21.717h12.14v38.21h-11.592v-7.115h-0.398c-0.846,2.339 -2.289,4.196 -4.329,5.573c-2.023,1.36 -4.469,2.039 -7.338,2.039c-2.604,0 -4.893,-0.597 -6.866,-1.791c-1.974,-1.194 -3.508,-2.86 -4.602,-5c-1.095,-2.156 -1.65,-4.676 -1.667,-7.562v-24.354h12.164v21.966c0.017,2.073 0.564,3.706 1.642,4.9c1.078,1.194 2.546,1.791 4.403,1.791c1.211,0 2.297,-0.265 3.259,-0.796c0.979,-0.547 1.75,-1.335 2.314,-2.363c0.58,-1.045 0.87,-2.305 0.87,-3.781zM330.25,30.76v8.955h-24.106v-8.955zM311.194,21.606h12.165v35.349c0,0.746 0.116,1.351 0.348,1.816c0.249,0.447 0.605,0.771 1.07,0.97c0.464,0.182 1.02,0.274 1.666,0.274c0.465,0 0.954,-0.042 1.468,-0.125c0.531,-0.099 0.929,-0.182 1.194,-0.249l1.841,8.782c-0.58,0.166 -1.401,0.373 -2.463,0.622c-1.045,0.248 -2.297,0.406 -3.756,0.472c-2.853,0.133 -5.299,-0.199 -7.339,-0.995c-2.023,-0.812 -3.573,-2.073 -4.651,-3.781c-1.062,-1.708 -1.576,-3.856 -1.543,-6.443zM359.309,52.477v-21.717h12.139v38.21h-11.592v-7.115h-0.398c-0.846,2.339 -2.289,4.196 -4.329,5.573c-2.023,1.36 -4.469,2.039 -7.338,2.039c-2.604,0 -4.893,-0.597 -6.866,-1.791c-1.974,-1.194 -3.508,-2.86 -4.602,-5c-1.095,-2.156 -1.65,-4.676 -1.667,-7.562v-24.354h12.165v21.966c0.016,2.073 0.564,3.706 1.641,4.9c1.078,1.194 2.546,1.791 4.404,1.791c1.21,0 2.297,-0.265 3.258,-0.796c0.979,-0.547 1.75,-1.335 2.314,-2.363c0.58,-1.045 0.871,-2.305 0.871,-3.781zM377.391,68.97v-38.21h11.816v6.965h0.398c0.697,-2.52 1.833,-4.394 3.408,-5.622c1.576,-1.244 3.408,-1.865 5.498,-1.865c0.564,0 1.144,0.041 1.741,0.124c0.597,0.066 1.153,0.174 1.667,0.323v10.573c-0.58,-0.199 -1.343,-0.357 -2.289,-0.473c-0.928,-0.116 -1.758,-0.174 -2.487,-0.174c-1.443,0 -2.745,0.323 -3.906,0.97c-1.144,0.63 -2.048,1.518 -2.711,2.662c-0.647,1.128 -0.971,2.454 -0.971,3.98v20.747zM420.953,69.691c-3.997,0 -7.446,-0.787 -10.349,-2.363c-2.885,-1.592 -5.108,-3.856 -6.667,-6.791c-1.542,-2.952 -2.313,-6.46 -2.313,-10.523c0,-3.947 0.779,-7.396 2.338,-10.348c1.559,-2.969 3.757,-5.274 6.593,-6.916c2.835,-1.658 6.177,-2.488 10.025,-2.488c2.72,0 5.207,0.423 7.463,1.269c2.255,0.846 4.204,2.098 5.846,3.756c1.641,1.659 2.918,3.707 3.83,6.145c0.913,2.421 1.369,5.199 1.369,8.333v3.035h-33.21v-7.064h21.891c-0.017,-1.294 -0.323,-2.447 -0.92,-3.458c-0.598,-1.012 -1.418,-1.8 -2.463,-2.364c-1.028,-0.58 -2.214,-0.87 -3.558,-0.87c-1.359,0 -2.578,0.307 -3.656,0.92c-1.078,0.597 -1.932,1.418 -2.563,2.463c-0.63,1.028 -0.961,2.197 -0.995,3.508v7.189c0,1.559 0.307,2.927 0.921,4.104c0.613,1.161 1.484,2.065 2.612,2.712c1.127,0.647 2.471,0.97 4.03,0.97c1.078,0 2.056,-0.149 2.935,-0.448c0.879,-0.298 1.634,-0.738 2.264,-1.318c0.63,-0.581 1.103,-1.294 1.418,-2.14l11.169,0.324c-0.464,2.504 -1.484,4.685 -3.059,6.542c-1.559,1.841 -3.608,3.276 -6.145,4.304c-2.537,1.012 -5.473,1.517 -8.806,1.517z" fill="black"/>
</mask><linearGradient id="paint1_linear_123_13" x1="0" y1="43.5" x2="443" y2="43.5" gradientUnits="userSpaceOnUse">
<stop stop-color="#38BDF8"/>
<stop offset="1" stop-color="#C084FC"/>
</linearGradient></defs><g id="text_2">
<mask id="mask0_123_13" style="mask-type:alpha" maskUnits="userSpaceOnUse" x="89" y="312" width="437" height="71">
<path id="Digital Future" d="M108.687 367.22H89.8558V316.273H108.662C113.853 316.273 118.323 317.293 122.071 319.333C125.835 321.356 128.737 324.275 130.777 328.09C132.817 331.887 133.837 336.431 133.837 341.722C133.837 347.029 132.817 351.589 130.777 355.404C128.754 359.218 125.86 362.145 122.096 364.185C118.331 366.208 113.861 367.22 108.687 367.22ZM102.17 356.722H108.215C111.067 356.722 113.48 356.241 115.454 355.279C117.444 354.301 118.945 352.717 119.956 350.528C120.984 348.322 121.498 345.387 121.498 341.722C121.498 338.057 120.984 335.138 119.956 332.965C118.928 330.776 117.41 329.201 115.404 328.239C113.414 327.26 110.959 326.771 108.04 326.771H102.17V356.722ZM139.226 367.22V329.01H151.391V367.22H139.226ZM145.321 324.557C143.613 324.557 142.145 323.993 140.918 322.866C139.691 321.721 139.077 320.345 139.077 318.736C139.077 317.144 139.691 315.784 140.918 314.656C142.145 313.512 143.613 312.94 145.321 312.94C147.046 312.94 148.514 313.512 149.724 314.656C150.951 315.784 151.565 317.144 151.565 318.736C151.565 320.345 150.951 321.721 149.724 322.866C148.514 323.993 147.046 324.557 145.321 324.557ZM175.145 382.345C171.513 382.345 168.404 381.839 165.816 380.827C163.229 379.816 161.198 378.431 159.722 376.673C158.246 374.915 157.359 372.925 157.06 370.703L168.578 370.056C168.793 370.835 169.191 371.515 169.772 372.096C170.369 372.676 171.14 373.124 172.085 373.439C173.047 373.754 174.175 373.912 175.468 373.912C177.508 373.912 179.192 373.414 180.518 372.419C181.862 371.441 182.533 369.724 182.533 367.27V360.553H182.11C181.629 361.731 180.9 362.784 179.921 363.712C178.943 364.641 177.724 365.371 176.264 365.902C174.822 366.432 173.163 366.698 171.289 366.698C168.503 366.698 165.949 366.051 163.627 364.757C161.322 363.447 159.473 361.424 158.08 358.687C156.703 355.934 156.015 352.394 156.015 348.065C156.015 343.604 156.728 339.931 158.155 337.045C159.581 334.143 161.447 331.995 163.752 330.602C166.073 329.209 168.569 328.512 171.239 328.512C173.246 328.512 174.963 328.861 176.389 329.557C177.832 330.237 179.017 331.116 179.946 332.194C180.875 333.272 181.58 334.392 182.061 335.552H182.409V329.01H194.524V367.369C194.524 370.603 193.711 373.331 192.086 375.554C190.461 377.776 188.189 379.459 185.27 380.603C182.351 381.764 178.976 382.345 175.145 382.345ZM175.518 357.842C176.994 357.842 178.255 357.452 179.299 356.672C180.344 355.893 181.149 354.774 181.712 353.314C182.276 351.855 182.558 350.105 182.558 348.065C182.558 345.992 182.276 344.209 181.712 342.717C181.165 341.208 180.361 340.047 179.299 339.234C178.255 338.422 176.994 338.015 175.518 338.015C174.009 338.015 172.732 338.43 171.687 339.259C170.642 340.088 169.846 341.257 169.299 342.767C168.768 344.259 168.503 346.025 168.503 348.065C168.503 350.105 168.777 351.855 169.324 353.314C169.871 354.774 170.659 355.893 171.687 356.672C172.732 357.452 174.009 357.842 175.518 357.842ZM200.479 367.22V329.01H212.643V367.22H200.479ZM206.574 324.557C204.865 324.557 203.398 323.993 202.17 322.866C200.943 321.721 200.33 320.345 200.33 318.736C200.33 317.144 200.943 315.784 202.17 314.656C203.398 313.512 204.865 312.94 206.574 312.94C208.298 312.94 209.766 313.512 210.977 314.656C212.204 315.784 212.818 317.144 212.818 318.736C212.818 320.345 212.204 321.721 210.977 322.866C209.766 323.993 208.298 324.557 206.574 324.557ZM240.154 329.01V337.965H216.049V329.01H240.154ZM221.099 319.856H233.263V355.205C233.263 355.951 233.379 356.556 233.611 357.021C233.86 357.468 234.217 357.792 234.681 357.991C235.145 358.173 235.701 358.265 236.348 358.265C236.812 358.265 237.301 358.223 237.816 358.14C238.346 358.041 238.744 357.958 239.01 357.891L240.85 366.673C240.27 366.839 239.449 367.046 238.388 367.295C237.343 367.543 236.091 367.701 234.631 367.767C231.779 367.9 229.333 367.568 227.293 366.772C225.27 365.96 223.719 364.699 222.641 362.991C221.58 361.283 221.065 359.135 221.099 356.548V319.856ZM255.332 367.867C252.894 367.867 250.73 367.46 248.839 366.648C246.965 365.819 245.481 364.575 244.386 362.916C243.308 361.241 242.769 359.143 242.769 356.623C242.769 354.5 243.143 352.709 243.889 351.249C244.635 349.79 245.663 348.604 246.974 347.692C248.284 346.78 249.793 346.092 251.501 345.627C253.209 345.146 255.033 344.823 256.974 344.657C259.146 344.458 260.896 344.251 262.223 344.035C263.549 343.803 264.511 343.48 265.108 343.065C265.722 342.634 266.029 342.029 266.029 341.249V341.125C266.029 339.848 265.589 338.861 264.71 338.164C263.831 337.468 262.646 337.12 261.153 337.12C259.544 337.12 258.251 337.468 257.272 338.164C256.294 338.861 255.672 339.823 255.407 341.05L244.187 340.652C244.519 338.33 245.373 336.257 246.75 334.433C248.143 332.592 250.05 331.149 252.471 330.105C254.909 329.043 257.836 328.512 261.253 328.512C263.69 328.512 265.938 328.803 267.994 329.383C270.05 329.947 271.842 330.776 273.367 331.871C274.893 332.949 276.071 334.275 276.9 335.851C277.746 337.426 278.168 339.226 278.168 341.249V367.22H266.725V361.896H266.427C265.747 363.19 264.876 364.285 263.815 365.18C262.77 366.076 261.534 366.747 260.108 367.195C258.699 367.643 257.106 367.867 255.332 367.867ZM259.088 359.906C260.398 359.906 261.576 359.641 262.621 359.11C263.682 358.58 264.528 357.85 265.158 356.921C265.788 355.976 266.103 354.881 266.103 353.638V350.006C265.755 350.188 265.332 350.354 264.835 350.503C264.354 350.652 263.823 350.793 263.243 350.926C262.662 351.059 262.065 351.175 261.452 351.274C260.838 351.374 260.249 351.465 259.685 351.548C258.541 351.73 257.563 352.012 256.75 352.394C255.954 352.775 255.34 353.273 254.909 353.886C254.494 354.483 254.287 355.196 254.287 356.026C254.287 357.286 254.735 358.248 255.63 358.911C256.543 359.575 257.695 359.906 259.088 359.906ZM295.971 316.273V367.22H283.806V316.273H295.971ZM315.164 367.22V316.273H349.941V326.274H327.478V336.722H347.727V346.747H327.478V367.22H315.164ZM376.599 350.727V329.01H388.739V367.22H377.147V360.105H376.749C375.903 362.444 374.46 364.301 372.42 365.678C370.397 367.038 367.951 367.717 365.082 367.717C362.478 367.717 360.189 367.12 358.216 365.926C356.242 364.732 354.708 363.066 353.614 360.926C352.519 358.77 351.964 356.25 351.947 353.364V329.01H364.111V350.976C364.128 353.049 364.675 354.682 365.753 355.876C366.831 357.07 368.299 357.667 370.156 357.667C371.367 357.667 372.453 357.402 373.415 356.871C374.394 356.324 375.165 355.536 375.729 354.508C376.309 353.463 376.599 352.203 376.599 350.727ZM416.25 329.01V337.965H392.144V329.01H416.25ZM397.194 319.856H409.359V355.205C409.359 355.951 409.475 356.556 409.707 357.021C409.956 357.468 410.312 357.792 410.777 357.991C411.241 358.173 411.797 358.265 412.443 358.265C412.908 358.265 413.397 358.223 413.911 358.14C414.442 358.041 414.84 357.958 415.105 357.891L416.946 366.673C416.366 366.839 415.545 367.046 414.483 367.295C413.438 367.543 412.186 367.701 410.727 367.767C407.874 367.9 405.428 367.568 403.388 366.772C401.365 365.96 399.815 364.699 398.737 362.991C397.675 361.283 397.161 359.135 397.194 356.548V319.856ZM445.309 350.727V329.01H457.448V367.22H445.856V360.105H445.458C444.612 362.444 443.169 364.301 441.129 365.678C439.106 367.038 436.66 367.717 433.791 367.717C431.187 367.717 428.898 367.12 426.925 365.926C424.951 364.732 423.417 363.066 422.323 360.926C421.228 358.77 420.673 356.25 420.656 353.364V329.01H432.821V350.976C432.837 353.049 433.385 354.682 434.462 355.876C435.54 357.07 437.008 357.667 438.866 357.667C440.076 357.667 441.163 357.402 442.124 356.871C443.103 356.324 443.874 355.536 444.438 354.508C445.018 353.463 445.309 352.203 445.309 350.727ZM463.391 367.22V329.01H475.207V335.975H475.605C476.302 333.455 477.438 331.581 479.013 330.353C480.589 329.109 482.421 328.488 484.511 328.488C485.075 328.488 485.655 328.529 486.252 328.612C486.849 328.678 487.405 328.786 487.919 328.935V339.508C487.339 339.309 486.576 339.151 485.63 339.035C484.702 338.919 483.872 338.861 483.143 338.861C481.7 338.861 480.398 339.184 479.237 339.831C478.093 340.461 477.189 341.349 476.526 342.493C475.879 343.621 475.555 344.947 475.555 346.473V367.22H463.391ZM506.953 367.941C502.956 367.941 499.507 367.154 496.604 365.578C493.719 363.986 491.496 361.722 489.937 358.787C488.395 355.835 487.624 352.327 487.624 348.264C487.624 344.317 488.403 340.868 489.962 337.916C491.521 334.947 493.719 332.642 496.555 331C499.39 329.342 502.732 328.512 506.58 328.512C509.3 328.512 511.787 328.935 514.043 329.781C516.298 330.627 518.247 331.879 519.889 333.537C521.53 335.196 522.807 337.244 523.719 339.682C524.632 342.103 525.088 344.881 525.088 348.015V351.05H491.878V343.986H513.769C513.752 342.692 513.446 341.539 512.849 340.528C512.251 339.516 511.431 338.728 510.386 338.164C509.358 337.584 508.172 337.294 506.828 337.294C505.469 337.294 504.25 337.601 503.172 338.214C502.094 338.811 501.24 339.632 500.609 340.677C499.979 341.705 499.648 342.874 499.614 344.185V351.374C499.614 352.933 499.921 354.301 500.535 355.478C501.148 356.639 502.019 357.543 503.147 358.19C504.274 358.837 505.618 359.16 507.177 359.16C508.255 359.16 509.233 359.011 510.112 358.712C510.991 358.414 511.746 357.974 512.376 357.394C513.006 356.813 513.479 356.1 513.794 355.254L524.963 355.578C524.499 358.082 523.479 360.263 521.904 362.12C520.345 363.961 518.296 365.396 515.759 366.424C513.222 367.436 510.286 367.941 506.953 367.941Z" fill="black"/>
</mask>
<g mask="url(#mask0_123_13)">
<rect id="mask-background" x="0" y="0" width="443" height="87" fill="url(#paint1_linear_123_13)"/>
</g>
</g></svg>