<svg viewBox="0 0 1390 1620.2026" fill="none" xmlns="http://www.w3.org/2000/svg" xmlns:xlink="http://www.w3.org/1999/xlink" x="0" y="0"><defs><linearGradient id="paint117_linear_100_4" x1="70550" y1="1057.9099999999999" x2="70550" y2="-235511.5" gradientUnits="userSpaceOnUse">
<stop stop-color="#1F89DB"/>
<stop offset="1" stop-color="#F42A8B"/>
</linearGradient><linearGradient id="paint118_linear_100_4" x1="70550" y1="1059.5" x2="70550" y2="-233030.5" gradientUnits="userSpaceOnUse">
<stop stop-color="#1F89DB"/>
<stop offset="1" stop-color="#F42A8B"/>
</linearGradient><linearGradient id="paint119_linear_100_4" x1="70550" y1="1061.1100000000001" x2="70550" y2="-230551.5" gradientUnits="userSpaceOnUse">
<stop stop-color="#1F89DB"/>
<stop offset="1" stop-color="#F42A8B"/>
</linearGradient><linearGradient id="paint120_linear_100_4" x1="70550" y1="1062.7399999999998" x2="70550" y2="-228073.5" gradientUnits="userSpaceOnUse">
<stop stop-color="#1F89DB"/>
<stop offset="1" stop-color="#F42A8B"/>
</linearGradient><linearGradient id="paint121_linear_100_4" x1="70550" y1="1064.4" x2="70550" y2="-225598.5" gradientUnits="userSpaceOnUse">
<stop stop-color="#1F89DB"/>
<stop offset="1" stop-color="#F42A8B"/>
</linearGradient><linearGradient id="paint122_linear_100_4" x1="70550" y1="1066.0700000000002" x2="70550" y2="-223125.5" gradientUnits="userSpaceOnUse">
<stop stop-color="#1F89DB"/>
<stop offset="1" stop-color="#F42A8B"/>
</linearGradient><linearGradient id="paint123_linear_100_4" x1="70550" y1="1067.77" x2="70550" y2="-220654.5" gradientUnits="userSpaceOnUse">
<stop stop-color="#1F89DB"/>
<stop offset="1" stop-color="#F42A8B"/>
</linearGradient><linearGradient id="paint124_linear_100_4" x1="70550" y1="1069.4899999999998" x2="70550" y2="-218185.5" gradientUnits="userSpaceOnUse">
<stop stop-color="#1F89DB"/>
<stop offset="1" stop-color="#F42A8B"/>
</linearGradient><linearGradient id="paint125_linear_100_4" x1="70550" y1="1071.23" x2="70550" y2="-215719.5" gradientUnits="userSpaceOnUse">
<stop stop-color="#1F89DB"/>
<stop offset="1" stop-color="#F42A8B"/>
</linearGradient><linearGradient id="paint126_linear_100_4" x1="70550" y1="1073" x2="70550" y2="-213254.5" gradientUnits="userSpaceOnUse">
<stop stop-color="#1F89DB"/>
<stop offset="1" stop-color="#F42A8B"/>
</linearGradient><linearGradient id="paint127_linear_100_4" x1="70550" y1="1074.79" x2="70550" y2="-210793.5" gradientUnits="userSpaceOnUse">
<stop stop-color="#1F89DB"/>
<stop offset="1" stop-color="#F42A8B"/>
</linearGradient><linearGradient id="paint128_linear_100_4" x1="70550" y1="1076.6" x2="70550" y2="-208333.5" gradientUnits="userSpaceOnUse">
<stop stop-color="#1F89DB"/>
<stop offset="1" stop-color="#F42A8B"/>
</linearGradient><linearGradient id="paint129_linear_100_4" x1="70550" y1="1078.4499999999998" x2="70550" y2="-205877.5" gradientUnits="userSpaceOnUse">
<stop stop-color="#1F89DB"/>
<stop offset="1" stop-color="#F42A8B"/>
</linearGradient><linearGradient id="paint130_linear_100_4" x1="70550" y1="1080.31" x2="70550" y2="-203422.5" gradientUnits="userSpaceOnUse">
<stop stop-color="#1F89DB"/>
<stop offset="1" stop-color="#F42A8B"/>
</linearGradient><linearGradient id="paint131_linear_100_4" x1="70550" y1="1082.1999999999998" x2="70550" y2="-200971.5" gradientUnits="userSpaceOnUse">
<stop stop-color="#1F89DB"/>
<stop offset="1" stop-color="#F42A8B"/>
</linearGradient><linearGradient id="paint132_linear_100_4" x1="70550" y1="1084.12" x2="70550" y2="-198521.5" gradientUnits="userSpaceOnUse">
<stop stop-color="#1F89DB"/>
<stop offset="1" stop-color="#F42A8B"/>
</linearGradient><linearGradient id="paint133_linear_100_4" x1="70550" y1="1086.0700000000002" x2="70550" y2="-196075.5" gradientUnits="userSpaceOnUse">
<stop stop-color="#1F89DB"/>
<stop offset="1" stop-color="#F42A8B"/>
</linearGradient><linearGradient id="paint134_linear_100_4" x1="70550" y1="1088.04" x2="70550" y2="-193631.5" gradientUnits="userSpaceOnUse">
<stop stop-color="#1F89DB"/>
<stop offset="1" stop-color="#F42A8B"/>
</linearGradient><linearGradient id="paint135_linear_100_4" x1="70550" y1="1090.04" x2="70550" y2="-191191.5" gradientUnits="userSpaceOnUse">
<stop stop-color="#1F89DB"/>
<stop offset="1" stop-color="#F42A8B"/>
</linearGradient><linearGradient id="paint136_linear_100_4" x1="70550" y1="1092.0700000000002" x2="70550" y2="-188753.5" gradientUnits="userSpaceOnUse">
<stop stop-color="#1F89DB"/>
<stop offset="1" stop-color="#F42A8B"/>
</linearGradient><linearGradient id="paint137_linear_100_4" x1="70550" y1="1094.13" x2="70550" y2="-186318.5" gradientUnits="userSpaceOnUse">
<stop stop-color="#1F89DB"/>
<stop offset="1" stop-color="#F42A8B"/>
</linearGradient><linearGradient id="paint138_linear_100_4" x1="70550" y1="1096.2199999999998" x2="70550" y2="-183886.5" gradientUnits="userSpaceOnUse">
<stop stop-color="#1F89DB"/>
<stop offset="1" stop-color="#F42A8B"/>
</linearGradient><linearGradient id="paint139_linear_100_4" x1="70550" y1="1098.3400000000001" x2="70550" y2="-181457.5" gradientUnits="userSpaceOnUse">
<stop stop-color="#1F89DB"/>
<stop offset="1" stop-color="#F42A8B"/>
</linearGradient><linearGradient id="paint140_linear_100_4" x1="70550" y1="1100.5" x2="70550" y2="-179031.5" gradientUnits="userSpaceOnUse">
<stop stop-color="#1F89DB"/>
<stop offset="1" stop-color="#F42A8B"/>
</linearGradient><linearGradient id="paint141_linear_100_4" x1="70550" y1="1102.6799999999998" x2="70550" y2="-176608.5" gradientUnits="userSpaceOnUse">
<stop stop-color="#1F89DB"/>
<stop offset="1" stop-color="#F42A8B"/>
</linearGradient><linearGradient id="paint142_linear_100_4" x1="70550" y1="1104.9" x2="70550" y2="-174189.5" gradientUnits="userSpaceOnUse">
<stop stop-color="#1F89DB"/>
<stop offset="1" stop-color="#F42A8B"/>
</linearGradient><linearGradient id="paint143_linear_100_4" x1="70550" y1="1107.15" x2="70550" y2="-171773.5" gradientUnits="userSpaceOnUse">
<stop stop-color="#1F89DB"/>
<stop offset="1" stop-color="#F42A8B"/>
</linearGradient><linearGradient id="paint144_linear_100_4" x1="70550" y1="1109.44" x2="70550" y2="-169360.5" gradientUnits="userSpaceOnUse">
<stop stop-color="#1F89DB"/>
<stop offset="1" stop-color="#F42A8B"/>
</linearGradient><linearGradient id="paint145_linear_100_4" x1="70550" y1="1111.7600000000002" x2="70550" y2="-166951.5" gradientUnits="userSpaceOnUse">
<stop stop-color="#1F89DB"/>
<stop offset="1" stop-color="#F42A8B"/>
</linearGradient><linearGradient id="paint146_linear_100_4" x1="70550" y1="1114.12" x2="70550" y2="-164546.5" gradientUnits="userSpaceOnUse">
<stop stop-color="#1F89DB"/>
<stop offset="1" stop-color="#F42A8B"/>
</linearGradient><linearGradient id="paint147_linear_100_4" x1="70550" y1="1116.52" x2="70550" y2="-162144.5" gradientUnits="userSpaceOnUse">
<stop stop-color="#1F89DB"/>
<stop offset="1" stop-color="#F42A8B"/>
</linearGradient><linearGradient id="paint148_linear_100_4" x1="70550" y1="1118.9499999999998" x2="70550" y2="-159746.5" gradientUnits="userSpaceOnUse">
<stop stop-color="#1F89DB"/>
<stop offset="1" stop-color="#F42A8B"/>
</linearGradient><linearGradient id="paint149_linear_100_4" x1="70550" y1="1121.42" x2="70550" y2="-157351.5" gradientUnits="userSpaceOnUse">
<stop stop-color="#1F89DB"/>
<stop offset="1" stop-color="#F42A8B"/>
</linearGradient><linearGradient id="paint150_linear_100_4" x1="70550" y1="1123.94" x2="70550" y2="-154961.5" gradientUnits="userSpaceOnUse">
<stop stop-color="#1F89DB"/>
<stop offset="1" stop-color="#F42A8B"/>
</linearGradient><linearGradient id="paint151_linear_100_4" x1="70550" y1="1126.4899999999998" x2="70550" y2="-152575.5" gradientUnits="userSpaceOnUse">
<stop stop-color="#1F89DB"/>
<stop offset="1" stop-color="#F42A8B"/>
</linearGradient><linearGradient id="paint152_linear_100_4" x1="70550" y1="1129.08" x2="70550" y2="-150193.5" gradientUnits="userSpaceOnUse">
<stop stop-color="#1F89DB"/>
<stop offset="1" stop-color="#F42A8B"/>
</linearGradient><linearGradient id="paint153_linear_100_4" x1="70550" y1="1131.7199999999998" x2="70550" y2="-147815.5" gradientUnits="userSpaceOnUse">
<stop stop-color="#1F89DB"/>
<stop offset="1" stop-color="#F42A8B"/>
</linearGradient><linearGradient id="paint154_linear_100_4" x1="70550" y1="1134.4" x2="70550" y2="-145441.5" gradientUnits="userSpaceOnUse">
<stop stop-color="#1F89DB"/>
<stop offset="1" stop-color="#F42A8B"/>
</linearGradient><linearGradient id="paint155_linear_100_4" x1="70550" y1="1137.13" x2="70550" y2="-143072.5" gradientUnits="userSpaceOnUse">
<stop stop-color="#1F89DB"/>
<stop offset="1" stop-color="#F42A8B"/>
</linearGradient><linearGradient id="paint156_linear_100_4" x1="70550" y1="1139.9" x2="70550" y2="-140708.5" gradientUnits="userSpaceOnUse">
<stop stop-color="#1F89DB"/>
<stop offset="1" stop-color="#F42A8B"/>
</linearGradient><linearGradient id="paint157_linear_100_4" x1="70550" y1="1142.7199999999998" x2="70550" y2="-138348.5" gradientUnits="userSpaceOnUse">
<stop stop-color="#1F89DB"/>
<stop offset="1" stop-color="#F42A8B"/>
</linearGradient><linearGradient id="paint158_linear_100_4" x1="70550" y1="1145.5900000000001" x2="70550" y2="-135993.5" gradientUnits="userSpaceOnUse">
<stop stop-color="#1F89DB"/>
<stop offset="1" stop-color="#F42A8B"/>
</linearGradient><linearGradient id="paint159_linear_100_4" x1="70550" y1="1148.5100000000002" x2="70550" y2="-133647.5" gradientUnits="userSpaceOnUse">
<stop stop-color="#1F89DB"/>
<stop offset="1" stop-color="#F42A8B"/>
</linearGradient><linearGradient id="paint160_linear_100_4" x1="70550" y1="1151.48" x2="70550" y2="-131399.5" gradientUnits="userSpaceOnUse">
<stop stop-color="#1F89DB"/>
<stop offset="1" stop-color="#F42A8B"/>
</linearGradient><linearGradient id="paint161_linear_100_4" x1="70550" y1="1154.5" x2="70550" y2="-129281.5" gradientUnits="userSpaceOnUse">
<stop stop-color="#1F89DB"/>
<stop offset="1" stop-color="#F42A8B"/>
</linearGradient><linearGradient id="paint162_linear_100_4" x1="70550" y1="1157.58" x2="70550" y2="-127285.5" gradientUnits="userSpaceOnUse">
<stop stop-color="#1F89DB"/>
<stop offset="1" stop-color="#F42A8B"/>
</linearGradient><linearGradient id="paint163_linear_100_4" x1="70550" y1="1160.71" x2="70550" y2="-125401.5" gradientUnits="userSpaceOnUse">
<stop stop-color="#1F89DB"/>
<stop offset="1" stop-color="#F42A8B"/>
</linearGradient><linearGradient id="paint164_linear_100_4" x1="70550" y1="1163.9" x2="70550" y2="-123624.5" gradientUnits="userSpaceOnUse">
<stop stop-color="#1F89DB"/>
<stop offset="1" stop-color="#F42A8B"/>
</linearGradient><linearGradient id="paint165_linear_100_4" x1="70550" y1="1167.15" x2="70550" y2="-121946.5" gradientUnits="userSpaceOnUse">
<stop stop-color="#1F89DB"/>
<stop offset="1" stop-color="#F42A8B"/>
</linearGradient><linearGradient id="paint166_linear_100_4" x1="70550" y1="1170.4499999999998" x2="70550" y2="-120362.5" gradientUnits="userSpaceOnUse">
<stop stop-color="#1F89DB"/>
<stop offset="1" stop-color="#F42A8B"/>
</linearGradient><linearGradient id="paint167_linear_100_4" x1="70550" y1="1173.8200000000002" x2="70550" y2="-118866.5" gradientUnits="userSpaceOnUse">
<stop stop-color="#1F89DB"/>
<stop offset="1" stop-color="#F42A8B"/>
</linearGradient><linearGradient id="paint168_linear_100_4" x1="70550" y1="1177.25" x2="70550" y2="-117452.5" gradientUnits="userSpaceOnUse">
<stop stop-color="#1F89DB"/>
<stop offset="1" stop-color="#F42A8B"/>
</linearGradient><linearGradient id="paint169_linear_100_4" x1="70550" y1="1180.75" x2="70550" y2="-116118.5" gradientUnits="userSpaceOnUse">
<stop stop-color="#1F89DB"/>
<stop offset="1" stop-color="#F42A8B"/>
</linearGradient><linearGradient id="paint170_linear_100_4" x1="70550" y1="1184.31" x2="70550" y2="-114857.5" gradientUnits="userSpaceOnUse">
<stop stop-color="#1F89DB"/>
<stop offset="1" stop-color="#F42A8B"/>
</linearGradient><linearGradient id="paint171_linear_100_4" x1="70550" y1="1187.9499999999998" x2="70550" y2="-113667.5" gradientUnits="userSpaceOnUse">
<stop stop-color="#1F89DB"/>
<stop offset="1" stop-color="#F42A8B"/>
</linearGradient><linearGradient id="paint172_linear_100_4" x1="70550" y1="1191.65" x2="70550" y2="-112544.5" gradientUnits="userSpaceOnUse">
<stop stop-color="#1F89DB"/>
<stop offset="1" stop-color="#F42A8B"/>
</linearGradient><linearGradient id="paint173_linear_100_4" x1="70550" y1="1195.4299999999998" x2="70550" y2="-111485.5" gradientUnits="userSpaceOnUse">
<stop stop-color="#1F89DB"/>
<stop offset="1" stop-color="#F42A8B"/>
</linearGradient><linearGradient id="paint174_linear_100_4" x1="70550" y1="1199.2800000000002" x2="70550" y2="-110486.5" gradientUnits="userSpaceOnUse">
<stop stop-color="#1F89DB"/>
<stop offset="1" stop-color="#F42A8B"/>
</linearGradient><linearGradient id="paint175_linear_100_4" x1="70550" y1="1203.2199999999998" x2="70550" y2="-109546.5" gradientUnits="userSpaceOnUse">
<stop stop-color="#1F89DB"/>
<stop offset="1" stop-color="#F42A8B"/>
</linearGradient><linearGradient id="paint176_linear_100_4" x1="70550" y1="1207.23" x2="70550" y2="-108662.5" gradientUnits="userSpaceOnUse">
<stop stop-color="#1F89DB"/>
<stop offset="1" stop-color="#F42A8B"/>
</linearGradient><linearGradient id="paint177_linear_100_4" x1="70550" y1="1211.3200000000002" x2="70550" y2="-107831.5" gradientUnits="userSpaceOnUse">
<stop stop-color="#1F89DB"/>
<stop offset="1" stop-color="#F42A8B"/>
</linearGradient><linearGradient id="paint178_linear_100_4" x1="70550" y1="1215.5" x2="70550" y2="-107051.5" gradientUnits="userSpaceOnUse">
<stop stop-color="#1F89DB"/>
<stop offset="1" stop-color="#F42A8B"/>
</linearGradient><linearGradient id="paint179_linear_100_4" x1="70550" y1="1219.77" x2="70550" y2="-106320.5" gradientUnits="userSpaceOnUse">
<stop stop-color="#1F89DB"/>
<stop offset="1" stop-color="#F42A8B"/>
</linearGradient><linearGradient id="paint180_linear_100_4" x1="70550" y1="1224.12" x2="70550" y2="-105637.5" gradientUnits="userSpaceOnUse">
<stop stop-color="#1F89DB"/>
<stop offset="1" stop-color="#F42A8B"/>
</linearGradient><linearGradient id="paint181_linear_100_4" x1="70550" y1="1228.5700000000002" x2="70550" y2="-105000.5" gradientUnits="userSpaceOnUse">
<stop stop-color="#1F89DB"/>
<stop offset="1" stop-color="#F42A8B"/>
</linearGradient><linearGradient id="paint182_linear_100_4" x1="70550" y1="1233.12" x2="70550" y2="-104408.5" gradientUnits="userSpaceOnUse">
<stop stop-color="#1F89DB"/>
<stop offset="1" stop-color="#F42A8B"/>
</linearGradient><linearGradient id="paint183_linear_100_4" x1="70550" y1="1237.77" x2="70550" y2="-103859.5" gradientUnits="userSpaceOnUse">
<stop stop-color="#1F89DB"/>
<stop offset="1" stop-color="#F42A8B"/>
</linearGradient><linearGradient id="paint184_linear_100_4" x1="70550" y1="1242.52" x2="70550" y2="-103351.5" gradientUnits="userSpaceOnUse">
<stop stop-color="#1F89DB"/>
<stop offset="1" stop-color="#F42A8B"/>
</linearGradient><linearGradient id="paint185_linear_100_4" x1="70550" y1="1247.38" x2="70550" y2="-102885.5" gradientUnits="userSpaceOnUse">
<stop stop-color="#1F89DB"/>
<stop offset="1" stop-color="#F42A8B"/>
</linearGradient><linearGradient id="paint186_linear_100_4" x1="70550" y1="1252.3400000000001" x2="70550" y2="-102458.4" gradientUnits="userSpaceOnUse">
<stop stop-color="#1F89DB"/>
<stop offset="1" stop-color="#F42A8B"/>
</linearGradient><linearGradient id="paint187_linear_100_4" x1="70550" y1="1257.4299999999998" x2="70550" y2="-102070.3" gradientUnits="userSpaceOnUse">
<stop stop-color="#1F89DB"/>
<stop offset="1" stop-color="#F42A8B"/>
</linearGradient><linearGradient id="paint188_linear_100_4" x1="70550" y1="1262.62" x2="70550" y2="-101720.3" gradientUnits="userSpaceOnUse">
<stop stop-color="#1F89DB"/>
<stop offset="1" stop-color="#F42A8B"/>
</linearGradient><linearGradient id="paint189_linear_100_4" x1="70550" y1="1267.9499999999998" x2="70550" y2="-101407.6" gradientUnits="userSpaceOnUse">
<stop stop-color="#1F89DB"/>
<stop offset="1" stop-color="#F42A8B"/>
</linearGradient><linearGradient id="paint190_linear_100_4" x1="70550" y1="1273.3899999999999" x2="70550" y2="-101131.5" gradientUnits="userSpaceOnUse">
<stop stop-color="#1F89DB"/>
<stop offset="1" stop-color="#F42A8B"/>
</linearGradient><linearGradient id="paint191_linear_100_4" x1="70550" y1="1278.9699999999998" x2="70550" y2="-100891.4" gradientUnits="userSpaceOnUse">
<stop stop-color="#1F89DB"/>
<stop offset="1" stop-color="#F42A8B"/>
</linearGradient><linearGradient id="paint192_linear_100_4" x1="70550" y1="1284.69" x2="70550" y2="-100686.8" gradientUnits="userSpaceOnUse">
<stop stop-color="#1F89DB"/>
<stop offset="1" stop-color="#F42A8B"/>
</linearGradient><linearGradient id="paint193_linear_100_4" x1="70550" y1="1290.54" x2="70550" y2="-100517.4" gradientUnits="userSpaceOnUse">
<stop stop-color="#1F89DB"/>
<stop offset="1" stop-color="#F42A8B"/>
</linearGradient><linearGradient id="paint194_linear_100_4" x1="70550" y1="1296.54" x2="70550" y2="-100382.8" gradientUnits="userSpaceOnUse">
<stop stop-color="#1F89DB"/>
<stop offset="1" stop-color="#F42A8B"/>
</linearGradient><linearGradient id="paint195_linear_100_4" x1="70550" y1="1302.6999999999998" x2="70550" y2="-100282.7" gradientUnits="userSpaceOnUse">
<stop stop-color="#1F89DB"/>
<stop offset="1" stop-color="#F42A8B"/>
</linearGradient><linearGradient id="paint196_linear_100_4" x1="70550" y1="1309.0100000000002" x2="70550" y2="-100217" gradientUnits="userSpaceOnUse">
<stop stop-color="#1F89DB"/>
<stop offset="1" stop-color="#F42A8B"/>
</linearGradient><linearGradient id="paint197_linear_100_4" x1="70550" y1="1315.48" x2="70550" y2="-100185.4" gradientUnits="userSpaceOnUse">
<stop stop-color="#1F89DB"/>
<stop offset="1" stop-color="#F42A8B"/>
</linearGradient><linearGradient id="paint198_linear_100_4" x1="70550" y1="1322.13" x2="70550" y2="-100188" gradientUnits="userSpaceOnUse">
<stop stop-color="#1F89DB"/>
<stop offset="1" stop-color="#F42A8B"/>
</linearGradient><linearGradient id="paint199_linear_100_4" x1="70550" y1="1328.9499999999998" x2="70550" y2="-100224.8" gradientUnits="userSpaceOnUse">
<stop stop-color="#1F89DB"/>
<stop offset="1" stop-color="#F42A8B"/>
</linearGradient><linearGradient id="paint200_linear_100_4" x1="70550" y1="1335.9499999999998" x2="70550" y2="-100295.8" gradientUnits="userSpaceOnUse">
<stop stop-color="#1F89DB"/>
<stop offset="1" stop-color="#F42A8B"/>
</linearGradient><linearGradient id="paint201_linear_100_4" x1="70550" y1="1343.15" x2="70550" y2="-100401.1" gradientUnits="userSpaceOnUse">
<stop stop-color="#1F89DB"/>
<stop offset="1" stop-color="#F42A8B"/>
</linearGradient><linearGradient id="paint202_linear_100_4" x1="70550" y1="1350.54" x2="70550" y2="-100541.1" gradientUnits="userSpaceOnUse">
<stop stop-color="#1F89DB"/>
<stop offset="1" stop-color="#F42A8B"/>
</linearGradient><linearGradient id="paint203_linear_100_4" x1="70550" y1="1358.15" x2="70550" y2="-100716" gradientUnits="userSpaceOnUse">
<stop stop-color="#1F89DB"/>
<stop offset="1" stop-color="#F42A8B"/>
</linearGradient><linearGradient id="paint204_linear_100_4" x1="70550" y1="1365.9699999999998" x2="70550" y2="-100926.2" gradientUnits="userSpaceOnUse">
<stop stop-color="#1F89DB"/>
<stop offset="1" stop-color="#F42A8B"/>
</linearGradient><linearGradient id="paint205_linear_100_4" x1="70550" y1="1374.02" x2="70550" y2="-101172.1" gradientUnits="userSpaceOnUse">
<stop stop-color="#1F89DB"/>
<stop offset="1" stop-color="#F42A8B"/>
</linearGradient><linearGradient id="paint206_linear_100_4" x1="70550" y1="1382.3000000000002" x2="70550" y2="-101454.2" gradientUnits="userSpaceOnUse">
<stop stop-color="#1F89DB"/>
<stop offset="1" stop-color="#F42A8B"/>
</linearGradient><linearGradient id="paint207_linear_100_4" x1="70550" y1="1390.83" x2="70550" y2="-101773.1" gradientUnits="userSpaceOnUse">
<stop stop-color="#1F89DB"/>
<stop offset="1" stop-color="#F42A8B"/>
</linearGradient><linearGradient id="paint208_linear_100_4" x1="70550" y1="1399.62" x2="70550" y2="-102129.5" gradientUnits="userSpaceOnUse">
<stop stop-color="#1F89DB"/>
<stop offset="1" stop-color="#F42A8B"/>
</linearGradient><linearGradient id="paint209_linear_100_4" x1="70550" y1="1408.67" x2="70550" y2="-102524.5" gradientUnits="userSpaceOnUse">
<stop stop-color="#1F89DB"/>
<stop offset="1" stop-color="#F42A8B"/>
</linearGradient><linearGradient id="paint210_linear_100_4" x1="70550" y1="1418.0100000000002" x2="70550" y2="-102958.5" gradientUnits="userSpaceOnUse">
<stop stop-color="#1F89DB"/>
<stop offset="1" stop-color="#F42A8B"/>
</linearGradient><linearGradient id="paint211_linear_100_4" x1="70550" y1="1427.65" x2="70550" y2="-103432.5" gradientUnits="userSpaceOnUse">
<stop stop-color="#1F89DB"/>
<stop offset="1" stop-color="#F42A8B"/>
</linearGradient><linearGradient id="paint212_linear_100_4" x1="70550" y1="1437.5900000000001" x2="70550" y2="-103947.5" gradientUnits="userSpaceOnUse">
<stop stop-color="#1F89DB"/>
<stop offset="1" stop-color="#F42A8B"/>
</linearGradient><linearGradient id="paint213_linear_100_4" x1="70550" y1="1447.8600000000001" x2="70550" y2="-104504.5" gradientUnits="userSpaceOnUse">
<stop stop-color="#1F89DB"/>
<stop offset="1" stop-color="#F42A8B"/>
</linearGradient><linearGradient id="paint214_linear_100_4" x1="70550" y1="1458.48" x2="70550" y2="-105105.5" gradientUnits="userSpaceOnUse">
<stop stop-color="#1F89DB"/>
<stop offset="1" stop-color="#F42A8B"/>
</linearGradient><linearGradient id="paint215_linear_100_4" x1="70550" y1="1469.4499999999998" x2="70550" y2="-105751.5" gradientUnits="userSpaceOnUse">
<stop stop-color="#1F89DB"/>
<stop offset="1" stop-color="#F42A8B"/>
</linearGradient><linearGradient id="paint216_linear_100_4" x1="70550" y1="1480.8000000000002" x2="70550" y2="-106444.5" gradientUnits="userSpaceOnUse">
<stop stop-color="#1F89DB"/>
<stop offset="1" stop-color="#F42A8B"/>
</linearGradient><linearGradient id="paint217_linear_100_4" x1="70550" y1="1492.54" x2="70550" y2="-107185.5" gradientUnits="userSpaceOnUse">
<stop stop-color="#1F89DB"/>
<stop offset="1" stop-color="#F42A8B"/>
</linearGradient><linearGradient id="paint218_linear_100_4" x1="70550" y1="1504.71" x2="70550" y2="-107976.5" gradientUnits="userSpaceOnUse">
<stop stop-color="#1F89DB"/>
<stop offset="1" stop-color="#F42A8B"/>
</linearGradient><linearGradient id="paint219_linear_100_4" x1="70550" y1="1517.31" x2="70550" y2="-108819.5" gradientUnits="userSpaceOnUse">
<stop stop-color="#1F89DB"/>
<stop offset="1" stop-color="#F42A8B"/>
</linearGradient><linearGradient id="paint220_linear_100_4" x1="70550" y1="1530.38" x2="70550" y2="-109716.5" gradientUnits="userSpaceOnUse">
<stop stop-color="#1F89DB"/>
<stop offset="1" stop-color="#F42A8B"/>
</linearGradient><linearGradient id="paint221_linear_100_4" x1="70550" y1="1543.94" x2="70550" y2="-110670.5" gradientUnits="userSpaceOnUse">
<stop stop-color="#1F89DB"/>
<stop offset="1" stop-color="#F42A8B"/>
</linearGradient><linearGradient id="paint222_linear_100_4" x1="70550" y1="1558.02" x2="70550" y2="-111683.5" gradientUnits="userSpaceOnUse">
<stop stop-color="#1F89DB"/>
<stop offset="1" stop-color="#F42A8B"/>
</linearGradient><linearGradient id="paint223_linear_100_4" x1="70550" y1="1572.6599999999999" x2="70550" y2="-112758.5" gradientUnits="userSpaceOnUse">
<stop stop-color="#1F89DB"/>
<stop offset="1" stop-color="#F42A8B"/>
</linearGradient><linearGradient id="paint224_linear_100_4" x1="70550" y1="1587.87" x2="70550" y2="-113897.5" gradientUnits="userSpaceOnUse">
<stop stop-color="#1F89DB"/>
<stop offset="1" stop-color="#F42A8B"/>
</linearGradient><linearGradient id="paint225_linear_100_4" x1="70550" y1="1603.71" x2="70550" y2="-115106.5" gradientUnits="userSpaceOnUse">
<stop stop-color="#1F89DB"/>
<stop offset="1" stop-color="#F42A8B"/>
</linearGradient><linearGradient id="paint226_linear_100_4" x1="70550" y1="1620.1999999999998" x2="70550" y2="-116386.5" gradientUnits="userSpaceOnUse">
<stop stop-color="#1F89DB"/>
<stop offset="1" stop-color="#F42A8B"/>
</linearGradient></defs><g id="Group_6">
<path id="Vector_148" d="M0,-1307.79c235.167,2088.19 470.333,2793.96 705.5,2117.29c235.167,-676.67 470.33,-1382.43 705.5,-2117.29" stroke="url(#paint117_linear_100_4)" stroke-width="2" stroke-linecap="round"/>
<path id="Vector_149" opacity="0.99" d="M0,-1281.4c235.167,2070.6 470.333,2767.57 705.5,2090.9c235.167,-676.67 470.33,-1373.63 705.5,-2090.9" stroke="url(#paint118_linear_100_4)" stroke-width="2" stroke-linecap="round"/>
<path id="Vector_150" opacity="0.98" d="M0,-1255.01c235.167,2053.01 470.333,2741.18 705.5,2064.51c235.167,-676.67 470.33,-1364.84 705.5,-2064.51" stroke="url(#paint119_linear_100_4)" stroke-width="2" stroke-linecap="round"/>
<path id="Vector_151" opacity="0.97" d="M0,-1228.62c235.167,2035.41 470.333,2714.79 705.5,2038.12c235.167,-676.67 470.33,-1356.04 705.5,-2038.12" stroke="url(#paint120_linear_100_4)" stroke-width="2" stroke-linecap="round"/>
<path id="Vector_152" opacity="0.97" d="M0,-1202.23c235.167,2017.82 470.333,2688.4 705.5,2011.73c235.167,-676.67 470.33,-1347.24 705.5,-2011.73" stroke="url(#paint121_linear_100_4)" stroke-width="2" stroke-linecap="round"/>
<path id="Vector_153" opacity="0.96" d="M0,-1175.84c235.167,2000.23 470.333,2662.01 705.5,1985.34c235.167,-676.67 470.33,-1338.45 705.5,-1985.34" stroke="url(#paint122_linear_100_4)" stroke-width="2" stroke-linecap="round"/>
<path id="Vector_154" opacity="0.95" d="M0,-1149.45c235.167,1982.63 470.333,2635.62 705.5,1958.95c235.167,-676.67 470.33,-1329.65 705.5,-1958.95" stroke="url(#paint123_linear_100_4)" stroke-width="2" stroke-linecap="round"/>
<path id="Vector_155" opacity="0.94" d="M0,-1123.06c235.167,1965.04 470.333,2609.23 705.5,1932.56c235.167,-676.67 470.33,-1320.85 705.5,-1932.56" stroke="url(#paint124_linear_100_4)" stroke-width="2" stroke-linecap="round"/>
<path id="Vector_156" opacity="0.93" d="M0,-1096.67c235.167,1947.45 470.333,2582.84 705.5,1906.17c235.167,-676.67 470.33,-1312.06 705.5,-1906.17" stroke="url(#paint125_linear_100_4)" stroke-width="2" stroke-linecap="round"/>
<path id="Vector_157" opacity="0.92" d="M0,-1070.28c235.167,1929.85 470.333,2556.45 705.5,1879.78c235.167,-676.67 470.33,-1303.26 705.5,-1879.78" stroke="url(#paint126_linear_100_4)" stroke-width="2" stroke-linecap="round"/>
<path id="Vector_158" opacity="0.91" d="M0,-1043.89c235.167,1912.26 470.333,2530.06 705.5,1853.39c235.167,-676.67 470.33,-1294.46 705.5,-1853.39" stroke="url(#paint127_linear_100_4)" stroke-width="2" stroke-linecap="round"/>
<path id="Vector_159" opacity="0.91" d="M0,-1017.5c235.167,1894.67 470.333,2503.67 705.5,1827c235.167,-676.67 470.33,-1285.67 705.5,-1827" stroke="url(#paint128_linear_100_4)" stroke-width="2" stroke-linecap="round"/>
<path id="Vector_160" opacity="0.9" d="M0,-991.11c235.167,1877.07 470.333,2477.28 705.5,1800.61c235.167,-676.67 470.33,-1276.87 705.5,-1800.61" stroke="url(#paint129_linear_100_4)" stroke-width="2" stroke-linecap="round"/>
<path id="Vector_161" opacity="0.89" d="M0,-964.72c235.167,1859.48 470.333,2450.89 705.5,1774.22c235.167,-676.67 470.33,-1268.07 705.5,-1774.22" stroke="url(#paint130_linear_100_4)" stroke-width="2" stroke-linecap="round"/>
<path id="Vector_162" opacity="0.88" d="M0,-938.33c235.167,1841.89 470.333,2424.5 705.5,1747.83c235.167,-676.67 470.33,-1259.28 705.5,-1747.83" stroke="url(#paint131_linear_100_4)" stroke-width="2" stroke-linecap="round"/>
<path id="Vector_163" opacity="0.87" d="M0,-911.94c235.167,1824.29 470.333,2398.11 705.5,1721.44c235.167,-676.67 470.33,-1250.48 705.5,-1721.44" stroke="url(#paint132_linear_100_4)" stroke-width="2" stroke-linecap="round"/>
<path id="Vector_164" opacity="0.86" d="M0,-885.55c235.167,1806.7 470.333,2371.72 705.5,1695.05c235.167,-676.67 470.33,-1241.68 705.5,-1695.05" stroke="url(#paint133_linear_100_4)" stroke-width="2" stroke-linecap="round"/>
<path id="Vector_165" opacity="0.85" d="M0,-859.16c235.167,1789.11 470.333,2345.33 705.5,1668.66c235.167,-676.67 470.33,-1232.89 705.5,-1668.66" stroke="url(#paint134_linear_100_4)" stroke-width="2" stroke-linecap="round"/>
<path id="Vector_166" opacity="0.84" d="M0,-832.77c235.167,1771.51 470.333,2318.94 705.5,1642.27c235.167,-676.67 470.33,-1224.09 705.5,-1642.27" stroke="url(#paint135_linear_100_4)" stroke-width="2" stroke-linecap="round"/>
<path id="Vector_167" opacity="0.84" d="M0,-806.38c235.167,1753.92 470.333,2292.55 705.5,1615.88c235.167,-676.67 470.33,-1215.29 705.5,-1615.88" stroke="url(#paint136_linear_100_4)" stroke-width="2" stroke-linecap="round"/>
<path id="Vector_168" opacity="0.83" d="M0,-779.99c235.167,1736.33 470.333,2266.16 705.5,1589.49c235.167,-676.67 470.33,-1206.5 705.5,-1589.49" stroke="url(#paint137_linear_100_4)" stroke-width="2" stroke-linecap="round"/>
<path id="Vector_169" opacity="0.82" d="M0,-753.6c235.167,1718.73 470.333,2239.77 705.5,1563.1c235.167,-676.67 470.33,-1197.7 705.5,-1563.1" stroke="url(#paint138_linear_100_4)" stroke-width="2" stroke-linecap="round"/>
<path id="Vector_170" opacity="0.81" d="M0,-727.21c235.167,1701.14 470.333,2213.38 705.5,1536.71c235.167,-676.67 470.33,-1188.9 705.5,-1536.71" stroke="url(#paint139_linear_100_4)" stroke-width="2" stroke-linecap="round"/>
<path id="Vector_171" opacity="0.8" d="M0,-700.82c235.167,1683.55 470.333,2186.99 705.5,1510.32c235.167,-676.67 470.33,-1180.11 705.5,-1510.32" stroke="url(#paint140_linear_100_4)" stroke-width="2" stroke-linecap="round"/>
<path id="Vector_172" opacity="0.79" d="M0,-674.43c235.167,1665.95 470.333,2160.6 705.5,1483.93c235.167,-676.67 470.33,-1171.31 705.5,-1483.93" stroke="url(#paint141_linear_100_4)" stroke-width="2" stroke-linecap="round"/>
<path id="Vector_173" opacity="0.78" d="M0,-648.04c235.167,1648.36 470.333,2134.21 705.5,1457.54c235.167,-676.67 470.33,-1162.51 705.5,-1457.54" stroke="url(#paint142_linear_100_4)" stroke-width="2" stroke-linecap="round"/>
<path id="Vector_174" opacity="0.78" d="M0,-621.65c235.167,1630.77 470.333,2107.82 705.5,1431.15c235.167,-676.67 470.33,-1153.72 705.5,-1431.15" stroke="url(#paint143_linear_100_4)" stroke-width="2" stroke-linecap="round"/>
<path id="Vector_175" opacity="0.77" d="M0,-595.26c235.167,1613.17 470.333,2081.43 705.5,1404.76c235.167,-676.67 470.33,-1144.92 705.5,-1404.76" stroke="url(#paint144_linear_100_4)" stroke-width="2" stroke-linecap="round"/>
<path id="Vector_176" opacity="0.76" d="M0,-568.87c235.167,1595.58 470.333,2055.04 705.5,1378.37c235.167,-676.67 470.33,-1136.12 705.5,-1378.37" stroke="url(#paint145_linear_100_4)" stroke-width="2" stroke-linecap="round"/>
<path id="Vector_177" opacity="0.75" d="M0,-542.48c235.167,1577.99 470.333,2028.65 705.5,1351.98c235.167,-676.67 470.33,-1127.33 705.5,-1351.98" stroke="url(#paint146_linear_100_4)" stroke-width="2" stroke-linecap="round"/>
<path id="Vector_178" opacity="0.74" d="M0,-516.09c235.167,1560.39 470.333,2002.26 705.5,1325.59c235.167,-676.67 470.33,-1118.53 705.5,-1325.59" stroke="url(#paint147_linear_100_4)" stroke-width="2" stroke-linecap="round"/>
<path id="Vector_179" opacity="0.73" d="M0,-489.7c235.167,1542.8 470.333,1975.87 705.5,1299.2c235.167,-676.67 470.33,-1109.73 705.5,-1299.2" stroke="url(#paint148_linear_100_4)" stroke-width="2" stroke-linecap="round"/>
<path id="Vector_180" opacity="0.72" d="M0,-463.31c235.167,1525.21 470.333,1949.48 705.5,1272.81c235.167,-676.67 470.33,-1100.94 705.5,-1272.81" stroke="url(#paint149_linear_100_4)" stroke-width="2" stroke-linecap="round"/>
<path id="Vector_181" opacity="0.72" d="M0,-436.92c235.167,1507.61 470.333,1923.09 705.5,1246.42c235.167,-676.67 470.33,-1092.14 705.5,-1246.42" stroke="url(#paint150_linear_100_4)" stroke-width="2" stroke-linecap="round"/>
<path id="Vector_182" opacity="0.71" d="M0,-410.53c235.167,1490.02 470.333,1896.7 705.5,1220.03c235.167,-676.67 470.33,-1083.34 705.5,-1220.03" stroke="url(#paint151_linear_100_4)" stroke-width="2" stroke-linecap="round"/>
<path id="Vector_183" opacity="0.7" d="M0,-384.14c235.167,1472.43 470.333,1870.31 705.5,1193.64c235.167,-676.67 470.33,-1074.55 705.5,-1193.64" stroke="url(#paint152_linear_100_4)" stroke-width="2" stroke-linecap="round"/>
<path id="Vector_184" opacity="0.69" d="M0,-357.75c235.167,1454.83 470.333,1843.92 705.5,1167.25c235.167,-676.67 470.33,-1065.75 705.5,-1167.25" stroke="url(#paint153_linear_100_4)" stroke-width="2" stroke-linecap="round"/>
<path id="Vector_185" opacity="0.68" d="M0,-331.36c235.167,1437.24 470.333,1817.53 705.5,1140.86c235.167,-676.67 470.33,-1056.95 705.5,-1140.86" stroke="url(#paint154_linear_100_4)" stroke-width="2" stroke-linecap="round"/>
<path id="Vector_186" opacity="0.67" d="M0,-304.97c235.167,1419.65 470.333,1791.14 705.5,1114.47c235.167,-676.67 470.33,-1048.16 705.5,-1114.47" stroke="url(#paint155_linear_100_4)" stroke-width="2" stroke-linecap="round"/>
<path id="Vector_187" opacity="0.66" d="M0,-278.58c235.167,1402.05 470.333,1764.75 705.5,1088.08c235.167,-676.67 470.33,-1039.36 705.5,-1088.08" stroke="url(#paint156_linear_100_4)" stroke-width="2" stroke-linecap="round"/>
<path id="Vector_188" opacity="0.65" d="M0,-252.19c235.167,1384.46 470.333,1738.36 705.5,1061.69c235.167,-676.67 470.33,-1030.56 705.5,-1061.69" stroke="url(#paint157_linear_100_4)" stroke-width="2" stroke-linecap="round"/>
<path id="Vector_189" opacity="0.65" d="M0,-225.8c235.167,1366.87 470.333,1711.97 705.5,1035.3c235.167,-676.67 470.33,-1021.77 705.5,-1035.3" stroke="url(#paint158_linear_100_4)" stroke-width="2" stroke-linecap="round"/>
<path id="Vector_190" opacity="0.64" d="M0,-199.41c235.167,1349.27 470.333,1685.58 705.5,1008.91c235.167,-676.67 470.33,-1012.97 705.5,-1008.91" stroke="url(#paint159_linear_100_4)" stroke-width="2" stroke-linecap="round"/>
<path id="Vector_191" opacity="0.63" d="M0,-173.02c235.167,1331.68 470.333,1659.19 705.5,982.52c235.167,-676.67 470.33,-1004.17 705.5,-982.52" stroke="url(#paint160_linear_100_4)" stroke-width="2" stroke-linecap="round"/>
<path id="Vector_192" opacity="0.62" d="M0,-146.63c235.167,1314.09 470.333,1632.8 705.5,956.13c235.167,-676.67 470.33,-995.38 705.5,-956.13" stroke="url(#paint161_linear_100_4)" stroke-width="2" stroke-linecap="round"/>
<path id="Vector_193" opacity="0.61" d="M0,-120.24c235.167,1296.49 470.333,1606.41 705.5,929.74c235.167,-676.67 470.33,-986.58 705.5,-929.74" stroke="url(#paint162_linear_100_4)" stroke-width="2" stroke-linecap="round"/>
<path id="Vector_194" opacity="0.6" d="M0,-93.85c235.167,1278.9 470.333,1580.02 705.5,903.35c235.167,-676.67 470.33,-977.78 705.5,-903.35" stroke="url(#paint163_linear_100_4)" stroke-width="2" stroke-linecap="round"/>
<path id="Vector_195" opacity="0.59" d="M0,-67.46c235.167,1261.31 470.333,1553.63 705.5,876.96c235.167,-676.67 470.33,-968.99 705.5,-876.96" stroke="url(#paint164_linear_100_4)" stroke-width="2" stroke-linecap="round"/>
<path id="Vector_196" opacity="0.59" d="M0,-41.07c235.167,1243.71 470.333,1527.24 705.5,850.57c235.167,-676.67 470.33,-960.19 705.5,-850.57" stroke="url(#paint165_linear_100_4)" stroke-width="2" stroke-linecap="round"/>
<path id="Vector_197" opacity="0.58" d="M0,-14.68c235.167,1226.12 470.333,1500.85 705.5,824.18c235.167,-676.67 470.33,-951.39 705.5,-824.18" stroke="url(#paint166_linear_100_4)" stroke-width="2" stroke-linecap="round"/>
<path id="Vector_198" opacity="0.57" d="M0,11.71c235.167,1208.53 470.333,1474.46 705.5,797.79c235.167,-676.67 470.33,-942.6 705.5,-797.79" stroke="url(#paint167_linear_100_4)" stroke-width="2" stroke-linecap="round"/>
<path id="Vector_199" opacity="0.56" d="M0,38.1c235.167,1190.93 470.333,1448.07 705.5,771.4c235.167,-676.67 470.33,-933.8 705.5,-771.4" stroke="url(#paint168_linear_100_4)" stroke-width="2" stroke-linecap="round"/>
<path id="Vector_200" opacity="0.55" d="M0,64.49c235.167,1173.34 470.333,1421.68 705.5,745.01c235.167,-676.67 470.33,-925 705.5,-745.01" stroke="url(#paint169_linear_100_4)" stroke-width="2" stroke-linecap="round"/>
<path id="Vector_201" opacity="0.54" d="M0,90.88c235.167,1155.75 470.333,1395.29 705.5,718.62c235.167,-676.67 470.33,-916.21 705.5,-718.62" stroke="url(#paint170_linear_100_4)" stroke-width="2" stroke-linecap="round"/>
<path id="Vector_202" opacity="0.53" d="M0,117.27c235.167,1138.15 470.333,1368.9 705.5,692.23c235.167,-676.67 470.33,-907.41 705.5,-692.23" stroke="url(#paint171_linear_100_4)" stroke-width="2" stroke-linecap="round"/>
<path id="Vector_203" opacity="0.53" d="M0,143.66c235.167,1120.56 470.333,1342.51 705.5,665.84c235.167,-676.67 470.33,-898.61 705.5,-665.84" stroke="url(#paint172_linear_100_4)" stroke-width="2" stroke-linecap="round"/>
<path id="Vector_204" opacity="0.52" d="M0,170.05c235.167,1102.97 470.333,1316.12 705.5,639.45c235.167,-676.67 470.33,-889.82 705.5,-639.45" stroke="url(#paint173_linear_100_4)" stroke-width="2" stroke-linecap="round"/>
<path id="Vector_205" opacity="0.51" d="M0,196.44c235.167,1085.37 470.333,1289.73 705.5,613.06c235.167,-676.67 470.33,-881.02 705.5,-613.06" stroke="url(#paint174_linear_100_4)" stroke-width="2" stroke-linecap="round"/>
<path id="Vector_206" opacity="0.5" d="M0,222.83c235.167,1067.78 470.333,1263.34 705.5,586.67c235.167,-676.67 470.33,-872.22 705.5,-586.67" stroke="url(#paint175_linear_100_4)" stroke-width="2" stroke-linecap="round"/>
<path id="Vector_207" opacity="0.49" d="M0,249.22c235.167,1050.19 470.333,1236.95 705.5,560.28c235.167,-676.67 470.33,-863.43 705.5,-560.28" stroke="url(#paint176_linear_100_4)" stroke-width="2" stroke-linecap="round"/>
<path id="Vector_208" opacity="0.48" d="M0,275.61c235.167,1032.59 470.333,1210.56 705.5,533.89c235.167,-676.67 470.33,-854.63 705.5,-533.89" stroke="url(#paint177_linear_100_4)" stroke-width="2" stroke-linecap="round"/>
<path id="Vector_209" opacity="0.47" d="M0,302c235.167,1015 470.333,1184.17 705.5,507.5c235.167,-676.67 470.33,-845.83 705.5,-507.5" stroke="url(#paint178_linear_100_4)" stroke-width="2" stroke-linecap="round"/>
<path id="Vector_210" opacity="0.46" d="M0,328.39c235.167,997.41 470.333,1157.78 705.5,481.11c235.167,-676.67 470.33,-837.04 705.5,-481.11" stroke="url(#paint179_linear_100_4)" stroke-width="2" stroke-linecap="round"/>
<path id="Vector_211" opacity="0.46" d="M0,354.78c235.167,979.81 470.333,1131.39 705.5,454.72c235.167,-676.67 470.33,-828.24 705.5,-454.72" stroke="url(#paint180_linear_100_4)" stroke-width="2" stroke-linecap="round"/>
<path id="Vector_212" opacity="0.45" d="M0,381.17c235.167,962.22 470.333,1105 705.5,428.33c235.167,-676.67 470.33,-819.44 705.5,-428.33" stroke="url(#paint181_linear_100_4)" stroke-width="2" stroke-linecap="round"/>
<path id="Vector_213" opacity="0.44" d="M0,407.56c235.167,944.63 470.333,1078.61 705.5,401.94c235.167,-676.67 470.33,-810.65 705.5,-401.94" stroke="url(#paint182_linear_100_4)" stroke-width="2" stroke-linecap="round"/>
<path id="Vector_214" opacity="0.43" d="M0,433.95c235.167,927.03 470.333,1052.22 705.5,375.55c235.167,-676.67 470.33,-801.85 705.5,-375.55" stroke="url(#paint183_linear_100_4)" stroke-width="2" stroke-linecap="round"/>
<path id="Vector_215" opacity="0.42" d="M0,460.34c235.167,909.44 470.333,1025.83 705.5,349.16c235.167,-676.67 470.33,-793.05 705.5,-349.16" stroke="url(#paint184_linear_100_4)" stroke-width="2" stroke-linecap="round"/>
<path id="Vector_216" opacity="0.41" d="M0,486.73c235.167,891.85 470.333,999.44 705.5,322.77c235.167,-676.67 470.33,-784.26 705.5,-322.77" stroke="url(#paint185_linear_100_4)" stroke-width="2" stroke-linecap="round"/>
<path id="Vector_217" opacity="0.4" d="M0,513.12c235.167,874.25 470.333,973.05 705.5,296.38c235.167,-676.67 470.33,-775.46 705.5,-296.38" stroke="url(#paint186_linear_100_4)" stroke-width="2" stroke-linecap="round"/>
<path id="Vector_218" opacity="0.4" d="M0,539.51c235.167,856.66 470.333,946.66 705.5,269.99c235.167,-676.67 470.33,-766.66 705.5,-269.99" stroke="url(#paint187_linear_100_4)" stroke-width="2" stroke-linecap="round"/>
<path id="Vector_219" opacity="0.39" d="M0,565.9c235.167,839.07 470.333,920.27 705.5,243.6c235.167,-676.67 470.33,-757.87 705.5,-243.6" stroke="url(#paint188_linear_100_4)" stroke-width="2" stroke-linecap="round"/>
<path id="Vector_220" opacity="0.38" d="M0,592.29c235.167,821.47 470.333,893.88 705.5,217.21c235.167,-676.67 470.33,-749.07 705.5,-217.21" stroke="url(#paint189_linear_100_4)" stroke-width="2" stroke-linecap="round"/>
<path id="Vector_221" opacity="0.37" d="M0,618.68c235.167,803.88 470.333,867.49 705.5,190.82c235.167,-676.67 470.33,-740.27 705.5,-190.82" stroke="url(#paint190_linear_100_4)" stroke-width="2" stroke-linecap="round"/>
<path id="Vector_222" opacity="0.36" d="M0,645.07c235.167,786.29 470.333,841.1 705.5,164.43c235.167,-676.67 470.33,-731.48 705.5,-164.43" stroke="url(#paint191_linear_100_4)" stroke-width="2" stroke-linecap="round"/>
<path id="Vector_223" opacity="0.35" d="M0,671.46c235.167,768.69 470.333,814.71 705.5,138.04c235.167,-676.67 470.33,-722.68 705.5,-138.04" stroke="url(#paint192_linear_100_4)" stroke-width="2" stroke-linecap="round"/>
<path id="Vector_224" opacity="0.34" d="M0,697.85c235.167,751.1 470.333,788.32 705.5,111.65c235.167,-676.67 470.33,-713.88 705.5,-111.65" stroke="url(#paint193_linear_100_4)" stroke-width="2" stroke-linecap="round"/>
<path id="Vector_225" opacity="0.34" d="M0,724.24c235.167,733.51 470.333,761.93 705.5,85.26c235.167,-676.67 470.33,-705.09 705.5,-85.26" stroke="url(#paint194_linear_100_4)" stroke-width="2" stroke-linecap="round"/>
<path id="Vector_226" opacity="0.33" d="M0,750.63c235.167,715.91 470.333,735.54 705.5,58.87c235.167,-676.67 470.33,-696.29 705.5,-58.87" stroke="url(#paint195_linear_100_4)" stroke-width="2" stroke-linecap="round"/>
<path id="Vector_227" opacity="0.32" d="M0,777.02c235.167,698.32 470.333,709.15 705.5,32.48c235.167,-676.67 470.33,-687.49 705.5,-32.48" stroke="url(#paint196_linear_100_4)" stroke-width="2" stroke-linecap="round"/>
<path id="Vector_228" opacity="0.31" d="M0,803.41c235.167,680.73 470.333,682.76 705.5,6.09c235.167,-676.67 470.33,-678.7 705.5,-6.09" stroke="url(#paint197_linear_100_4)" stroke-width="2" stroke-linecap="round"/>
<path id="Vector_229" opacity="0.3" d="M0,829.8c235.167,663.13 470.333,656.37 705.5,-20.3c235.167,-676.67 470.33,-669.9 705.5,20.3" stroke="url(#paint198_linear_100_4)" stroke-width="2" stroke-linecap="round"/>
<path id="Vector_230" opacity="0.29" d="M0,856.19c235.167,645.54 470.333,629.98 705.5,-46.69c235.167,-676.67 470.33,-661.1 705.5,46.69" stroke="url(#paint199_linear_100_4)" stroke-width="2" stroke-linecap="round"/>
<path id="Vector_231" opacity="0.28" d="M0,882.58c235.167,627.95 470.333,603.59 705.5,-73.08c235.167,-676.67 470.33,-652.31 705.5,73.08" stroke="url(#paint200_linear_100_4)" stroke-width="2" stroke-linecap="round"/>
<path id="Vector_232" opacity="0.27" d="M0,908.97c235.167,610.35 470.333,577.2 705.5,-99.47c235.167,-676.67 470.33,-643.51 705.5,99.47" stroke="url(#paint201_linear_100_4)" stroke-width="2" stroke-linecap="round"/>
<path id="Vector_233" opacity="0.27" d="M0,935.36c235.167,592.76 470.333,550.81 705.5,-125.86c235.167,-676.67 470.33,-634.71 705.5,125.86" stroke="url(#paint202_linear_100_4)" stroke-width="2" stroke-linecap="round"/>
<path id="Vector_234" opacity="0.26" d="M0,961.75c235.167,575.17 470.333,524.42 705.5,-152.25c235.167,-676.67 470.33,-625.92 705.5,152.25" stroke="url(#paint203_linear_100_4)" stroke-width="2" stroke-linecap="round"/>
<path id="Vector_235" opacity="0.25" d="M0,988.14c235.167,557.57 470.333,498.03 705.5,-178.64c235.167,-676.67 470.33,-617.12 705.5,178.64" stroke="url(#paint204_linear_100_4)" stroke-width="2" stroke-linecap="round"/>
<path id="Vector_236" opacity="0.24" d="M0,1014.53c235.167,539.98 470.333,471.64 705.5,-205.03c235.167,-676.67 470.33,-608.32 705.5,205.03" stroke="url(#paint205_linear_100_4)" stroke-width="2" stroke-linecap="round"/>
<path id="Vector_237" opacity="0.23" d="M0,1040.92c235.167,522.39 470.333,445.25 705.5,-231.42c235.167,-676.67 470.33,-599.53 705.5,231.42" stroke="url(#paint206_linear_100_4)" stroke-width="2" stroke-linecap="round"/>
<path id="Vector_238" opacity="0.22" d="M0,1067.31c235.167,504.79 470.333,418.86 705.5,-257.81c235.167,-676.67 470.33,-590.73 705.5,257.81" stroke="url(#paint207_linear_100_4)" stroke-width="2" stroke-linecap="round"/>
<path id="Vector_239" opacity="0.21" d="M0,1093.7c235.167,487.2 470.333,392.47 705.5,-284.2c235.167,-676.67 470.33,-581.93 705.5,284.2" stroke="url(#paint208_linear_100_4)" stroke-width="2" stroke-linecap="round"/>
<path id="Vector_240" opacity="0.21" d="M0,1120.09c235.167,469.61 470.333,366.08 705.5,-310.59c235.167,-676.67 470.33,-573.14 705.5,310.59" stroke="url(#paint209_linear_100_4)" stroke-width="2" stroke-linecap="round"/>
<path id="Vector_241" opacity="0.2" d="M0,1146.48c235.167,452.01 470.333,339.69 705.5,-336.98c235.167,-676.67 470.33,-564.34 705.5,336.98" stroke="url(#paint210_linear_100_4)" stroke-width="2" stroke-linecap="round"/>
<path id="Vector_242" opacity="0.19" d="M0,1172.87c235.167,434.42 470.333,313.3 705.5,-363.37c235.167,-676.67 470.33,-555.54 705.5,363.37" stroke="url(#paint211_linear_100_4)" stroke-width="2" stroke-linecap="round"/>
<path id="Vector_243" opacity="0.18" d="M0,1199.26c235.167,416.83 470.333,286.91 705.5,-389.76c235.167,-676.67 470.33,-546.75 705.5,389.76" stroke="url(#paint212_linear_100_4)" stroke-width="2" stroke-linecap="round"/>
<path id="Vector_244" opacity="0.17" d="M0,1225.65c235.167,399.23 470.333,260.52 705.5,-416.15c235.167,-676.67 470.33,-537.95 705.5,416.15" stroke="url(#paint213_linear_100_4)" stroke-width="2" stroke-linecap="round"/>
<path id="Vector_245" opacity="0.16" d="M0,1252.04c235.167,381.64 470.333,234.13 705.5,-442.54c235.167,-676.67 470.33,-529.15 705.5,442.54" stroke="url(#paint214_linear_100_4)" stroke-width="2" stroke-linecap="round"/>
<path id="Vector_246" opacity="0.15" d="M0,1278.43c235.167,364.05 470.333,207.74 705.5,-468.93c235.167,-676.67 470.33,-520.36 705.5,468.93" stroke="url(#paint215_linear_100_4)" stroke-width="2" stroke-linecap="round"/>
<path id="Vector_247" opacity="0.15" d="M0,1304.82c235.167,346.45 470.333,181.35 705.5,-495.32c235.167,-676.67 470.33,-511.56 705.5,495.32" stroke="url(#paint216_linear_100_4)" stroke-width="2" stroke-linecap="round"/>
<path id="Vector_248" opacity="0.14" d="M0,1331.21c235.167,328.86 470.333,154.96 705.5,-521.71c235.167,-676.67 470.33,-502.76 705.5,521.71" stroke="url(#paint217_linear_100_4)" stroke-width="2" stroke-linecap="round"/>
<path id="Vector_249" opacity="0.13" d="M0,1357.6c235.167,311.27 470.333,128.57 705.5,-548.1c235.167,-676.67 470.33,-493.97 705.5,548.1" stroke="url(#paint218_linear_100_4)" stroke-width="2" stroke-linecap="round"/>
<path id="Vector_250" opacity="0.12" d="M0,1383.99c235.167,293.67 470.333,102.18 705.5,-574.49c235.167,-676.67 470.33,-485.17 705.5,574.49" stroke="url(#paint219_linear_100_4)" stroke-width="2" stroke-linecap="round"/>
<path id="Vector_251" opacity="0.11" d="M0,1410.38c235.167,276.08 470.333,75.79 705.5,-600.88c235.167,-676.67 470.33,-476.37 705.5,600.88" stroke="url(#paint220_linear_100_4)" stroke-width="2" stroke-linecap="round"/>
<path id="Vector_252" opacity="0.1" d="M0,1436.77c235.167,258.49 470.333,49.4 705.5,-627.27c235.167,-676.67 470.33,-467.58 705.5,627.27" stroke="url(#paint221_linear_100_4)" stroke-width="2" stroke-linecap="round"/>
<path id="Vector_253" opacity="0.09" d="M0,1463.16c235.167,240.89 470.333,23.01 705.5,-653.66c235.167,-676.67 470.33,-458.78 705.5,653.66" stroke="url(#paint222_linear_100_4)" stroke-width="2" stroke-linecap="round"/>
<path id="Vector_254" opacity="0.08" d="M0,1489.55c235.167,223.3 470.333,-3.38 705.5,-680.05c235.167,-676.67 470.33,-449.98 705.5,680.05" stroke="url(#paint223_linear_100_4)" stroke-width="2" stroke-linecap="round"/>
<path id="Vector_255" opacity="0.08" d="M0,1515.94c235.167,205.71 470.333,-29.77 705.5,-706.44c235.167,-676.67 470.33,-441.19 705.5,706.44" stroke="url(#paint224_linear_100_4)" stroke-width="2" stroke-linecap="round"/>
<path id="Vector_256" opacity="0.07" d="M0,1542.33c235.167,188.11 470.333,-56.16 705.5,-732.83c235.167,-676.67 470.33,-432.39 705.5,732.83" stroke="url(#paint225_linear_100_4)" stroke-width="2" stroke-linecap="round"/>
<path id="Vector_257" opacity="0.06" d="M0,1568.72c235.167,170.52 470.333,-82.55 705.5,-759.22c235.167,-676.67 470.33,-423.59 705.5,759.22" stroke="url(#paint226_linear_100_4)" stroke-width="2" stroke-linecap="round"/>
</g></svg>