<svg viewBox="0 0 20 20" fill="none" xmlns="http://www.w3.org/2000/svg" xmlns:xlink="http://www.w3.org/1999/xlink" x="0" y="0"><path id="Vector_145" d="M17,9h-14M17,9c0.53,0 1.039,0.21 1.414,0.59c0.375,0.37 0.586,0.88 0.586,1.41v6c0,0.53 -0.211,1.04 -0.586,1.41c-0.375,0.38 -0.884,0.59 -1.414,0.59h-14c-0.53,0 -1.039,-0.21 -1.414,-0.59c-0.375,-0.37 -0.586,-0.88 -0.586,-1.41v-6c0,-0.53 0.211,-1.04 0.586,-1.41c0.375,-0.38 0.884,-0.59 1.414,-0.59M17,9v-2c0,-0.53 -0.211,-1.04 -0.586,-1.41c-0.375,-0.38 -0.884,-0.59 -1.414,-0.59M3,9v-2c0,-0.53 0.211,-1.04 0.586,-1.41c0.375,-0.38 0.884,-0.59 1.414,-0.59M15,5v-2c0,-0.53 -0.211,-1.04 -0.586,-1.41c-0.375,-0.38 -0.884,-0.59 -1.414,-0.59h-6c-0.53,0 -1.039,0.21 -1.414,0.59c-0.375,0.37 -0.586,0.88 -0.586,1.41v2M15,5h-10" stroke="#F97316" stroke-width="2" stroke-linecap="round" stroke-linejoin="round"/></svg>