<svg viewBox="0 0 17 17" fill="none" xmlns="http://www.w3.org/2000/svg" xmlns:xlink="http://www.w3.org/1999/xlink" x="0" y="0"><path id="Vector_338" d="M5.1669,4.3299v-3.33M11.8329,4.3299v-3.33M4.3329,7.6699h8.334M2.6669,15.9999h11.666c0.442,0 0.866,-0.18 1.179,-0.49c0.312,-0.31 0.488,-0.73 0.488,-1.18v-10c0,-0.44 -0.176,-0.86 -0.488,-1.18c-0.313,-0.31 -0.737,-0.48 -1.179,-0.48h-11.666c-0.442,0 -0.866,0.17 -1.179,0.48c-0.312,0.32 -0.488,0.74 -0.488,1.18v10c0,0.45 0.176,0.87 0.488,1.18c0.313,0.31 0.737,0.49 1.179,0.49z" stroke="#16A34A" stroke-width="2" stroke-linecap="round" stroke-linejoin="round"/></svg>