<svg viewBox="0 0 11.3333 14" fill="none" xmlns="http://www.w3.org/2000/svg" xmlns:xlink="http://www.w3.org/1999/xlink" x="0" y="0"><path id="Vector_334" d="M3.6665,7h4M3.6665,9.67h4M8.9995,13h-6.666c-0.354,0 -0.693,-0.14 -0.943,-0.39c-0.25,-0.25 -0.391,-0.59 -0.391,-0.94v-9.34c0,-0.35 0.141,-0.69 0.391,-0.94c0.25,-0.25 0.589,-0.39 0.943,-0.39h3.724c0.177,0 0.346,0.07 0.471,0.2l3.609,3.6c0.126,0.13 0.196,0.3 0.196,0.48v6.39c0,0.35 -0.141,0.69 -0.391,0.94c-0.25,0.25 -0.589,0.39 -0.943,0.39z" stroke="#1E293B" stroke-width="2" stroke-linecap="round" stroke-linejoin="round"/></svg>