<svg viewBox="0 0 17.9693 17.9693" fill="none" xmlns="http://www.w3.org/2000/svg" xmlns:xlink="http://www.w3.org/1999/xlink" x="0" y="0"><path id="Vector_143" d="M6.2889,8.9844l1.797,1.797l3.594,-3.594M17.0709,8.9844c0,1.062 -0.209,2.114 -0.616,3.095c-0.406,0.981 -1.002,1.872 -1.752,2.623c-0.751,0.751 -1.643,1.347 -2.624,1.753c-0.981,0.406 -2.032,0.615 -3.094,0.615c-1.062,0 -2.114,-0.209 -3.095,-0.615c-0.981,-0.406 -1.872,-1.002 -2.623,-1.753c-0.751,-0.751 -1.347,-1.642 -1.753,-2.623c-0.406,-0.981 -0.615,-2.033 -0.615,-3.095c0,-2.144 0.852,-4.201 2.368,-5.718c1.516,-1.516 3.573,-2.368 5.718,-2.368c2.144,0 4.201,0.852 5.718,2.368c1.516,1.517 2.368,3.574 2.368,5.718z" stroke="#16A34A" stroke-width="1.79693" stroke-linecap="round" stroke-linejoin="round"/></svg>