<svg viewBox="0 0 16 20" fill="none" xmlns="http://www.w3.org/2000/svg" xmlns:xlink="http://www.w3.org/1999/xlink" x="0" y="0"><path id="Vector_147" d="M5,3h-2c-0.53,0 -1.039,0.21 -1.414,0.59c-0.375,0.37 -0.586,0.88 -0.586,1.41v12c0,0.53 0.211,1.04 0.586,1.41c0.375,0.38 0.884,0.59 1.414,0.59h10c0.53,0 1.039,-0.21 1.414,-0.59c0.375,-0.37 0.586,-0.88 0.586,-1.41v-12c0,-0.53 -0.211,-1.04 -0.586,-1.41c-0.375,-0.38 -0.884,-0.59 -1.414,-0.59h-2M5,3c0,0.53 0.211,1.04 0.586,1.41c0.375,0.38 0.884,0.59 1.414,0.59h2c0.53,0 1.039,-0.21 1.414,-0.59c0.375,-0.37 0.586,-0.88 0.586,-1.41M5,3c0,-0.53 0.211,-1.04 0.586,-1.41c0.375,-0.38 0.884,-0.59 1.414,-0.59h2c0.53,0 1.039,0.21 1.414,0.59c0.375,0.37 0.586,0.88 0.586,1.41" stroke="#3B82F6" stroke-width="2" stroke-linecap="round" stroke-linejoin="round"/></svg>