<svg viewBox="0 0 20 20" fill="none" xmlns="http://www.w3.org/2000/svg" xmlns:xlink="http://www.w3.org/1999/xlink" x="0" y="0"><path id="Vector_329" d="M10,6v4l3,3M19,10c0,1.18 -0.233,2.35 -0.685,3.44c-0.452,1.1 -1.115,2.09 -1.951,2.92c-0.836,0.84 -1.828,1.5 -2.92,1.95c-1.092,0.46 -2.262,0.69 -3.444,0.69c-1.182,0 -2.352,-0.23 -3.444,-0.69c-1.092,-0.45 -2.084,-1.11 -2.92,-1.95c-0.836,-0.83 -1.499,-1.82 -1.951,-2.92c-0.452,-1.09 -0.685,-2.26 -0.685,-3.44c0,-2.39 0.948,-4.68 2.636,-6.36c1.688,-1.69 3.977,-2.64 6.364,-2.64c2.387,0 4.676,0.95 6.364,2.64c1.688,1.68 2.636,3.97 2.636,6.36z" stroke="#0284C7" stroke-width="2" stroke-linecap="round" stroke-linejoin="round"/></svg>