<svg viewBox="0 0 15.3333 17" fill="none" xmlns="http://www.w3.org/2000/svg" xmlns:xlink="http://www.w3.org/1999/xlink" x="0" y="0"><path id="Vector_372" d="M0.9996,4.3298v8.34c0,1.84 2.985,3.33 6.667,3.33c3.682,0 6.667,-1.49 6.667,-3.33v-8.34M0.9996,4.3298c0,1.85 2.985,3.34 6.667,3.34c3.682,0 6.667,-1.49 6.667,-3.34M0.9996,4.3298c0,-1.84 2.985,-3.33 6.667,-3.33c3.682,0 6.667,1.49 6.667,3.33M14.3336,8.4998c0,1.84 -2.985,3.33 -6.667,3.33c-3.682,0 -6.667,-1.49 -6.667,-3.33" stroke="#EA580C" stroke-width="2" stroke-linecap="round" stroke-linejoin="round"/></svg>