<svg viewBox="0 0 13.6667 17" fill="none" xmlns="http://www.w3.org/2000/svg" xmlns:xlink="http://www.w3.org/1999/xlink" x="0" y="0"><path id="Vector_339" d="M4.3334,8.4998h5M4.3334,11.8298h5M11.0004,15.9998h-8.334c-0.442,0 -0.866,-0.18 -1.178,-0.49c-0.313,-0.31 -0.488,-0.73 -0.488,-1.18v-11.66c0,-0.45 0.175,-0.87 0.488,-1.18c0.312,-0.31 0.736,-0.49 1.178,-0.49h4.655c0.221,0 0.433,0.09 0.589,0.24l4.512,4.52c0.156,0.15 0.244,0.36 0.244,0.59v7.98c0,0.45 -0.175,0.87 -0.488,1.18c-0.312,0.31 -0.736,0.49 -1.178,0.49z" stroke="#2563EB" stroke-width="2" stroke-linecap="round" stroke-linejoin="round"/></svg>