<svg viewBox="0 0 17.293 15.3333" fill="none" xmlns="http://www.w3.org/2000/svg" xmlns:xlink="http://www.w3.org/1999/xlink" x="0" y="0"><path id="Vector_371" d="M14.8365,10.5264c-0.233,-0.24 -0.529,-0.39 -0.852,-0.46l-1.986,-0.4c-1.091,-0.21 -2.222,-0.06 -3.217,0.43l-0.265,0.14c-0.994,0.49 -2.126,0.64 -3.217,0.43l-1.611,-0.32c-0.269,-0.06 -0.547,-0.05 -0.81,0.03c-0.262,0.08 -0.501,0.23 -0.695,0.42M5.3135,0.9964h6.666l-0.833,0.84v4.31c0,0.44 0.176,0.86 0.488,1.18l4.167,4.16c1.05,1.05 0.306,2.85 -1.179,2.85h-11.953c-1.485,0 -2.228,-1.8 -1.178,-2.85l4.167,-4.16c0.312,-0.32 0.488,-0.74 0.488,-1.18v-4.31z" stroke="#9333EA" stroke-width="2" stroke-linecap="round" stroke-linejoin="round"/></svg>