<svg viewBox="0 0 16 20" fill="none" xmlns="http://www.w3.org/2000/svg" xmlns:xlink="http://www.w3.org/1999/xlink" x="0" y="0"><path id="Vector_373" d="M12,5c0,1.06 -0.421,2.08 -1.172,2.83c-0.75,0.75 -1.767,1.17 -2.828,1.17c-1.061,0 -2.078,-0.42 -2.828,-1.17c-0.751,-0.75 -1.172,-1.77 -1.172,-2.83c0,-1.06 0.421,-2.08 1.172,-2.83c0.75,-0.75 1.767,-1.17 2.828,-1.17c1.061,0 2.078,0.42 2.828,1.17c0.751,0.75 1.172,1.77 1.172,2.83zM8,12c-1.857,0 -3.637,0.74 -4.95,2.05c-1.313,1.31 -2.05,3.09 -2.05,4.95h14c0,-1.86 -0.737,-3.64 -2.05,-4.95c-1.313,-1.31 -3.093,-2.05 -4.95,-2.05z" stroke="#0284C7" stroke-width="2" stroke-linecap="round" stroke-linejoin="round"/></svg>