<svg viewBox="0 0 20.3516 18" fill="none" xmlns="http://www.w3.org/2000/svg" xmlns:xlink="http://www.w3.org/1999/xlink" x="0" y="0"><path id="Vector_330" d="M17.6038,12.43c-0.279,-0.28 -0.635,-0.47 -1.022,-0.55l-2.384,-0.48c-1.308,-0.26 -2.666,-0.08 -3.86,0.52l-0.318,0.16c-1.193,0.6 -2.552,0.78 -3.86,0.52l-1.934,-0.39c-0.323,-0.06 -0.656,-0.05 -0.971,0.05c-0.315,0.09 -0.602,0.26 -0.835,0.5M6.1758,1h8l-1,1v5.17c0,0.53 0.211,1.04 0.586,1.42l5,5c1.26,1.26 0.367,3.41 -1.415,3.41h-14.343c-1.782,0 -2.674,-2.15 -1.414,-3.41l5,-5c0.375,-0.38 0.586,-0.89 0.586,-1.42v-5.17z" stroke="#4F46E5" stroke-width="2" stroke-linecap="round" stroke-linejoin="round"/></svg>