<svg viewBox="0 0 13.5 19.5" fill="none" xmlns="http://www.w3.org/2000/svg" xmlns:xlink="http://www.w3.org/1999/xlink" x="0" y="0"><path id="Vector_4" d="M5.75,1.7499h2M6.75,14.7499v0.01M0.75,2.7499c0,-0.53 0.21,-1.039 0.59,-1.414c0.37,-0.375 0.88,-0.586 1.41,-0.586h8c0.53,0 1.04,0.211 1.41,0.586c0.38,0.375 0.59,0.884 0.59,1.414v14c0,0.531 -0.21,1.039 -0.59,1.414c-0.37,0.375 -0.88,0.586 -1.41,0.586h-8c-0.53,0 -1.04,-0.211 -1.41,-0.586c-0.38,-0.375 -0.59,-0.883 -0.59,-1.414z" stroke="#F472B6" stroke-width="1.5" stroke-linecap="round" stroke-linejoin="round"/></svg>