<svg viewBox="0 0 17.5 17.5" fill="none" xmlns="http://www.w3.org/2000/svg" xmlns:xlink="http://www.w3.org/1999/xlink" x="0" y="0"><path id="Vector_5" d="M1.7501,0.75h4c0.27,0 0.52,0.11 0.71,0.29c0.18,0.19 0.29,0.44 0.29,0.71v6c0,0.27 -0.11,0.52 -0.29,0.71c-0.19,0.18 -0.44,0.29 -0.71,0.29h-4c-0.27,0 -0.52,-0.11 -0.71,-0.29c-0.18,-0.19 -0.29,-0.44 -0.29,-0.71v-6c0,-0.27 0.11,-0.52 0.29,-0.71c0.19,-0.18 0.44,-0.29 0.71,-0.29zM1.7501,12.75h4c0.27,0 0.52,0.11 0.71,0.29c0.18,0.19 0.29,0.44 0.29,0.71v2c0,0.27 -0.11,0.52 -0.29,0.71c-0.19,0.18 -0.44,0.29 -0.71,0.29h-4c-0.27,0 -0.52,-0.11 -0.71,-0.29c-0.18,-0.19 -0.29,-0.44 -0.29,-0.71v-2c0,-0.27 0.11,-0.52 0.29,-0.71c0.19,-0.18 0.44,-0.29 0.71,-0.29zM11.7501,8.75h4c0.27,0 0.52,0.11 0.71,0.29c0.18,0.19 0.29,0.44 0.29,0.71v6c0,0.27 -0.11,0.52 -0.29,0.71c-0.19,0.18 -0.44,0.29 -0.71,0.29h-4c-0.27,0 -0.52,-0.11 -0.71,-0.29c-0.18,-0.19 -0.29,-0.44 -0.29,-0.71v-6c0,-0.27 0.11,-0.52 0.29,-0.71c0.19,-0.18 0.44,-0.29 0.71,-0.29zM11.7501,0.75h4c0.27,0 0.52,0.11 0.71,0.29c0.18,0.19 0.29,0.44 0.29,0.71v2c0,0.27 -0.11,0.52 -0.29,0.71c-0.19,0.18 -0.44,0.29 -0.71,0.29h-4c-0.27,0 -0.52,-0.11 -0.71,-0.29c-0.18,-0.19 -0.29,-0.44 -0.29,-0.71v-2c0,-0.27 0.11,-0.52 0.29,-0.71c0.19,-0.18 0.44,-0.29 0.71,-0.29z" stroke="#34D399" stroke-width="1.5" stroke-linecap="round" stroke-linejoin="round"/></svg>