<svg viewBox="0 0 20 17.9999" fill="none" xmlns="http://www.w3.org/2000/svg" xmlns:xlink="http://www.w3.org/1999/xlink" x="0" y="0"><g id="Group">
<path id="Vector_2" d="M4.657,12.9999c-2.572,0 -4.657,-2.007 -4.657,-4.483c0,-2.476 2.085,-4.482 4.657,-4.482c0.393,-1.762 1.794,-3.2 3.675,-3.773c1.88,-0.572 3.956,-0.193 5.444,1c1.488,1.19 2.162,3.007 1.77,4.769h0.99c1.913,0 3.464,1.56 3.464,3.486c0,1.926 -1.551,3.487 -3.465,3.487h-11.878M10,12.9999v5" stroke="#818CF8" stroke-width="1.5" stroke-linecap="round" stroke-linejoin="round"/>
<path id="Vector_3" d="M14,12.9999v4c0,0.265 0.105,0.52 0.293,0.707c0.187,0.188 0.442,0.293 0.707,0.293h4M6,12.9999v4c0,0.265 -0.105,0.52 -0.293,0.707c-0.187,0.188 -0.442,0.293 -0.707,0.293h-4" stroke="#818CF8" stroke-width="1.5" stroke-linecap="round" stroke-linejoin="round"/>
</g></svg>